<?xml version="1.0" standalone="no"?>
<!DOCTYPE svg PUBLIC "-//W3C//DTD SVG 1.1//EN" "http://www.w3.org/Graphics/SVG/1.1/DTD/svg11.dtd" >
<svg xmlns="http://www.w3.org/2000/svg" xmlns:xlink="http://www.w3.org/1999/xlink" version="1.1">
<metadata>
Created by FontForge 20200427 at Wed May 25 10:17:36 2016
 By www
Copyright (c) 2013 by Gayane Bagdasaryan, Dmitry Rastvortsev. All rights reserved.
</metadata>
<defs>
<font id="BrutalTypeW00-Bold" horiz-adv-x="619" >
  <font-face 
    font-family="BrutalTypeW00-Bold"
    font-weight="700"
    font-stretch="normal"
    units-per-em="1000"
    panose-1="2 0 6 3 2 0 0 2 0 4"
    ascent="800"
    descent="-200"
    x-height="524"
    cap-height="700"
    bbox="-52 -261 1114 957"
    underline-thickness="50"
    underline-position="-125"
    unicode-range="U+0020-FB02"
  />
<missing-glyph horiz-adv-x="292" 
 />
    <glyph glyph-name="uniFB01" unicode="fi" horiz-adv-x="638" 
d="M430 0v411h-210v-411h-130v411h-77v113h77q0 56 24.5 97t69.5 63.5t112 22.5l38 -2v-116h-21q-47 0 -68.5 -15t-24.5 -50h340v-524h-130zM430 595v110h130v-110h-130z" />
    <glyph glyph-name="uniFB02" unicode="fl" horiz-adv-x="638" 
d="M90 0v411h-77v113h77q0 56 24.5 97t69.5 63.5t112 22.5l38 -2v-116h-21q-47 0 -68.5 -15t-24.5 -50h106v-113h-106v-411h-130zM430 0v705h130v-705h-130z" />
    <glyph glyph-name=".notdef" horiz-adv-x="292" 
 />
    <glyph glyph-name=".null" horiz-adv-x="0" 
 />
    <glyph glyph-name="nonmarkingreturn" horiz-adv-x="333" 
 />
    <glyph glyph-name="space" unicode=" " horiz-adv-x="234" 
 />
    <glyph glyph-name="exclam" unicode="!" horiz-adv-x="313" 
d="M92 220v480h130v-480h-130zM92 0v130h130v-130h-130z" />
    <glyph glyph-name="quotedbl" unicode="&#x22;" horiz-adv-x="426" 
d="M76 447l-26 206v52h130v-52l-26 -206h-78zM272 447l-26 206v52h130v-52l-26 -206h-78z" />
    <glyph glyph-name="numbersign" unicode="#" horiz-adv-x="685" 
d="M88 0v47l24 112h-78v118h103l31 146h-88v118h113l34 159h115v-47l-24 -112h129l34 159h116v-47l-24 -112h78v-118h-103l-31 -146h88v-118h-112l-34 -159h-116v47l24 112h-129l-34 -159h-116zM262 277h129l32 146h-130z" />
    <glyph glyph-name="dollar" unicode="$" horiz-adv-x="600" 
d="M43 227h130q0 -42 16 -70t45 -41t67 -13q49 0 76.5 24t27.5 61q0 17 -8.5 33t-26 26.5t-53.5 26.5l-81 36q-70 31 -105 56.5t-52.5 60.5t-17.5 85q0 78 49 132t127 67v92h130v-95q50 -11 88 -43.5t59.5 -79t21.5 -106.5h-130q0 32 -10.5 60t-38.5 43t-65 15
q-43 0 -70.5 -22t-27.5 -57q0 -27 14.5 -44.5t37 -28.5t53.5 -25l66 -29q113 -51 145 -94t32 -99q0 -48 -16.5 -89t-54.5 -73.5t-104 -46.5v-107h-130v106q-62 9 -105.5 42t-66 82.5t-22.5 114.5z" />
    <glyph glyph-name="percent" unicode="%" horiz-adv-x="792" 
d="M196 449q20 0 32 13t12 32v83q0 19 -12 32t-32 13t-32 -13t-12 -32v-83q0 -19 12 -32t32 -13zM196 356q-74 0 -116 40t-42 116v47q0 76 42 116t116 40t116 -40t42 -116v-47q0 -76 -42 -116t-116 -40zM596 78q20 0 32 13t12 32v83q0 19 -12 32t-32 13t-32 -13t-12 -32v-83
q0 -19 12 -32t32 -13zM596 -15q-74 0 -116 40t-42 116v47q0 76 42 116t116 40t116 -40t42 -116v-47q0 -76 -42 -116t-116 -40zM146 0v47l409 653h92v-47l-409 -653h-92z" />
    <glyph glyph-name="ampersand" unicode="&#x26;" horiz-adv-x="686" 
d="M53 175q0 50 23 93t81 94l9 8l-14 15q-43 43 -58.5 77.5t-15.5 72.5q0 76 52.5 124t135.5 48q29 0 60.5 -7.5t62 -29.5t46 -56.5t15.5 -71.5q0 -32 -16 -66.5t-65 -77.5l-27 -25l119 -119q22 61 22 122h123q0 -52 -14 -108t-40 -105l102 -102v-61h-114l-64 63
q-82 -75 -194 -75q-106 0 -167.5 49.5t-61.5 137.5zM281 106q62 0 110 42l-143 141l-10 -9q-22 -20 -38.5 -43t-16.5 -54q0 -36 26 -56.5t72 -20.5zM243 473l19 -19l27 24q18 17 27 28.5t9 30.5q0 23 -17 37.5t-40 14.5q-27 0 -43.5 -15.5t-16.5 -38.5q0 -9 4.5 -22.5
t30.5 -39.5z" />
    <glyph glyph-name="quotesingle" unicode="'" horiz-adv-x="230" 
d="M76 447l-26 206v52h130v-52l-26 -206h-78z" />
    <glyph glyph-name="parenleft" unicode="(" horiz-adv-x="318" 
d="M274 -160q-88 0 -137 52.5t-49 147.5v532q0 95 49 147.5t137 52.5v-118q-28 0 -43.5 -22.5t-15.5 -52.5v-546q0 -30 15.5 -52.5t43.5 -22.5v-118z" />
    <glyph glyph-name="parenright" unicode=")" horiz-adv-x="318" 
d="M44 -160v118q28 0 43.5 22.5t15.5 52.5v546q0 30 -15.5 52.5t-43.5 22.5v118q88 0 137 -52.5t49 -147.5v-532q0 -95 -49 -147.5t-137 -52.5z" />
    <glyph glyph-name="asterisk" unicode="*" horiz-adv-x="456" 
d="M177 333l8 113l-92 -65l-51 90l102 48l-102 48l51 90l92 -65l-8 113h102l-9 -113l94 65l50 -90l-103 -48l103 -48l-50 -90l-94 65l9 -113h-102z" />
    <glyph glyph-name="plus" unicode="+" horiz-adv-x="572" 
d="M227 92v167h-165v108h165v167h118v-167h165v-108h-165v-167h-118z" />
    <glyph glyph-name="comma" unicode="," horiz-adv-x="260" 
d="M32 -119l50 262h128v-55l-86 -207h-92z" />
    <glyph glyph-name="hyphen" unicode="-" horiz-adv-x="444" 
d="M58 254v118h328v-118h-328z" />
    <glyph glyph-name="period" unicode="." horiz-adv-x="279" 
d="M68 0v143h143v-143h-143z" />
    <glyph glyph-name="slash" unicode="/" horiz-adv-x="459" 
d="M38 -100v47l277 825h106v-47l-277 -825h-106z" />
    <glyph glyph-name="zero" unicode="0" horiz-adv-x="615" 
d="M307 103q53 0 81.5 32t28.5 82v266q0 50 -28.5 82t-81.5 32q-52 0 -80.5 -32t-28.5 -82v-266q0 -50 28.5 -82t80.5 -32zM307 -15q-111 0 -175 62t-64 177v252q0 115 64 177t175 62q112 0 176 -62t64 -177v-252q0 -115 -64 -177t-176 -62z" />
    <glyph glyph-name="one" unicode="1" horiz-adv-x="330" 
d="M112 0v524h-69v69l166 107h33v-700h-130z" />
    <glyph glyph-name="two" unicode="2" horiz-adv-x="562" 
d="M46 0v106l211 213q58 59 80.5 86.5t29 49t6.5 41.5q0 30 -12.5 54.5t-35 35.5t-49.5 11q-28 0 -52.5 -11.5t-37.5 -42t-14 -70.5h-124q0 69 28.5 127t83 86.5t116.5 28.5q41 0 82 -12t73 -39t52 -68.5t20 -94.5q0 -54 -20.5 -98t-54.5 -81.5t-73 -75.5l-133 -128h280
v-118h-456z" />
    <glyph glyph-name="three" unicode="3" horiz-adv-x="591" 
d="M288 -15q-54 0 -99 16.5t-76.5 48t-48.5 77.5t-18 103h125q2 -56 33.5 -91.5t87.5 -35.5q57 0 84 30.5t27 78.5q0 44 -30 67.5t-84 23.5h-44v118h35q35 0 60 12t34.5 33t9.5 43q0 24 -10 44t-30.5 32t-52.5 12q-34 0 -56.5 -13.5t-36 -40t-14.5 -65.5h-124
q0 112 61.5 174.5t168.5 62.5q52 0 94 -15t70 -41.5t42.5 -62t14.5 -75.5q0 -96 -82 -153q31 -13 57 -42t36.5 -63t10.5 -62q0 -100 -64.5 -158t-180.5 -58z" />
    <glyph glyph-name="four" unicode="4" horiz-adv-x="557" 
d="M330 0v129h-302v100l232 471h114v-47l-199 -406h155v164h130v-164h79v-118h-79v-129h-130z" />
    <glyph glyph-name="five" unicode="5" horiz-adv-x="591" 
d="M291 -15q-37 0 -76 9.5t-77.5 36.5t-60.5 71.5t-27 93.5h127q6 -40 38 -66.5t79 -26.5q56 0 82.5 37.5t26.5 99.5q0 42 -16.5 74t-42 44t-47.5 12q-67 0 -100 -53h-125l37 383h385v-118h-284l-14 -138q30 17 57 24.5t68 7.5t79 -13t68 -41t47.5 -74t17.5 -108
q0 -61 -17.5 -109.5t-49.5 -80.5t-77 -48.5t-98 -16.5z" />
    <glyph glyph-name="six" unicode="6" horiz-adv-x="588" 
d="M295 -15q-111 0 -178 63t-67 170q0 35 12.5 83t55.5 117l179 282h119v-47l-136 -209q30 5 59 5q41 0 78 -14t64.5 -41.5t43 -68.5t15.5 -93q0 -116 -66.5 -181.5t-178.5 -65.5zM295 103q55 0 85 33t30 88q0 56 -29.5 88t-86.5 32q-30 0 -57 -11t-42 -40.5t-15 -68.5
q0 -55 30 -88t85 -33z" />
    <glyph glyph-name="seven" unicode="7" horiz-adv-x="544" 
d="M153 0v47l207 535h-204v-85h-120v203h458v-110l-224 -590h-117z" />
    <glyph glyph-name="eight" unicode="8" horiz-adv-x="618" 
d="M309 -15q-117 0 -184 57t-67 156q0 42 18 80t42.5 59.5t44.5 29.5q-53 37 -70 75t-17 78q0 39 15.5 74.5t45.5 62.5t74 42.5t98 15.5t98 -15.5t74 -42.5t45.5 -62.5t15.5 -74.5q0 -40 -17 -78t-69 -75q31 -13 57 -43t36.5 -64.5t10.5 -61.5q0 -99 -67 -156t-184 -57z
M309 101q58 0 89 31.5t31 77.5q0 49 -33 77t-87 28t-87 -28t-33 -77q0 -46 31 -77.5t89 -31.5zM309 414q33 0 58.5 13.5t35.5 36.5t10 46q0 40 -26.5 66t-77.5 26q-25 0 -50 -9t-39.5 -31.5t-14.5 -51.5q0 -23 10 -46t35.5 -36.5t58.5 -13.5z" />
    <glyph glyph-name="nine" unicode="9" horiz-adv-x="588" 
d="M293 715q111 0 178 -63t67 -170q0 -35 -12.5 -83t-55.5 -117l-179 -282h-119v47l136 209q-30 -5 -59 -5q-41 0 -78 14t-64.5 41.5t-43 68.5t-15.5 93q0 116 66.5 181.5t178.5 65.5zM293 597q-55 0 -85 -33t-30 -88q0 -56 29.5 -88t86.5 -32q30 0 57 11t42 40.5t15 68.5
q0 55 -30 88t-85 33z" />
    <glyph glyph-name="colon" unicode=":" horiz-adv-x="279" 
d="M68 0v143h143v-143h-143zM68 381v143h143v-143h-143z" />
    <glyph glyph-name="semicolon" unicode=";" horiz-adv-x="278" 
d="M32 -119l50 262h128v-55l-86 -207h-92zM67 381v143h143v-143h-143z" />
    <glyph glyph-name="less" unicode="&#x3c;" horiz-adv-x="532" 
d="M408 80l-346 180v106l346 179h62v-92l-279 -140l279 -140v-93h-62z" />
    <glyph glyph-name="equal" unicode="=" horiz-adv-x="573" 
d="M62 151v108h449v-108h-449zM62 367v108h449v-108h-449z" />
    <glyph glyph-name="greater" unicode="&#x3e;" horiz-adv-x="532" 
d="M62 80v93l280 140l-280 140v92h62l346 -179v-106l-346 -180h-62z" />
    <glyph glyph-name="question" unicode="?" horiz-adv-x="525" 
d="M184 220v115l100 71q48 34 60.5 56.5t12.5 49.5q0 37 -25 61t-69 24q-38 0 -65 -18.5t-36.5 -47t-9.5 -53.5h-124q0 55 18 100t50 75.5t75.5 46t92.5 15.5q54 0 96.5 -16.5t70.5 -44.5t42 -64t14 -75q0 -29 -8.5 -58.5t-33 -61.5t-100.5 -83l-31 -21v-71h-130zM184 0v130
h130v-130h-130z" />
    <glyph glyph-name="at" unicode="@" horiz-adv-x="992" 
d="M570 208v147q-42 42 -89 42q-26 0 -46.5 -17.5t-20.5 -46.5v-102q0 -29 20.5 -46.5t46.5 -17.5q46 0 89 41zM587 114q-26 -23 -56.5 -37t-73.5 -14q-24 0 -50 6.5t-49 23t-39.5 47t-16.5 77.5v131q0 38 15 74t53 57.5t87 21.5q33 0 65 -10.5t65 -40.5l32 42h63v-271
q0 -28 13.5 -44t40.5 -16q21 0 38 13.5t28.5 48t11.5 99.5q0 67 -24.5 123t-67 94.5t-99 59t-118.5 20.5q-70 0 -130 -23.5t-104 -68t-68 -107.5t-24 -137q0 -75 24 -137.5t68 -106.5t104 -67.5t130 -23.5h25v-99h-25q-94 0 -175 31.5t-139.5 90t-90.5 138.5t-32 173
q0 94 32 175t90 138.5t139.5 88.5t175.5 31q86 0 163 -27.5t134.5 -79t89.5 -125.5t32 -161q0 -58 -14 -106.5t-40 -82.5t-64.5 -52t-85.5 -18q-88 0 -133 51z" />
    <glyph glyph-name="A" unicode="A" horiz-adv-x="660" 
d="M18 0v47l242 653h139l243 -653v-47h-140l-56 164h-239l-58 -164h-131zM249 282h154l-76 228z" />
    <glyph glyph-name="B" unicode="B" horiz-adv-x="667" 
d="M88 0v700h296q97 0 152 -49.5t55 -143.5q0 -100 -78 -144q35 -15 58.5 -38t35.5 -54t12 -74q0 -97 -54.5 -147t-152.5 -50h-324zM230 409h146q21 0 39 11.5t25.5 32t7.5 40.5q0 40 -21 61.5t-51 21.5h-146v-167zM230 124h175q21 0 39 11.5t25.5 32t7.5 40.5
q0 40 -21 61.5t-51 21.5h-175v-167z" />
    <glyph glyph-name="C" unicode="C" horiz-adv-x="661" 
d="M343 -15q-132 0 -203.5 66t-71.5 186v226q0 120 71.5 186t203.5 66q52 0 99.5 -14.5t83.5 -44.5t56.5 -77t20.5 -109v-10h-142v10q0 14 -4 34t-18 37.5t-40.5 30.5t-64.5 13q-61 0 -92.5 -30t-31.5 -82v-246q0 -52 31.5 -82t92.5 -30q24 0 54 8.5t51.5 35t21.5 71.5v10
h142v-10q0 -62 -20.5 -109t-56.5 -77t-83.5 -44.5t-99.5 -14.5z" />
    <glyph glyph-name="D" unicode="D" horiz-adv-x="689" 
d="M230 124h112q33 0 64.5 11t52 39.5t20.5 62.5v226q0 34 -20.5 62.5t-52 39.5t-64.5 11h-112v-452zM88 0v700h254q129 0 204 -63.5t75 -177.5v-218q0 -114 -75 -177.5t-204 -63.5h-254z" />
    <glyph glyph-name="E" unicode="E" horiz-adv-x="594" 
d="M88 0v700h456v-124h-314v-166h268v-118h-268v-168h316v-124h-458z" />
    <glyph glyph-name="F" unicode="F" horiz-adv-x="590" 
d="M88 0v700h464v-124h-322v-175h274v-118h-274v-283h-142z" />
    <glyph glyph-name="G" unicode="G" horiz-adv-x="691" 
d="M324 -15q-120 0 -188 66.5t-68 182.5v229q0 119 74 185.5t205 66.5q56 0 105 -15.5t85 -46.5t56 -77t20 -104h-142q0 52 -37 82.5t-95 30.5q-65 0 -97 -32t-32 -84v-234q0 -56 33.5 -88t93.5 -32q40 0 77 19t57 50v76h-124v118h266v-378h-76l-39 58q-32 -35 -77 -54
t-97 -19z" />
    <glyph glyph-name="H" unicode="H" horiz-adv-x="716" 
d="M88 0v700h142v-288h256v288h142v-700h-142v288h-256v-288h-142z" />
    <glyph glyph-name="I" unicode="I" horiz-adv-x="318" 
d="M88 0v700h142v-700h-142z" />
    <glyph glyph-name="J" unicode="J" horiz-adv-x="584" 
d="M263 -15q-82 0 -135.5 25t-81.5 74t-28 125v31h142v-31q0 -48 27.5 -71t75.5 -23q43 0 72.5 24t29.5 75v486h142v-491q0 -73 -28.5 -122t-82.5 -75.5t-133 -26.5z" />
    <glyph glyph-name="K" unicode="K" horiz-adv-x="637" 
d="M88 0v700h142v-288h74l169 288h132v-47l-177 -295l192 -311v-47h-141l-175 288h-74v-288h-142z" />
    <glyph glyph-name="L" unicode="L" horiz-adv-x="568" 
d="M88 0v700h142v-576h320v-124h-462z" />
    <glyph glyph-name="M" unicode="M" horiz-adv-x="814" 
d="M451 218h-88l-138 230v-448h-137v700h137l184 -309l184 309h133v-700h-137v448z" />
    <glyph glyph-name="N" unicode="N" horiz-adv-x="716" 
d="M88 0v700h130l268 -436v436h142v-700h-130l-268 436v-436h-142z" />
    <glyph glyph-name="O" unicode="O" horiz-adv-x="694" 
d="M347 115q34 0 66 11.5t51.5 40.5t19.5 64v238q0 35 -19.5 64t-51.5 40.5t-66 11.5t-66 -11.5t-51.5 -40.5t-19.5 -64v-238q0 -35 19.5 -64t51.5 -40.5t66 -11.5zM347 -15q-128 0 -203.5 67.5t-75.5 185.5v224q0 118 75.5 185.5t203.5 67.5q63 0 115 -17t88.5 -50
t56 -80.5t19.5 -105.5v-224q0 -58 -19.5 -105.5t-56 -80.5t-88.5 -50t-115 -17z" />
    <glyph glyph-name="P" unicode="P" horiz-adv-x="645" 
d="M88 0v700h313q94 0 147.5 -60t53.5 -161t-54 -160.5t-147 -59.5h-171v-259h-142zM230 383h145q24 0 45 13.5t29.5 37t8.5 46.5t-8.5 46t-29.5 36.5t-45 13.5h-145v-193z" />
    <glyph glyph-name="Q" unicode="Q" horiz-adv-x="694" 
d="M347 -15q-128 0 -203.5 67.5t-75.5 185.5v224q0 118 75.5 185.5t203.5 67.5q63 0 115 -17t88.5 -50t56 -80.5t19.5 -105.5v-224q0 -119 -79 -190l78 -119v-48h-137l-72 111q-30 -7 -69 -7zM347 115q34 0 66 11.5t51.5 40.5t19.5 64v238q0 35 -19.5 64t-51.5 40.5
t-66 11.5t-66 -11.5t-51.5 -40.5t-19.5 -64v-238q0 -35 19.5 -64t51.5 -40.5t66 -11.5z" />
    <glyph glyph-name="R" unicode="R" horiz-adv-x="676" 
d="M88 0v700h303q105 0 161 -57.5t56 -160.5q0 -34 -10.5 -74t-38 -74.5t-66.5 -53.5l129 -233v-47h-138l-146 263h-108v-263h-142zM230 383h135q98 0 98 97q0 96 -98 96h-135v-193z" />
    <glyph glyph-name="S" unicode="S" horiz-adv-x="648" 
d="M317 -15q-71 0 -124.5 21.5t-87 56t-48 78t-14.5 86.5h142q0 -32 15.5 -58.5t51 -40t73.5 -13.5q54 0 84.5 21.5t30.5 54.5q0 18 -10.5 31t-28 22.5t-36 17t-47.5 18t-41 15.5l-29 11q-111 42 -149 89.5t-38 108.5q0 96 70 153.5t189 57.5q88 0 146 -28.5t88 -80
t30 -127.5h-142q0 42 -21 66.5t-50 32t-53 7.5q-52 0 -83 -20t-31 -53q0 -9 3.5 -21t15.5 -22.5t29 -18t41 -16t29 -10.5l28 -10q106 -38 142 -60.5t56 -44t31 -49.5t11 -62q0 -45 -17.5 -84.5t-52 -68t-86.5 -44.5t-117 -16z" />
    <glyph glyph-name="T" unicode="T" horiz-adv-x="571" 
d="M215 0v576h-197v124h535v-124h-196v-576h-142z" />
    <glyph glyph-name="U" unicode="U" horiz-adv-x="696" 
d="M476 700h143v-470q0 -115 -73 -180t-197 -65q-61 0 -111.5 16.5t-86 48t-54.5 77.5t-19 103v470h142v-476q0 -32 18.5 -59.5t48.5 -38.5t62 -11t61.5 11t47.5 38.5t18 59.5v476z" />
    <glyph glyph-name="V" unicode="V" horiz-adv-x="661" 
d="M261 0l-243 653v47h136l179 -510l175 510h135v-47l-242 -653h-140z" />
    <glyph glyph-name="W" unicode="W" horiz-adv-x="842" 
d="M179 0l-141 653v47h138l97 -473l105 305h89l108 -308l94 476h135v-47l-141 -653h-132l-110 314l-110 -314h-132z" />
    <glyph glyph-name="X" unicode="X" horiz-adv-x="660" 
d="M28 0v47l214 317l-194 289v47h145l137 -225l146 225h136v-47l-196 -288l216 -318v-47h-144l-161 250l-163 -250h-136z" />
    <glyph glyph-name="Y" unicode="Y" horiz-adv-x="618" 
d="M238 0v277l-230 376v47h140l162 -290l169 290h131v-47l-230 -370v-283h-142z" />
    <glyph glyph-name="Z" unicode="Z" horiz-adv-x="592" 
d="M38 0v123l342 453h-327v124h490v-122l-343 -454h354v-124h-516z" />
    <glyph glyph-name="bracketleft" unicode="[" horiz-adv-x="340" 
d="M88 -160v932h204v-118h-77v-696h77v-118h-204z" />
    <glyph glyph-name="backslash" unicode="\" horiz-adv-x="459" 
d="M421 -53v-47h-106l-277 825v47h106z" />
    <glyph glyph-name="bracketright" unicode="]" horiz-adv-x="340" 
d="M252 772v-932h-204v118h77v696h-77v118h204z" />
    <glyph glyph-name="asciicircum" unicode="^" horiz-adv-x="537" 
d="M62 387v47l151 271h109l153 -271v-47h-111l-97 171l-94 -171h-111z" />
    <glyph glyph-name="underscore" unicode="_" horiz-adv-x="568" 
d="M-1 -138v108h570v-108h-570z" />
    <glyph glyph-name="grave" unicode="`" horiz-adv-x="304" 
d="M141 590l-83 95v45h117l71 -140h-105z" />
    <glyph glyph-name="a" unicode="a" horiz-adv-x="566" 
d="M219 -12q-54 0 -94 21t-61 55t-21 80q0 82 53.5 126t158.5 44h108v33q0 34 -21 52.5t-63 18.5t-63 -16.5t-21 -43.5h-127q0 59 27 98.5t73 59.5t111 20q104 0 159 -49.5t55 -130.5v-356h-75l-38 51q-32 -30 -70 -46.5t-91 -16.5zM246 106q71 0 117 51v58h-108
q-23 0 -43 -6t-29.5 -19.5t-9.5 -28.5q0 -26 19 -40.5t54 -14.5z" />
    <glyph glyph-name="b" unicode="b" horiz-adv-x="596" 
d="M78 0v705h130v-218q57 49 139 49q59 0 100.5 -24.5t63.5 -66.5t22 -101v-164q0 -59 -22 -101t-63.5 -66.5t-100.5 -24.5q-39 0 -77.5 13t-78.5 51l-38 -52h-75zM208 363v-202q55 -55 112 -55q23 0 44 12.5t30 32.5t9 39v144q0 19 -9 39t-30 32.5t-44 12.5q-57 0 -112 -55
z" />
    <glyph glyph-name="c" unicode="c" horiz-adv-x="543" 
d="M277 -12q-101 0 -161.5 52.5t-60.5 141.5v160q0 89 60.5 141.5t161.5 52.5q98 0 156.5 -52t58.5 -144v-6h-130v6q0 35 -22.5 56.5t-62.5 21.5q-46 0 -69 -20t-23 -54v-164q0 -34 23 -54t69 -20q40 0 62.5 21t22.5 56v10h130v-7q0 -33 -10.5 -67.5t-36 -63.5t-68 -48
t-100.5 -19z" />
    <glyph glyph-name="d" unicode="d" horiz-adv-x="596" 
d="M518 705v-705h-75l-38 52q-31 -30 -68 -47t-88 -17q-59 0 -100.5 24.5t-63.5 66.5t-22 101v164q0 59 22 101t63.5 66.5t100.5 24.5q82 0 139 -49v218h130zM388 161v202q-55 55 -112 55q-23 0 -44 -12.5t-30 -32.5t-9 -39v-144q0 -19 9 -39t30 -32.5t44 -12.5q57 0 112 55
z" />
    <glyph glyph-name="e" unicode="e" horiz-adv-x="556" 
d="M283 -12q-51 0 -93 13t-72.5 37.5t-46.5 60.5t-16 81v162q0 89 62.5 141.5t165.5 52.5q98 0 158 -51t60 -141v-125h-316v-37q0 -34 25 -55t73 -21q36 0 58 14t29 39h130q-8 -80 -65 -125.5t-152 -45.5zM185 318h186v26q0 34 -24.5 54t-68.5 20q-45 0 -69 -20.5t-24 -53.5
v-26z" />
    <glyph glyph-name="f" unicode="f" horiz-adv-x="352" 
d="M90 0v411h-77v113h77q0 56 24.5 97t69.5 63.5t112 22.5l38 -2v-116h-21q-47 0 -68.5 -15t-24.5 -50h106v-113h-106v-411h-130z" />
    <glyph glyph-name="g" unicode="g" horiz-adv-x="596" 
d="M518 524v-492q0 -99 -61 -151.5t-163 -52.5q-100 0 -159 46t-59 125v4h130v-3q0 -20 21.5 -37t65.5 -17q48 0 71.5 23.5t23.5 62.5v60q-57 -49 -139 -49q-59 0 -100.5 24.5t-63.5 66.5t-22 101v109q0 59 22 101t63.5 66.5t100.5 24.5q39 0 77.5 -13t78.5 -51l38 52h75z
M388 216v147q-55 55 -112 55q-23 0 -44 -12.5t-30 -32.5t-9 -39v-89q0 -19 9 -39t30 -32.5t44 -12.5q57 0 112 55z" />
    <glyph glyph-name="h" unicode="h" horiz-adv-x="601" 
d="M78 0v705h130v-218q60 49 138 49q85 0 133.5 -54t48.5 -149v-333h-130v325q0 45 -23 69t-58 24q-25 0 -55 -14t-54 -41v-363h-130z" />
    <glyph glyph-name="i" unicode="i" horiz-adv-x="286" 
d="M78 0v524h130v-524h-130zM78 595v110h130v-110h-130z" />
    <glyph glyph-name="j" unicode="j" horiz-adv-x="287" 
d="M79 524h130v-504q0 -35 -9.5 -68.5t-31 -61.5t-56.5 -45t-82 -17q-23 0 -37 2v116h22q64 0 64 76v502zM79 595v110h130v-110h-130z" />
    <glyph glyph-name="k" unicode="k" horiz-adv-x="552" 
d="M78 0v705h130v-380h55l127 199h112v-61l-122 -191l135 -211v-61h-116l-136 212h-55v-212h-130z" />
    <glyph glyph-name="l" unicode="l" horiz-adv-x="286" 
d="M78 0v705h130v-705h-130z" />
    <glyph glyph-name="m" unicode="m" horiz-adv-x="879" 
d="M507 360v-360h-130v335q0 40 -20.5 61.5t-51.5 21.5q-55 0 -97 -58v-360h-130v524h75l38 -52q62 64 145 64q48 0 85 -19.5t58 -55.5q67 75 156 75q52 0 89 -21.5t59.5 -63.5t22.5 -105v-346h-130v335q0 40 -20.5 61.5t-51.5 21.5q-55 0 -97 -58z" />
    <glyph glyph-name="n" unicode="n" horiz-adv-x="601" 
d="M78 0v524h75l38 -52q66 64 155 64q85 0 133.5 -54t48.5 -149v-333h-130v325q0 45 -23 69t-58 24q-25 0 -55 -14t-54 -41v-363h-130z" />
    <glyph glyph-name="o" unicode="o" horiz-adv-x="565" 
d="M283 106q46 0 71.5 23.5t25.5 58.5v148q0 35 -25.5 58.5t-71.5 23.5q-23 0 -46.5 -8t-37.5 -28.5t-14 -45.5v-148q0 -25 14 -45.5t37.5 -28.5t46.5 -8zM283 -12q-69 0 -118.5 22.5t-79.5 66t-30 105.5v160q0 62 30 105.5t79.5 66t118.5 22.5q41 0 81.5 -10t76.5 -36.5
t52.5 -66.5t16.5 -81v-160q0 -41 -14.5 -76.5t-43 -62t-72 -41t-97.5 -14.5z" />
    <glyph glyph-name="p" unicode="p" horiz-adv-x="596" 
d="M78 -160v684h75l38 -52q31 30 68 47t88 17q59 0 100.5 -24.5t63.5 -66.5t22 -101v-164q0 -59 -22 -101t-63.5 -66.5t-100.5 -24.5q-82 0 -139 49v-197h-130zM208 363v-202q55 -55 112 -55q23 0 44 12.5t30 32.5t9 39v144q0 19 -9 39t-30 32.5t-44 12.5q-57 0 -112 -55z
" />
    <glyph glyph-name="q" unicode="q" horiz-adv-x="596" 
d="M518 524v-684h-130v197q-57 -49 -139 -49q-59 0 -100.5 24.5t-63.5 66.5t-22 101v164q0 59 22 101t63.5 66.5t100.5 24.5q39 0 77.5 -13t78.5 -51l38 52h75zM388 161v202q-55 55 -112 55q-23 0 -44 -12.5t-30 -32.5t-9 -39v-144q0 -19 9 -39t30 -32.5t44 -12.5
q57 0 112 55z" />
    <glyph glyph-name="r" unicode="r" horiz-adv-x="382" 
d="M78 0v524h75l38 -52q55 64 136 64h27v-125h-27q-41 0 -69.5 -11t-49.5 -37v-363h-130z" />
    <glyph glyph-name="s" unicode="s" horiz-adv-x="559" 
d="M284 -12q-51 0 -94 13.5t-74 38.5t-48.5 61t-18.5 79h129q3 -25 22.5 -43t47 -24.5t52.5 -6.5q34 0 55.5 12.5t21.5 31.5q0 28 -35 36l-145 37q-69 18 -103 53.5t-34 91.5q0 77 57 122.5t156 45.5q101 0 159.5 -47.5t61.5 -132.5h-130q-2 30 -28.5 46t-72.5 16
q-39 0 -58 -12.5t-19 -29.5q0 -11 8.5 -20.5t36.5 -16.5l149 -37q123 -30 123 -142q0 -79 -60 -125.5t-159 -46.5z" />
    <glyph glyph-name="t" unicode="t" horiz-adv-x="387" 
d="M287 0q-94 0 -143 49.5t-49 149.5v212h-77v113h77v109h130v-109h119v-113h-119v-212q0 -48 19.5 -67t56.5 -19h43v-113h-57z" />
    <glyph glyph-name="u" unicode="u" horiz-adv-x="597" 
d="M519 524v-524h-75l-38 51q-67 -63 -153 -63q-84 0 -132 53.5t-48 147.5v335h130v-327q0 -44 22.5 -67.5t56.5 -23.5q25 0 54.5 14t52.5 40v364h130z" />
    <glyph glyph-name="v" unicode="v" horiz-adv-x="514" 
d="M198 0l-180 463v61h121l123 -346l116 346h118v-61l-180 -463h-118z" />
    <glyph glyph-name="w" unicode="w" horiz-adv-x="724" 
d="M152 0l-109 463v61h118l74 -346l84 254h87l85 -254l73 346h117v-61l-110 -463h-122l-86 228l-86 -228h-125z" />
    <glyph glyph-name="x" unicode="x" horiz-adv-x="529" 
d="M38 0v61l145 201l-143 201v61h117l107 -163l109 163h110v-61l-139 -196l148 -206v-61h-116l-114 174l-113 -174h-111z" />
    <glyph glyph-name="y" unicode="y" horiz-adv-x="515" 
d="M149 -160v47l49 113l-180 463v61h120l124 -347l117 347h118v-61l-242 -623h-106z" />
    <glyph glyph-name="z" unicode="z" horiz-adv-x="533" 
d="M48 0v113l256 298h-249v113h405v-113l-259 -298h273v-113h-426z" />
    <glyph glyph-name="braceleft" unicode="{" horiz-adv-x="343" 
d="M295 -160q-89 0 -137.5 49t-48.5 143v142q0 79 -56 79h-25v118h25q56 0 56 79v129q0 94 48.5 143.5t137.5 49.5v-118q-28 0 -43.5 -22.5t-15.5 -52.5v-164q0 -30 -15 -57.5t-49 -45.5q34 -18 49 -45.5t15 -57.5v-176q0 -30 15.5 -52.5t43.5 -22.5v-118z" />
    <glyph glyph-name="bar" unicode="|" horiz-adv-x="303" 
d="M88 -100v872h127v-872h-127z" />
    <glyph glyph-name="braceright" unicode="}" horiz-adv-x="339" 
d="M48 -160v118q28 0 43.5 22.5t15.5 52.5v176q0 30 15 57.5t49 45.5q-34 18 -49 45.5t-15 57.5v164q0 30 -15.5 52.5t-43.5 22.5v118q89 0 137.5 -49.5t48.5 -143.5v-129q0 -79 56 -79h25v-118h-25q-56 0 -56 -79v-142q0 -94 -48.5 -143t-137.5 -49z" />
    <glyph glyph-name="asciitilde" unicode="~" horiz-adv-x="499" 
d="M368 392l88 -51q-54 -116 -135 -116q-33 0 -70 24l-27 17q-23 15 -39 15q-10 0 -21.5 -7.5t-31.5 -41.5l-88 51q54 116 135 116q33 0 70 -24l27 -17q23 -15 39 -15q10 0 21.5 7.5t31.5 41.5z" />
    <glyph glyph-name="uni00A0" unicode="&#xa0;" horiz-adv-x="234" 
 />
    <glyph glyph-name="exclamdown" unicode="&#xa1;" horiz-adv-x="313" 
d="M92 -160v464h130v-464h-130zM92 394v130h130v-130h-130z" />
    <glyph glyph-name="cent" unicode="&#xa2;" horiz-adv-x="550" 
d="M229 0v76q-80 14 -127 64t-47 127v159q0 76 47 126.5t127 64.5v83h94v-82q81 -11 128.5 -61.5t47.5 -131.5v-7h-123v10q0 28 -16.5 47.5t-45.5 26.5v-311q26 4 44 26t18 51v10h123v-8q0 -29 -8.5 -60.5t-29.5 -59t-55.5 -48t-82.5 -27.5v-75h-94zM237 191v311
q-28 -5 -45 -24.5t-17 -45.5v-171q0 -26 17 -45.5t45 -24.5z" />
    <glyph glyph-name="sterling" unicode="&#xa3;" horiz-adv-x="581" 
d="M38 0v118h67v176h-67v118h67v109q0 89 60 141.5t161 52.5q48 0 88.5 -13.5t69 -39.5t44 -65.5t15.5 -89.5v-34h-130v34q0 43 -23 66.5t-66 23.5q-45 0 -67 -23t-22 -59v-103h129v-118h-129v-176h308v-118h-505z" />
    <glyph glyph-name="yen" unicode="&#xa5;" horiz-adv-x="577" 
d="M223 0v96h-162v103h162v81h-162v103h114l-167 270v47h119l162 -276l163 276h117v-47l-168 -270h115v-103h-163v-81h163v-103h-163v-96h-130z" />
    <glyph glyph-name="brokenbar" unicode="&#xa6;" horiz-adv-x="303" 
d="M88 -100v350h127v-350h-127zM88 442v330h127v-330h-127z" />
    <glyph glyph-name="section" unicode="&#xa7;" horiz-adv-x="593" 
d="M48 28h125q0 -29 17 -48t46 -29t62 -10q46 0 73 15.5t27 40.5q0 15 -7.5 25.5t-24 20t-86.5 33.5l-26 9q-109 38 -149 81.5t-40 102.5q0 32 14 67t55 78q-35 29 -49.5 57t-14.5 68q0 73 60 118.5t160 45.5q52 0 95 -11t75 -34.5t49.5 -61t17.5 -88.5h-124q0 27 -16 45
t-43.5 27.5t-58.5 9.5q-43 0 -68 -14.5t-25 -38.5q0 -13 9 -25.5t31 -22.5t72 -27l40 -12q71 -24 110.5 -50t59 -59t19.5 -77q0 -33 -13 -68t-53 -78q25 -21 42.5 -47.5t17.5 -75.5q0 -35 -15.5 -65.5t-46 -53.5t-75 -35.5t-99.5 -12.5q-76 0 -130.5 26t-83.5 69.5
t-29 104.5zM376 166q31 40 31 81q0 15 -10 33t-34.5 34t-54.5 26l-79 27q-35 -44 -35 -80q0 -22 17 -41.5t41 -32t44 -19.5z" />
    <glyph glyph-name="dieresis" unicode="&#xa8;" horiz-adv-x="461" 
d="M64 595v110h130v-110h-130zM267 595v110h130v-110h-130z" />
    <glyph glyph-name="copyright" unicode="&#xa9;" horiz-adv-x="840" 
d="M420 -15q-74 0 -140.5 28t-115.5 77.5t-76.5 117t-27.5 142.5t27.5 142.5t76.5 117t115.5 77.5t140.5 28t140.5 -28t115.5 -77.5t76.5 -117t27.5 -142.5t-27.5 -142.5t-76.5 -117t-115.5 -77.5t-140.5 -28zM420 54q58 0 110.5 22.5t91.5 63t60.5 95t21.5 115.5
t-21.5 115.5t-60.5 95t-91.5 63t-110.5 22.5t-110.5 -22.5t-91.5 -63t-60.5 -95t-21.5 -115.5t21.5 -115.5t60.5 -95t91.5 -63t110.5 -22.5zM419 140q-78 0 -125.5 40.5t-47.5 108.5v123q0 68 47.5 108.5t125.5 40.5q77 0 122.5 -40t45.5 -111v-4h-102v4q0 27 -17.5 43.5
t-48.5 16.5q-36 0 -54 -15.5t-18 -41.5v-126q0 -26 18 -41.5t54 -15.5q31 0 48.5 16.5t17.5 43.5v7h102v-5q0 -70 -47 -111t-121 -41z" />
    <glyph glyph-name="ordfeminine" unicode="&#xaa;" horiz-adv-x="381" 
d="M148 353q-53 0 -85.5 26t-32.5 77q0 52 36 77t111 25h52v21q0 38 -43 38q-20 0 -31 -10.5t-11 -29.5h-98q0 59 34 93.5t108 34.5q73 0 108 -33t35 -89v-225h-55l-24 31q-39 -36 -104 -36zM169 430q16 0 33 8t27 20v37h-52q-18 0 -31 -7.5t-13 -24.5q0 -12 9.5 -22.5
t26.5 -10.5z" />
    <glyph glyph-name="guillemotleft" unicode="&#xab;" horiz-adv-x="549" 
d="M164 103l-128 211l128 210h112v-37l-104 -173l104 -174v-37h-112zM377 103l-128 211l128 210h112v-37l-104 -173l104 -174v-37h-112z" />
    <glyph glyph-name="logicalnot" unicode="&#xac;" horiz-adv-x="564" 
d="M390 195v172h-332v108h448v-280h-116z" />
    <glyph glyph-name="uni00AD" unicode="&#xad;" horiz-adv-x="444" 
d="M58 254v118h328v-118h-328z" />
    <glyph glyph-name="registered" unicode="&#xae;" horiz-adv-x="410" 
d="M138 456v176h74q30 0 48 -14.5t18 -39.5q0 -44 -37 -57l37 -51v-14h-42l-40 58h-16v-58h-42zM180 551h33q9 0 16 5.5t7 16.5q0 19 -23 19h-33v-41zM205 371q-25 0 -53 8.5t-53 29.5t-43 55t-18 79q0 26 8.5 55.5t29.5 55t53.5 43.5t75.5 18q25 0 53 -8.5t53 -29.5t43 -55
t18 -79q0 -26 -8.5 -55.5t-29.5 -55t-53.5 -43.5t-75.5 -18zM205 409q25 0 54.5 13t51 46.5t21.5 74.5t-21.5 74.5t-51 46.5t-54.5 13t-54.5 -13t-51 -46.5t-21.5 -74.5t21.5 -74.5t51 -46.5t54.5 -13z" />
    <glyph glyph-name="macron" unicode="&#xaf;" horiz-adv-x="422" 
d="M50 604v96h322v-96h-322z" />
    <glyph glyph-name="degree" unicode="&#xb0;" horiz-adv-x="392" 
d="M196 449q20 0 32 13t12 32v83q0 19 -12 32t-32 13t-32 -13t-12 -32v-83q0 -19 12 -32t32 -13zM196 356q-74 0 -116 40t-42 116v47q0 76 42 116t116 40t116 -40t42 -116v-47q0 -76 -42 -116t-116 -40z" />
    <glyph glyph-name="plusminus" unicode="&#xb1;" horiz-adv-x="572" 
d="M227 190v154h-165v108h165v155h118v-155h165v-108h-165v-154h-118zM62 0v109h448v-109h-448z" />
    <glyph glyph-name="uni00B2" unicode="&#xb2;" horiz-adv-x="313" 
d="M25 358v79l109 84q18 15 30.5 28.5t12.5 28.5q0 10 -8.5 17t-20.5 7t-21.5 -7.5t-9.5 -18.5h-97q0 22 7 45t25 43.5t46.5 30.5t54.5 10q56 0 92 -32t36 -79q0 -28 -12.5 -54t-55.5 -62l-45 -34h115v-86h-258z" />
    <glyph glyph-name="uni00B3" unicode="&#xb3;" horiz-adv-x="321" 
d="M161 353q-62 0 -101.5 36t-39.5 92h87q0 -17 14 -29t36 -12q39 0 39 28q0 25 -38 25h-41v69h41q14 0 23 8t9 21q0 12 -10 20t-25 8q-19 0 -30.5 -12t-11.5 -33h-87q0 46 20 77t52 42.5t60 11.5t58 -9.5t49.5 -34t19.5 -55.5q0 -23 -11.5 -40.5t-26.5 -26.5
q20 -8 33.5 -28.5t13.5 -45.5q0 -49 -36 -80.5t-97 -31.5z" />
    <glyph glyph-name="acute" unicode="&#xb4;" horiz-adv-x="304" 
d="M58 590l71 140h117v-45l-84 -95h-104z" />
    <glyph glyph-name="uni00B5" unicode="&#xb5;" horiz-adv-x="602" 
d="M524 524v-524h-75l-38 51q-67 -63 -148 -63q-34 0 -55 12v-160h-130v684h130v-332q0 -31 13.5 -51.5t32 -27.5t33.5 -7q25 0 54.5 14t52.5 40v364h130z" />
    <glyph glyph-name="paragraph" unicode="&#xb6;" horiz-adv-x="635" 
d="M213 -87v455q-81 0 -128 42.5t-47 119.5v8q0 78 46.5 120t128.5 42h334v-787h-124v669h-86v-669h-124z" />
    <glyph glyph-name="periodcentered" unicode="&#xb7;" horiz-adv-x="278" 
d="M67 243v143h143v-143h-143z" />
    <glyph glyph-name="cedilla" unicode="&#xb8;" horiz-adv-x="303" 
d="M64 -160v45l80 115h104l-67 -160h-117z" />
    <glyph glyph-name="uni00B9" unicode="&#xb9;" horiz-adv-x="258" 
d="M94 358v194h-64v57l133 91h35v-342h-104z" />
    <glyph glyph-name="ordmasculine" unicode="&#xba;" horiz-adv-x="391" 
d="M196 449q24 0 39 16.5t15 39.5v48q0 23 -15 39.5t-39 16.5t-39.5 -16.5t-15.5 -39.5v-48q0 -23 15.5 -39.5t39.5 -16.5zM196 353q-77 0 -117 41.5t-40 122.5v24q0 81 40 122.5t117 41.5t116.5 -41.5t39.5 -122.5v-24q0 -81 -39.5 -122.5t-116.5 -41.5z" />
    <glyph glyph-name="guillemotright" unicode="&#xbb;" horiz-adv-x="549" 
d="M300 314l-128 -211h-112v37l104 174l-104 173v37h112zM513 314l-128 -211h-112v37l104 174l-104 173v37h112z" />
    <glyph glyph-name="onequarter" unicode="&#xbc;" horiz-adv-x="747" 
d="M86 0v47l409 653h92v-47l-409 -653h-92zM94 358v194h-64v57l133 91h35v-342h-104zM536 342h71v-53l-97 -151h69v61h97v-61h41v-83h-41v-55h-97v55h-174v81z" />
    <glyph glyph-name="onehalf" unicode="&#xbd;" horiz-adv-x="738" 
d="M86 0v47l409 653h92v-47l-409 -653h-92zM94 358v194h-64v57l133 91h35v-342h-104zM450 0v79l109 84q18 15 30.5 28.5t12.5 28.5q0 10 -8.5 17t-20.5 7t-21.5 -7.5t-9.5 -18.5h-97q0 22 7 45t25 43.5t46.5 30.5t54.5 10q56 0 92 -32t36 -79q0 -28 -12.5 -54t-55.5 -62
l-45 -34h115v-86h-258z" />
    <glyph glyph-name="threequarters" unicode="&#xbe;" horiz-adv-x="787" 
d="M161 353q-62 0 -101.5 36t-39.5 92h87q0 -17 14 -29t36 -12q39 0 39 28q0 25 -38 25h-41v69h41q14 0 23 8t9 21q0 12 -10 20t-25 8q-19 0 -30.5 -12t-11.5 -33h-87q0 46 20 77t52 42.5t60 11.5t58 -9.5t49.5 -34t19.5 -55.5q0 -23 -11.5 -40.5t-26.5 -26.5
q20 -8 33.5 -28.5t13.5 -45.5q0 -49 -36 -80.5t-97 -31.5zM576 342h71v-53l-97 -151h69v61h97v-61h41v-83h-41v-55h-97v55h-174v81zM126 0v47l409 653h92v-47l-409 -653h-92z" />
    <glyph glyph-name="questiondown" unicode="&#xbf;" horiz-adv-x="525" 
d="M329 304v-104l-100 -68q-48 -33 -60.5 -55.5t-12.5 -48.5q0 -35 25 -58.5t69 -23.5q38 0 65 18.5t36.5 47t9.5 53.5h124q0 -55 -18 -100t-50 -75.5t-75.5 -46t-92.5 -15.5q-54 0 -96.5 16t-70.5 44t-42 63.5t-14 74.5q0 57 28.5 102t113.5 97l31 19v60h130zM199 394v130
h130v-130h-130z" />
    <glyph glyph-name="Agrave" unicode="&#xc0;" horiz-adv-x="660" 
d="M18 0v47l242 653h139l243 -653v-47h-140l-56 164h-239l-58 -164h-131zM249 282h154l-76 228zM270 762l-89 102v49h126l76 -151h-113z" />
    <glyph glyph-name="Aacute" unicode="&#xc1;" horiz-adv-x="660" 
d="M18 0v47l242 653h139l243 -653v-47h-140l-56 164h-239l-58 -164h-131zM249 282h154l-76 228zM282 762l76 151h126v-49l-90 -102h-112z" />
    <glyph glyph-name="Acircumflex" unicode="&#xc2;" horiz-adv-x="660" 
d="M18 0v47l242 653h139l243 -653v-47h-140l-56 164h-239l-58 -164h-131zM249 282h154l-76 228zM173 762v44l101 107h110l102 -107v-44h-106l-51 58l-52 -58h-104z" />
    <glyph glyph-name="Atilde" unicode="&#xc3;" horiz-adv-x="660" 
d="M18 0v47l242 653h139l243 -653v-47h-140l-56 164h-239l-58 -164h-131zM249 282h154l-76 228zM439 894l80 -48q-48 -105 -123 -105q-30 0 -64 21l-25 16q-24 14 -37 14q-9 0 -19 -6.5t-28 -38.5l-80 47q48 106 123 106q30 0 65 -22l24 -15q25 -15 37 -15q9 0 19 7t28 39z
" />
    <glyph glyph-name="Adieresis" unicode="&#xc4;" horiz-adv-x="660" 
d="M18 0v47l242 653h139l243 -653v-47h-140l-56 164h-239l-58 -164h-131zM249 282h154l-76 228zM150 768v118h139v-118h-139zM367 768v118h140v-118h-140z" />
    <glyph glyph-name="Aring" unicode="&#xc5;" horiz-adv-x="660" 
d="M18 0v47l242 653h139l243 -653v-47h-140l-56 164h-239l-58 -164h-131zM249 282h154l-76 228zM327 811q13 0 25 10t12 26q0 15 -12 25t-25 10t-24.5 -10t-11.5 -25q0 -16 11.5 -26t24.5 -10zM327 736q-48 0 -83 33t-35 78t35 77.5t83 32.5t83 -32.5t35 -77.5t-35 -78
t-83 -33z" />
    <glyph glyph-name="AE" unicode="&#xc6;" horiz-adv-x="1006" 
d="M8 0v47l412 653h536v-124h-315v-166h269v-118h-269v-168h317v-124h-459v164h-260l-103 -164h-128zM314 282h185v294z" />
    <glyph glyph-name="Ccedilla" unicode="&#xc7;" horiz-adv-x="661" 
d="M208 -160v45l72 105q-103 14 -157.5 78t-54.5 169v226q0 120 71.5 186t203.5 66q52 0 99.5 -14.5t83.5 -44.5t56.5 -77t20.5 -109v-10h-142v10q0 14 -4 34t-18 37.5t-40.5 30.5t-64.5 13q-61 0 -92.5 -30t-31.5 -82v-246q0 -52 31.5 -82t92.5 -30q24 0 54 8.5t51.5 35
t21.5 71.5v10h142v-10q0 -41 -11 -82.5t-38 -75t-69 -56t-99 -28.5l-61 -148h-117z" />
    <glyph glyph-name="Egrave" unicode="&#xc8;" horiz-adv-x="594" 
d="M88 0v700h456v-124h-314v-166h268v-118h-268v-168h316v-124h-458zM284 762l-89 102v49h126l76 -151h-113z" />
    <glyph glyph-name="Eacute" unicode="&#xc9;" horiz-adv-x="594" 
d="M88 0v700h456v-124h-314v-166h268v-118h-268v-168h316v-124h-458zM230 762l76 151h126v-49l-90 -102h-112z" />
    <glyph glyph-name="Ecircumflex" unicode="&#xca;" horiz-adv-x="594" 
d="M88 0v700h456v-124h-314v-166h268v-118h-268v-168h316v-124h-458zM162 762v44l101 107h110l102 -107v-44h-106l-51 58l-52 -58h-104z" />
    <glyph glyph-name="Edieresis" unicode="&#xcb;" horiz-adv-x="594" 
d="M88 0v700h456v-124h-314v-166h268v-118h-268v-168h316v-124h-458zM140 768v118h139v-118h-139zM357 768v118h139v-118h-139z" />
    <glyph glyph-name="Igrave" unicode="&#xcc;" horiz-adv-x="318" 
d="M88 0v700h142v-700h-142zM102 762l-89 102v49h126l76 -151h-113z" />
    <glyph glyph-name="Iacute" unicode="&#xcd;" horiz-adv-x="318" 
d="M88 0v700h142v-700h-142zM107 762l76 151h126v-49l-90 -102h-112z" />
    <glyph glyph-name="Icircumflex" unicode="&#xce;" horiz-adv-x="318" 
d="M88 0v700h142v-700h-142zM3 762v44l101 107h110l102 -107v-44h-106l-51 58l-52 -58h-104z" />
    <glyph glyph-name="Idieresis" unicode="&#xcf;" horiz-adv-x="318" 
d="M88 0v700h142v-700h-142zM-18 769v118h139v-118h-139zM199 769v118h139v-118h-139z" />
    <glyph glyph-name="Eth" unicode="&#xd0;" horiz-adv-x="714" 
d="M255 124h112q33 0 64.5 11t52 39.5t20.5 62.5v226q0 34 -20.5 62.5t-52 39.5t-64.5 11h-112v-166h119v-118h-119v-168zM113 0v292h-93v118h93v290h254q129 0 204 -63.5t75 -177.5v-218q0 -114 -75 -177.5t-204 -63.5h-254z" />
    <glyph glyph-name="Ntilde" unicode="&#xd1;" horiz-adv-x="716" 
d="M88 0v700h130l268 -436v436h142v-700h-130l-268 436v-436h-142zM468 894l80 -48q-48 -105 -123 -105q-30 0 -64 21l-25 16q-24 14 -37 14q-9 0 -19 -6.5t-28 -38.5l-80 47q48 106 123 106q30 0 65 -22l24 -15q25 -15 37 -15q9 0 19 7t28 39z" />
    <glyph glyph-name="Ograve" unicode="&#xd2;" horiz-adv-x="694" 
d="M347 115q34 0 66 11.5t51.5 40.5t19.5 64v238q0 35 -19.5 64t-51.5 40.5t-66 11.5t-66 -11.5t-51.5 -40.5t-19.5 -64v-238q0 -35 19.5 -64t51.5 -40.5t66 -11.5zM347 -15q-128 0 -203.5 67.5t-75.5 185.5v224q0 118 75.5 185.5t203.5 67.5q63 0 115 -17t88.5 -50
t56 -80.5t19.5 -105.5v-224q0 -58 -19.5 -105.5t-56 -80.5t-88.5 -50t-115 -17zM296 762l-89 102v49h126l76 -151h-113z" />
    <glyph glyph-name="Oacute" unicode="&#xd3;" horiz-adv-x="694" 
d="M347 115q34 0 66 11.5t51.5 40.5t19.5 64v238q0 35 -19.5 64t-51.5 40.5t-66 11.5t-66 -11.5t-51.5 -40.5t-19.5 -64v-238q0 -35 19.5 -64t51.5 -40.5t66 -11.5zM347 -15q-128 0 -203.5 67.5t-75.5 185.5v224q0 118 75.5 185.5t203.5 67.5q63 0 115 -17t88.5 -50
t56 -80.5t19.5 -105.5v-224q0 -58 -19.5 -105.5t-56 -80.5t-88.5 -50t-115 -17zM291 762l76 151h126v-49l-90 -102h-112z" />
    <glyph glyph-name="Ocircumflex" unicode="&#xd4;" horiz-adv-x="694" 
d="M347 115q34 0 66 11.5t51.5 40.5t19.5 64v238q0 35 -19.5 64t-51.5 40.5t-66 11.5t-66 -11.5t-51.5 -40.5t-19.5 -64v-238q0 -35 19.5 -64t51.5 -40.5t66 -11.5zM347 -15q-128 0 -203.5 67.5t-75.5 185.5v224q0 118 75.5 185.5t203.5 67.5q63 0 115 -17t88.5 -50
t56 -80.5t19.5 -105.5v-224q0 -58 -19.5 -105.5t-56 -80.5t-88.5 -50t-115 -17zM190 762v44l101 107h110l102 -107v-44h-106l-51 58l-52 -58h-104z" />
    <glyph glyph-name="Otilde" unicode="&#xd5;" horiz-adv-x="694" 
d="M347 115q34 0 66 11.5t51.5 40.5t19.5 64v238q0 35 -19.5 64t-51.5 40.5t-66 11.5t-66 -11.5t-51.5 -40.5t-19.5 -64v-238q0 -35 19.5 -64t51.5 -40.5t66 -11.5zM347 -15q-128 0 -203.5 67.5t-75.5 185.5v224q0 118 75.5 185.5t203.5 67.5q63 0 115 -17t88.5 -50
t56 -80.5t19.5 -105.5v-224q0 -58 -19.5 -105.5t-56 -80.5t-88.5 -50t-115 -17zM463 894l80 -48q-48 -105 -123 -105q-30 0 -64 21l-25 16q-24 14 -37 14q-9 0 -19 -6.5t-28 -38.5l-80 47q48 106 123 106q30 0 65 -22l24 -15q25 -15 37 -15q9 0 19 7t28 39z" />
    <glyph glyph-name="Odieresis" unicode="&#xd6;" horiz-adv-x="694" 
d="M347 115q34 0 66 11.5t51.5 40.5t19.5 64v238q0 35 -19.5 64t-51.5 40.5t-66 11.5t-66 -11.5t-51.5 -40.5t-19.5 -64v-238q0 -35 19.5 -64t51.5 -40.5t66 -11.5zM347 -15q-128 0 -203.5 67.5t-75.5 185.5v224q0 118 75.5 185.5t203.5 67.5q63 0 115 -17t88.5 -50
t56 -80.5t19.5 -105.5v-224q0 -58 -19.5 -105.5t-56 -80.5t-88.5 -50t-115 -17zM170 768v118h139v-118h-139zM387 768v118h140v-118h-140z" />
    <glyph glyph-name="multiply" unicode="&#xd7;" horiz-adv-x="586" 
d="M146 78l-84 83l147 148l-147 148l84 84l147 -148l148 148l83 -84l-148 -148l148 -148l-83 -83l-148 148z" />
    <glyph glyph-name="Oslash" unicode="&#xd8;" horiz-adv-x="694" 
d="M347 -15q-30 0 -63 5l-26 -90h-104v47l26 78q-53 31 -82.5 86.5t-29.5 126.5v224q0 118 75.5 185.5t203.5 67.5q27 0 59 -5l27 90h104v-47l-26 -77q54 -31 84.5 -86.5t30.5 -127.5v-224q0 -58 -19.5 -105.5t-56 -80.5t-88.5 -50t-115 -17zM347 115q34 0 66 11.5
t51.5 40.5t19.5 64v238q0 21 -8.5 42.5t-22.5 35.5l-132 -431zM210 231q0 -21 7.5 -41.5t21.5 -35.5l130 430l-22 1q-34 0 -66 -11.5t-51.5 -40.5t-19.5 -64v-238z" />
    <glyph glyph-name="Ugrave" unicode="&#xd9;" horiz-adv-x="696" 
d="M476 700h143v-470q0 -115 -73 -180t-197 -65q-61 0 -111.5 16.5t-86 48t-54.5 77.5t-19 103v470h142v-476q0 -32 18.5 -59.5t48.5 -38.5t62 -11t61.5 11t47.5 38.5t18 59.5v476zM314 762l-89 102v49h126l76 -151h-113z" />
    <glyph glyph-name="Uacute" unicode="&#xda;" horiz-adv-x="696" 
d="M476 700h143v-470q0 -115 -73 -180t-197 -65q-61 0 -111.5 16.5t-86 48t-54.5 77.5t-19 103v470h142v-476q0 -32 18.5 -59.5t48.5 -38.5t62 -11t61.5 11t47.5 38.5t18 59.5v476zM276 762l76 151h126v-49l-90 -102h-112z" />
    <glyph glyph-name="Ucircumflex" unicode="&#xdb;" horiz-adv-x="696" 
d="M476 700h143v-470q0 -115 -73 -180t-197 -65q-61 0 -111.5 16.5t-86 48t-54.5 77.5t-19 103v470h142v-476q0 -32 18.5 -59.5t48.5 -38.5t62 -11t61.5 11t47.5 38.5t18 59.5v476zM192 762v44l101 107h110l102 -107v-44h-106l-51 58l-52 -58h-104z" />
    <glyph glyph-name="Udieresis" unicode="&#xdc;" horiz-adv-x="696" 
d="M476 700h143v-470q0 -115 -73 -180t-197 -65q-61 0 -111.5 16.5t-86 48t-54.5 77.5t-19 103v470h142v-476q0 -32 18.5 -59.5t48.5 -38.5t62 -11t61.5 11t47.5 38.5t18 59.5v476zM171 768v118h139v-118h-139zM388 768v118h140v-118h-140z" />
    <glyph glyph-name="Yacute" unicode="&#xdd;" horiz-adv-x="618" 
d="M238 0v277l-230 376v47h140l162 -290l169 290h131v-47l-230 -370v-283h-142zM242 762l76 151h126v-49l-90 -102h-112z" />
    <glyph glyph-name="Thorn" unicode="&#xde;" horiz-adv-x="640" 
d="M88 0v700h142v-129h168q93 0 146 -59t53 -159t-53 -159t-146 -59h-168v-135h-142zM230 259h142q24 0 44 13.5t28.5 36t8.5 44.5t-8.5 45t-28.5 36t-44 13h-142v-188z" />
    <glyph glyph-name="germandbls" unicode="&#xdf;" horiz-adv-x="604" 
d="M78 0v464q0 115 59.5 179t164.5 64q50 0 91.5 -14t69.5 -39t43 -58t15 -70q0 -51 -15 -85t-51 -55q43 -18 72 -66t29 -106q0 -97 -63.5 -155.5t-167.5 -58.5q-35 0 -60 5v115l51 -2q54 0 82 31t28 72q0 51 -29 78t-81 27h-43v113h32q80 0 80 76q0 23 -11 41t-31 25.5
t-40 7.5q-46 0 -70.5 -29.5t-24.5 -82.5v-477h-130z" />
    <glyph glyph-name="agrave" unicode="&#xe0;" horiz-adv-x="566" 
d="M219 -12q-54 0 -94 21t-61 55t-21 80q0 82 53.5 126t158.5 44h108v33q0 34 -21 52.5t-63 18.5t-63 -16.5t-21 -43.5h-127q0 59 27 98.5t73 59.5t111 20q104 0 159 -49.5t55 -130.5v-356h-75l-38 51q-32 -30 -70 -46.5t-91 -16.5zM246 106q71 0 117 51v58h-108
q-23 0 -43 -6t-29.5 -19.5t-9.5 -28.5q0 -26 19 -40.5t54 -14.5zM249 590l-83 95v45h117l71 -140h-105z" />
    <glyph glyph-name="aacute" unicode="&#xe1;" horiz-adv-x="566" 
d="M219 -12q-54 0 -94 21t-61 55t-21 80q0 82 53.5 126t158.5 44h108v33q0 34 -21 52.5t-63 18.5t-63 -16.5t-21 -43.5h-127q0 59 27 98.5t73 59.5t111 20q104 0 159 -49.5t55 -130.5v-356h-75l-38 51q-32 -30 -70 -46.5t-91 -16.5zM246 106q71 0 117 51v58h-108
q-23 0 -43 -6t-29.5 -19.5t-9.5 -28.5q0 -26 19 -40.5t54 -14.5zM213 590l71 140h117v-45l-84 -95h-104z" />
    <glyph glyph-name="acircumflex" unicode="&#xe2;" horiz-adv-x="566" 
d="M219 -12q-54 0 -94 21t-61 55t-21 80q0 82 53.5 126t158.5 44h108v33q0 34 -21 52.5t-63 18.5t-63 -16.5t-21 -43.5h-127q0 59 27 98.5t73 59.5t111 20q104 0 159 -49.5t55 -130.5v-356h-75l-38 51q-32 -30 -70 -46.5t-91 -16.5zM246 106q71 0 117 51v58h-108
q-23 0 -43 -6t-29.5 -19.5t-9.5 -28.5q0 -26 19 -40.5t54 -14.5zM142 590v41l94 99h103l95 -99v-41h-99l-48 54l-48 -54h-97z" />
    <glyph glyph-name="atilde" unicode="&#xe3;" horiz-adv-x="566" 
d="M219 -12q-54 0 -94 21t-61 55t-21 80q0 82 53.5 126t158.5 44h108v33q0 34 -21 52.5t-63 18.5t-63 -16.5t-21 -43.5h-127q0 59 27 98.5t73 59.5t111 20q104 0 159 -49.5t55 -130.5v-356h-75l-38 51q-32 -30 -70 -46.5t-91 -16.5zM246 106q71 0 117 51v58h-108
q-23 0 -43 -6t-29.5 -19.5t-9.5 -28.5q0 -26 19 -40.5t54 -14.5zM400 729l78 -46q-48 -103 -120 -103q-29 0 -63 21l-24 15q-13 8 -20 11t-16 3t-18.5 -6.5t-27.5 -37.5l-78 46q48 103 120 103q29 0 63 -21l24 -15q13 -8 20 -11t16 -3t18.5 6.5t27.5 37.5z" />
    <glyph glyph-name="adieresis" unicode="&#xe4;" horiz-adv-x="566" 
d="M219 -12q-54 0 -94 21t-61 55t-21 80q0 82 53.5 126t158.5 44h108v33q0 34 -21 52.5t-63 18.5t-63 -16.5t-21 -43.5h-127q0 59 27 98.5t73 59.5t111 20q104 0 159 -49.5t55 -130.5v-356h-75l-38 51q-32 -30 -70 -46.5t-91 -16.5zM246 106q71 0 117 51v58h-108
q-23 0 -43 -6t-29.5 -19.5t-9.5 -28.5q0 -26 19 -40.5t54 -14.5zM121 595v110h130v-110h-130zM324 595v110h130v-110h-130z" />
    <glyph glyph-name="aring" unicode="&#xe5;" horiz-adv-x="566" 
d="M219 -12q-54 0 -94 21t-61 55t-21 80q0 82 53.5 126t158.5 44h108v33q0 34 -21 52.5t-63 18.5t-63 -16.5t-21 -43.5h-127q0 59 27 98.5t73 59.5t111 20q104 0 159 -49.5t55 -130.5v-356h-75l-38 51q-32 -30 -70 -46.5t-91 -16.5zM246 106q71 0 117 51v58h-108
q-23 0 -43 -6t-29.5 -19.5t-9.5 -28.5q0 -26 19 -40.5t54 -14.5zM289 635q12 0 23 9.5t11 23.5t-11 23.5t-23 9.5t-23 -9.5t-11 -23.5t11 -23.5t23 -9.5zM289 565q-32 0 -60 17.5t-39 41.5t-11 44t11 44t39 41.5t60 17.5t60 -17.5t39 -41.5t11 -44t-11 -44t-39 -41.5
t-60 -17.5z" />
    <glyph glyph-name="ae" unicode="&#xe6;" horiz-adv-x="864" 
d="M222 -12q-56 0 -96.5 20.5t-61.5 55t-21 80.5q0 83 54 126.5t162 43.5h104v33q0 34 -21 52.5t-63 18.5t-63 -16.5t-21 -43.5h-127q0 59 27 98.5t73 59.5t111 20q97 0 155 -45q62 45 157 45q99 0 158.5 -51t59.5 -141v-125h-316v-36q0 -35 25 -56t73 -21q36 0 58 14t29 39
h131q-8 -80 -65 -125.5t-153 -45.5q-132 0 -195 81q-29 -36 -73.5 -58.5t-100.5 -22.5zM246 106q35 0 63.5 12t53.5 39v58h-105q-85 0 -85 -56q0 -24 19.5 -38.5t53.5 -14.5zM493 318h186v26q0 34 -24.5 54t-68.5 20t-68.5 -20.5t-24.5 -53.5v-26z" />
    <glyph glyph-name="ccedilla" unicode="&#xe7;" horiz-adv-x="543" 
d="M132 -160v45l76 110q-71 16 -112 65.5t-41 121.5v160q0 89 60.5 141.5t161.5 52.5q98 0 156.5 -52t58.5 -144v-6h-130v6q0 35 -22.5 56.5t-62.5 21.5q-46 0 -69 -20t-23 -54v-164q0 -34 23 -54t69 -20q40 0 62.5 21t22.5 56v10h130v-7q0 -82 -49.5 -134t-130.5 -62
l-63 -150h-117z" />
    <glyph glyph-name="egrave" unicode="&#xe8;" horiz-adv-x="556" 
d="M283 -12q-51 0 -93 13t-72.5 37.5t-46.5 60.5t-16 81v162q0 89 62.5 141.5t165.5 52.5q98 0 158 -51t60 -141v-125h-316v-37q0 -34 25 -55t73 -21q36 0 58 14t29 39h130q-8 -80 -65 -125.5t-152 -45.5zM185 318h186v26q0 34 -24.5 54t-68.5 20q-45 0 -69 -20.5t-24 -53.5
v-26zM260 590l-83 95v45h117l71 -140h-105z" />
    <glyph glyph-name="eacute" unicode="&#xe9;" horiz-adv-x="556" 
d="M283 -12q-51 0 -93 13t-72.5 37.5t-46.5 60.5t-16 81v162q0 89 62.5 141.5t165.5 52.5q98 0 158 -51t60 -141v-125h-316v-37q0 -34 25 -55t73 -21q36 0 58 14t29 39h130q-8 -80 -65 -125.5t-152 -45.5zM185 318h186v26q0 34 -24.5 54t-68.5 20q-45 0 -69 -20.5t-24 -53.5
v-26zM212 590l71 140h117v-45l-84 -95h-104z" />
    <glyph glyph-name="ecircumflex" unicode="&#xea;" horiz-adv-x="556" 
d="M283 -12q-51 0 -93 13t-72.5 37.5t-46.5 60.5t-16 81v162q0 89 62.5 141.5t165.5 52.5q98 0 158 -51t60 -141v-125h-316v-37q0 -34 25 -55t73 -21q36 0 58 14t29 39h130q-8 -80 -65 -125.5t-152 -45.5zM185 318h186v26q0 34 -24.5 54t-68.5 20q-45 0 -69 -20.5t-24 -53.5
v-26zM134 590v41l94 99h103l95 -99v-41h-99l-48 54l-48 -54h-97z" />
    <glyph glyph-name="edieresis" unicode="&#xeb;" horiz-adv-x="556" 
d="M283 -12q-51 0 -93 13t-72.5 37.5t-46.5 60.5t-16 81v162q0 89 62.5 141.5t165.5 52.5q98 0 158 -51t60 -141v-125h-316v-37q0 -34 25 -55t73 -21q36 0 58 14t29 39h130q-8 -80 -65 -125.5t-152 -45.5zM185 318h186v26q0 34 -24.5 54t-68.5 20q-45 0 -69 -20.5t-24 -53.5
v-26zM114 595v110h130v-110h-130zM317 595v110h130v-110h-130z" />
    <glyph glyph-name="igrave" unicode="&#xec;" horiz-adv-x="286" 
d="M92 588l-83 95v45h117l71 -140h-105zM78 0v524h130v-524h-130z" />
    <glyph glyph-name="iacute" unicode="&#xed;" horiz-adv-x="286" 
d="M91 590l71 140h117v-45l-84 -95h-104zM78 0v524h130v-524h-130z" />
    <glyph glyph-name="icircumflex" unicode="&#xee;" horiz-adv-x="286" 
d="M78 0v524h130v-524h-130zM-3 590v41l94 99h103l95 -99v-41h-99l-48 54l-48 -54h-97z" />
    <glyph glyph-name="idieresis" unicode="&#xef;" horiz-adv-x="286" 
d="M-23 595v110h130v-110h-130zM180 595v110h130v-110h-130zM78 0v524h130v-524h-130z" />
    <glyph glyph-name="eth" unicode="&#xf0;" horiz-adv-x="560" 
d="M281 -12q-37 0 -76.5 9t-77 34.5t-56 66t-18.5 84.5v109q0 61 25 106.5t70.5 65.5t95.5 20q29 0 53.5 -6t52.5 -25q-5 9 -22 28t-47 44h-143v75h78l-35 45v61h117l81 -106h112v-75h-55q43 -60 58 -111t15 -137v-96q0 -90 -62.5 -141t-165.5 -51zM281 106q35 0 58.5 14
t31.5 33t8 35v125q-45 52 -101 52q-29 0 -52.5 -12.5t-33 -32.5t-9.5 -39v-93q0 -35 26 -58.5t72 -23.5z" />
    <glyph glyph-name="ntilde" unicode="&#xf1;" horiz-adv-x="601" 
d="M78 0v524h75l38 -52q66 64 155 64q85 0 133.5 -54t48.5 -149v-333h-130v325q0 45 -23 69t-58 24q-25 0 -55 -14t-54 -41v-363h-130zM425 729l78 -46q-48 -103 -120 -103q-29 0 -63 21l-24 15q-13 8 -20 11t-16 3t-18.5 -6.5t-27.5 -37.5l-78 46q48 103 120 103
q29 0 63 -21l24 -15q13 -8 20 -11t16 -3t18.5 6.5t27.5 37.5z" />
    <glyph glyph-name="ograve" unicode="&#xf2;" horiz-adv-x="565" 
d="M283 106q46 0 71.5 23.5t25.5 58.5v148q0 35 -25.5 58.5t-71.5 23.5q-23 0 -46.5 -8t-37.5 -28.5t-14 -45.5v-148q0 -25 14 -45.5t37.5 -28.5t46.5 -8zM283 -12q-69 0 -118.5 22.5t-79.5 66t-30 105.5v160q0 62 30 105.5t79.5 66t118.5 22.5q41 0 81.5 -10t76.5 -36.5
t52.5 -66.5t16.5 -81v-160q0 -41 -14.5 -76.5t-43 -62t-72 -41t-97.5 -14.5zM244 590l-83 95v45h117l71 -140h-105z" />
    <glyph glyph-name="oacute" unicode="&#xf3;" horiz-adv-x="565" 
d="M283 106q46 0 71.5 23.5t25.5 58.5v148q0 35 -25.5 58.5t-71.5 23.5q-23 0 -46.5 -8t-37.5 -28.5t-14 -45.5v-148q0 -25 14 -45.5t37.5 -28.5t46.5 -8zM283 -12q-69 0 -118.5 22.5t-79.5 66t-30 105.5v160q0 62 30 105.5t79.5 66t118.5 22.5q41 0 81.5 -10t76.5 -36.5
t52.5 -66.5t16.5 -81v-160q0 -41 -14.5 -76.5t-43 -62t-72 -41t-97.5 -14.5zM216 590l71 140h117v-45l-84 -95h-104z" />
    <glyph glyph-name="ocircumflex" unicode="&#xf4;" horiz-adv-x="565" 
d="M283 106q46 0 71.5 23.5t25.5 58.5v148q0 35 -25.5 58.5t-71.5 23.5q-23 0 -46.5 -8t-37.5 -28.5t-14 -45.5v-148q0 -25 14 -45.5t37.5 -28.5t46.5 -8zM283 -12q-69 0 -118.5 22.5t-79.5 66t-30 105.5v160q0 62 30 105.5t79.5 66t118.5 22.5q41 0 81.5 -10t76.5 -36.5
t52.5 -66.5t16.5 -81v-160q0 -41 -14.5 -76.5t-43 -62t-72 -41t-97.5 -14.5zM137 590v41l94 99h103l95 -99v-41h-99l-48 54l-48 -54h-97z" />
    <glyph glyph-name="otilde" unicode="&#xf5;" horiz-adv-x="565" 
d="M283 106q46 0 71.5 23.5t25.5 58.5v148q0 35 -25.5 58.5t-71.5 23.5q-23 0 -46.5 -8t-37.5 -28.5t-14 -45.5v-148q0 -25 14 -45.5t37.5 -28.5t46.5 -8zM283 -12q-69 0 -118.5 22.5t-79.5 66t-30 105.5v160q0 62 30 105.5t79.5 66t118.5 22.5q41 0 81.5 -10t76.5 -36.5
t52.5 -66.5t16.5 -81v-160q0 -41 -14.5 -76.5t-43 -62t-72 -41t-97.5 -14.5zM388 729l78 -46q-48 -103 -120 -103q-29 0 -63 21l-24 15q-13 8 -20 11t-16 3t-18.5 -6.5t-27.5 -37.5l-78 46q48 103 120 103q29 0 63 -21l24 -15q13 -8 20 -11t16 -3t18.5 6.5t27.5 37.5z" />
    <glyph glyph-name="odieresis" unicode="&#xf6;" horiz-adv-x="565" 
d="M283 106q46 0 71.5 23.5t25.5 58.5v148q0 35 -25.5 58.5t-71.5 23.5q-23 0 -46.5 -8t-37.5 -28.5t-14 -45.5v-148q0 -25 14 -45.5t37.5 -28.5t46.5 -8zM283 -12q-69 0 -118.5 22.5t-79.5 66t-30 105.5v160q0 62 30 105.5t79.5 66t118.5 22.5q41 0 81.5 -10t76.5 -36.5
t52.5 -66.5t16.5 -81v-160q0 -41 -14.5 -76.5t-43 -62t-72 -41t-97.5 -14.5zM116 595v110h130v-110h-130zM319 595v110h130v-110h-130z" />
    <glyph glyph-name="divide" unicode="&#xf7;" horiz-adv-x="572" 
d="M210 65v127h151v-127h-151zM62 259v108h448v-108h-448zM210 434v127h151v-127h-151z" />
    <glyph glyph-name="oslash" unicode="&#xf8;" horiz-adv-x="572" 
d="M283 -12q-49 0 -95 13l-70 -127h-63v61l59 107q-29 26 -44 62t-15 78v160q0 62 30 105.5t79.5 66t118.5 22.5q51 0 95 -14l68 124h64v-61l-58 -105q28 -26 43 -61.5t15 -76.5v-160q0 -41 -14.5 -76.5t-43 -62t-72 -41t-97.5 -14.5zM185 188q0 -12 3 -23l135 247
q-16 6 -40 6q-23 0 -46.5 -8t-37.5 -28.5t-14 -45.5v-148zM283 106q46 0 71.5 23.5t25.5 58.5v148q0 11 -3 20l-135 -245q20 -5 41 -5z" />
    <glyph glyph-name="ugrave" unicode="&#xf9;" horiz-adv-x="597" 
d="M519 524v-524h-75l-38 51q-67 -63 -153 -63q-84 0 -132 53.5t-48 147.5v335h130v-327q0 -44 22.5 -67.5t56.5 -23.5q25 0 54.5 14t52.5 40v364h130zM267 590l-83 95v45h117l71 -140h-105z" />
    <glyph glyph-name="uacute" unicode="&#xfa;" horiz-adv-x="597" 
d="M519 524v-524h-75l-38 51q-67 -63 -153 -63q-84 0 -132 53.5t-48 147.5v335h130v-327q0 -44 22.5 -67.5t56.5 -23.5q25 0 54.5 14t52.5 40v364h130zM222 590l71 140h117v-45l-84 -95h-104z" />
    <glyph glyph-name="ucircumflex" unicode="&#xfb;" horiz-adv-x="597" 
d="M519 524v-524h-75l-38 51q-67 -63 -153 -63q-84 0 -132 53.5t-48 147.5v335h130v-327q0 -44 22.5 -67.5t56.5 -23.5q25 0 54.5 14t52.5 40v364h130zM152 590v41l94 99h103l95 -99v-41h-99l-48 54l-48 -54h-97z" />
    <glyph glyph-name="udieresis" unicode="&#xfc;" horiz-adv-x="597" 
d="M519 524v-524h-75l-38 51q-67 -63 -153 -63q-84 0 -132 53.5t-48 147.5v335h130v-327q0 -44 22.5 -67.5t56.5 -23.5q25 0 54.5 14t52.5 40v364h130zM133 595v110h130v-110h-130zM336 595v110h130v-110h-130z" />
    <glyph glyph-name="yacute" unicode="&#xfd;" horiz-adv-x="515" 
d="M149 -160v47l49 113l-180 463v61h120l124 -347l117 347h118v-61l-242 -623h-106zM193 590l71 140h117v-45l-84 -95h-104z" />
    <glyph glyph-name="thorn" unicode="&#xfe;" horiz-adv-x="596" 
d="M78 705h130v-218q57 49 139 49q59 0 100.5 -24.5t63.5 -66.5t22 -101v-164q0 -59 -22 -101t-63.5 -66.5t-100.5 -24.5q-82 0 -139 49v-197h-130v865zM208 363v-202q55 -55 112 -55q23 0 44 12.5t30 32.5t9 39v144q0 19 -9 39t-30 32.5t-44 12.5q-57 0 -112 -55z" />
    <glyph glyph-name="ydieresis" unicode="&#xff;" horiz-adv-x="515" 
d="M149 -160v47l49 113l-180 463v61h120l124 -347l117 347h118v-61l-242 -623h-106zM92 595v110h130v-110h-130zM295 595v110h130v-110h-130z" />
    <glyph glyph-name="Amacron" unicode="&#x100;" horiz-adv-x="660" 
d="M18 0v47l242 653h139l243 -653v-47h-140l-56 164h-239l-58 -164h-131zM249 282h154l-76 228zM159 778v103h345v-103h-345z" />
    <glyph glyph-name="amacron" unicode="&#x101;" horiz-adv-x="566" 
d="M219 -12q-54 0 -94 21t-61 55t-21 80q0 82 53.5 126t158.5 44h108v33q0 34 -21 52.5t-63 18.5t-63 -16.5t-21 -43.5h-127q0 59 27 98.5t73 59.5t111 20q104 0 159 -49.5t55 -130.5v-356h-75l-38 51q-32 -30 -70 -46.5t-91 -16.5zM246 106q71 0 117 51v58h-108
q-23 0 -43 -6t-29.5 -19.5t-9.5 -28.5q0 -26 19 -40.5t54 -14.5zM128 604v96h322v-96h-322z" />
    <glyph glyph-name="Aogonek" unicode="&#x104;" horiz-adv-x="660" 
d="M624 -160q-48 0 -76.5 20t-28.5 53q0 40 50 87h-67l-56 164h-239l-58 -164h-131v47l242 653h139l243 -653v-47q-37 -30 -37 -56t45 -26h31v-78h-57zM249 282h154l-76 228z" />
    <glyph glyph-name="aogonek" unicode="&#x105;" horiz-adv-x="596" 
d="M443 0l-38 52q-31 -30 -68 -47t-88 -17q-59 0 -100.5 24.5t-63.5 66.5t-22 101v164q0 59 22 101t63.5 66.5t100.5 24.5q39 0 77.5 -13t78.5 -51l38 52h75v-524q-37 -30 -37 -56t45 -26h31v-78h-57q-48 0 -76.5 20t-28.5 53q0 42 48 87zM388 161v202q-55 55 -112 55
q-23 0 -44 -12.5t-30 -32.5t-9 -39v-144q0 -19 9 -39t30 -32.5t44 -12.5q57 0 112 55z" />
    <glyph glyph-name="Cacute" unicode="&#x106;" horiz-adv-x="661" 
d="M343 -15q-132 0 -203.5 66t-71.5 186v226q0 120 71.5 186t203.5 66q52 0 99.5 -14.5t83.5 -44.5t56.5 -77t20.5 -109v-10h-142v10q0 14 -4 34t-18 37.5t-40.5 30.5t-64.5 13q-61 0 -92.5 -30t-31.5 -82v-246q0 -52 31.5 -82t92.5 -30q24 0 54 8.5t51.5 35t21.5 71.5v10
h142v-10q0 -62 -20.5 -109t-56.5 -77t-83.5 -44.5t-99.5 -14.5zM259 762l76 151h126v-49l-90 -102h-112z" />
    <glyph glyph-name="cacute" unicode="&#x107;" horiz-adv-x="543" 
d="M277 -12q-101 0 -161.5 52.5t-60.5 141.5v160q0 89 60.5 141.5t161.5 52.5q98 0 156.5 -52t58.5 -144v-6h-130v6q0 35 -22.5 56.5t-62.5 21.5q-46 0 -69 -20t-23 -54v-164q0 -34 23 -54t69 -20q40 0 62.5 21t22.5 56v10h130v-7q0 -33 -10.5 -67.5t-36 -63.5t-68 -48
t-100.5 -19zM220 590l71 140h117v-45l-84 -95h-104z" />
    <glyph glyph-name="Ccaron" unicode="&#x10c;" horiz-adv-x="661" 
d="M343 -15q-132 0 -203.5 66t-71.5 186v226q0 120 71.5 186t203.5 66q52 0 99.5 -14.5t83.5 -44.5t56.5 -77t20.5 -109v-10h-142v10q0 14 -4 34t-18 37.5t-40.5 30.5t-64.5 13q-61 0 -92.5 -30t-31.5 -82v-246q0 -52 31.5 -82t92.5 -30q24 0 54 8.5t51.5 35t21.5 71.5v10
h142v-10q0 -62 -20.5 -109t-56.5 -77t-83.5 -44.5t-99.5 -14.5zM282 763l-101 106v44h106l52 -71l51 71h104v-44l-102 -106h-110z" />
    <glyph glyph-name="ccaron" unicode="&#x10d;" horiz-adv-x="543" 
d="M277 -12q-101 0 -161.5 52.5t-60.5 141.5v160q0 89 60.5 141.5t161.5 52.5q98 0 156.5 -52t58.5 -144v-6h-130v6q0 35 -22.5 56.5t-62.5 21.5q-46 0 -69 -20t-23 -54v-164q0 -34 23 -54t69 -20q40 0 62.5 21t22.5 56v10h130v-7q0 -33 -10.5 -67.5t-36 -63.5t-68 -48
t-100.5 -19zM223 590l-94 99v41h99l48 -66l48 66h97v-41l-95 -99h-103z" />
    <glyph glyph-name="Dcaron" unicode="&#x10e;" horiz-adv-x="689" 
d="M230 124h112q33 0 64.5 11t52 39.5t20.5 62.5v226q0 34 -20.5 62.5t-52 39.5t-64.5 11h-112v-452zM88 0v700h254q129 0 204 -63.5t75 -177.5v-218q0 -114 -75 -177.5t-204 -63.5h-254zM261 763l-101 106v44h106l52 -71l51 71h104v-44l-102 -106h-110z" />
    <glyph glyph-name="dcaron" unicode="&#x10f;" horiz-adv-x="723" 
d="M518 705v-705h-75l-38 52q-31 -30 -68 -47t-88 -17q-59 0 -100.5 24.5t-63.5 66.5t-22 101v164q0 59 22 101t63.5 66.5t100.5 24.5q82 0 139 -49v218h130zM388 161v202q-55 55 -112 55q-23 0 -44 -12.5t-30 -32.5t-9 -39v-144q0 -19 9 -39t30 -32.5t44 -12.5q57 0 112 55
zM587 511l36 194h128v-55l-72 -139h-92z" />
    <glyph glyph-name="Emacron" unicode="&#x112;" horiz-adv-x="594" 
d="M88 0v700h456v-124h-314v-166h268v-118h-268v-168h316v-124h-458zM144 778v103h345v-103h-345z" />
    <glyph glyph-name="emacron" unicode="&#x113;" horiz-adv-x="556" 
d="M283 -12q-51 0 -93 13t-72.5 37.5t-46.5 60.5t-16 81v162q0 89 62.5 141.5t165.5 52.5q98 0 158 -51t60 -141v-125h-316v-37q0 -34 25 -55t73 -21q36 0 58 14t29 39h130q-8 -80 -65 -125.5t-152 -45.5zM185 318h186v26q0 34 -24.5 54t-68.5 20q-45 0 -69 -20.5t-24 -53.5
v-26zM122 604v96h322v-96h-322z" />
    <glyph glyph-name="Edotaccent" unicode="&#x116;" horiz-adv-x="594" 
d="M88 0v700h456v-124h-314v-166h268v-118h-268v-168h316v-124h-458zM243 768v118h140v-118h-140z" />
    <glyph glyph-name="edotaccent" unicode="&#x117;" horiz-adv-x="556" 
d="M283 -12q-51 0 -93 13t-72.5 37.5t-46.5 60.5t-16 81v162q0 89 62.5 141.5t165.5 52.5q98 0 158 -51t60 -141v-125h-316v-37q0 -34 25 -55t73 -21q36 0 58 14t29 39h130q-8 -80 -65 -125.5t-152 -45.5zM185 318h186v26q0 34 -24.5 54t-68.5 20q-45 0 -69 -20.5t-24 -53.5
v-26zM220 595v110h130v-110h-130z" />
    <glyph glyph-name="Eogonek" unicode="&#x118;" horiz-adv-x="606" 
d="M88 0v700h456v-124h-314v-166h268v-118h-268v-168h316v-124q-37 -30 -37 -56t45 -26h31v-78h-57q-48 0 -76.5 20t-28.5 53q0 40 50 87h-385z" />
    <glyph glyph-name="eogonek" unicode="&#x119;" horiz-adv-x="556" 
d="M386 -160q-48 0 -76.5 20t-28.5 53q0 36 40 77l-38 -2q-51 0 -93 13t-72.5 37.5t-46.5 60.5t-16 81v162q0 89 62.5 141.5t165.5 52.5q98 0 158 -51t60 -141v-125h-316v-37q0 -34 25 -55t73 -21q36 0 58 14t29 39h130q-9 -93 -95 -155q-38 -28 -38 -56q0 -30 45 -30h31
v-78h-57zM185 318h186v26q0 34 -24.5 54t-68.5 20q-45 0 -69 -20.5t-24 -53.5v-26z" />
    <glyph glyph-name="Ecaron" unicode="&#x11a;" horiz-adv-x="594" 
d="M88 0v700h456v-124h-314v-166h268v-118h-268v-168h316v-124h-458zM264 763l-101 106v44h106l52 -71l51 71h104v-44l-102 -106h-110z" />
    <glyph glyph-name="ecaron" unicode="&#x11b;" horiz-adv-x="556" 
d="M283 -12q-51 0 -93 13t-72.5 37.5t-46.5 60.5t-16 81v162q0 89 62.5 141.5t165.5 52.5q98 0 158 -51t60 -141v-125h-316v-37q0 -34 25 -55t73 -21q36 0 58 14t29 39h130q-8 -80 -65 -125.5t-152 -45.5zM185 318h186v26q0 34 -24.5 54t-68.5 20q-45 0 -69 -20.5t-24 -53.5
v-26zM231 590l-94 99v41h99l48 -66l48 66h97v-41l-95 -99h-103z" />
    <glyph glyph-name="Gcommaaccent" unicode="&#x122;" horiz-adv-x="697" 
d="M324 -15q-120 0 -188 66.5t-68 182.5v229q0 119 74 185.5t205 66.5q56 0 105 -15.5t85 -46.5t56 -77t20 -104h-142q0 52 -37 82.5t-95 30.5q-65 0 -97 -32t-32 -84v-234q0 -56 33.5 -88t93.5 -32q40 0 77 19t57 50v76h-124v118h266v-378h-76l-39 58q-32 -35 -77 -54
t-97 -19zM237 -261l36 194h128v-55l-72 -139h-92z" />
    <glyph glyph-name="gcommaaccent" unicode="&#x123;" horiz-adv-x="596" 
d="M518 524v-492q0 -99 -61 -151.5t-163 -52.5q-100 0 -159 46t-59 125v4h130v-3q0 -20 21.5 -37t65.5 -17q48 0 71.5 23.5t23.5 62.5v60q-57 -49 -139 -49q-59 0 -100.5 24.5t-63.5 66.5t-22 101v109q0 59 22 101t63.5 66.5t100.5 24.5q39 0 77.5 -13t78.5 -51l38 52h75z
M388 216v147q-55 55 -112 55q-23 0 -44 -12.5t-30 -32.5t-9 -39v-89q0 -19 9 -39t30 -32.5t44 -12.5q57 0 112 55zM398 780l-33 -194h-118v55l66 139h85z" />
    <glyph glyph-name="Imacron" unicode="&#x12a;" horiz-adv-x="318" 
d="M88 0v700h142v-700h-142zM-14 778v103h345v-103h-345z" />
    <glyph glyph-name="imacron" unicode="&#x12b;" horiz-adv-x="286" 
d="M-18 604v96h322v-96h-322zM78 0v524h130v-524h-130z" />
    <glyph glyph-name="Iogonek" unicode="&#x12e;" horiz-adv-x="318" 
d="M88 0v700h142v-700q-37 -30 -37 -56t45 -26h31v-78h-57q-48 0 -76.5 20t-28.5 53q0 40 50 87h-69z" />
    <glyph glyph-name="iogonek" unicode="&#x12f;" horiz-adv-x="286" 
d="M78 0v524h130v-524q-37 -30 -37 -56t45 -26h31v-78h-57q-48 0 -76.5 20t-28.5 53q0 40 50 87h-57zM78 595v110h130v-110h-130z" />
    <glyph glyph-name="dotlessi" unicode="&#x131;" horiz-adv-x="286" 
d="M78 0v524h130v-524h-130z" />
    <glyph glyph-name="Kcommaaccent" unicode="&#x136;" horiz-adv-x="637" 
d="M88 0v700h142v-288h74l169 288h132v-47l-177 -295l192 -311v-47h-141l-175 288h-74v-288h-142zM249 -261l36 194h128v-55l-72 -139h-92z" />
    <glyph glyph-name="kcommaaccent" unicode="&#x137;" horiz-adv-x="552" 
d="M78 0v705h130v-380h55l127 199h112v-61l-122 -191l135 -211v-61h-116l-136 212h-55v-212h-130zM192 -261l33 194h118v-55l-66 -139h-85z" />
    <glyph glyph-name="Lacute" unicode="&#x139;" horiz-adv-x="568" 
d="M88 0v700h142v-576h320v-124h-462zM106 762l76 151h126v-49l-90 -102h-112z" />
    <glyph glyph-name="lacute" unicode="&#x13a;" horiz-adv-x="286" 
d="M78 0v705h130v-705h-130zM91 756l71 140h117v-45l-84 -95h-104z" />
    <glyph glyph-name="Lcommaaccent" unicode="&#x13b;" horiz-adv-x="568" 
d="M88 0v700h142v-576h320v-124h-462zM221 -261l36 194h128v-55l-72 -139h-92z" />
    <glyph glyph-name="lcommaaccent" unicode="&#x13c;" horiz-adv-x="286" 
d="M78 0v705h130v-705h-130zM52 -261l33 194h118v-55l-66 -139h-85z" />
    <glyph glyph-name="Lcaron" unicode="&#x13d;" horiz-adv-x="568" 
d="M88 0v700h142v-576h320v-124h-462zM378 506l36 194h128v-55l-72 -139h-92z" />
    <glyph glyph-name="lcaron" unicode="&#x13e;" horiz-adv-x="412" 
d="M78 0v705h130v-705h-130zM276 511l36 194h128v-55l-72 -139h-92z" />
    <glyph glyph-name="Lslash" unicode="&#x141;" horiz-adv-x="605" 
d="M125 0v226l-62 -45h-46v99l108 79v341h142v-233l97 70h46v-99l-143 -105v-209h320v-124h-462z" />
    <glyph glyph-name="lslash" unicode="&#x142;" horiz-adv-x="413" 
d="M141 0v208l-80 -83h-61v84l141 150v346h130v-206l82 85h60v-85l-142 -149v-350h-130z" />
    <glyph glyph-name="Nacute" unicode="&#x143;" horiz-adv-x="716" 
d="M88 0v700h130l268 -436v436h142v-700h-130l-268 436v-436h-142zM277 762l76 151h126v-49l-90 -102h-112z" />
    <glyph glyph-name="nacute" unicode="&#x144;" horiz-adv-x="601" 
d="M78 0v524h75l38 -52q66 64 155 64q85 0 133.5 -54t48.5 -149v-333h-130v325q0 45 -23 69t-58 24q-25 0 -55 -14t-54 -41v-363h-130zM252 590l71 140h117v-45l-84 -95h-104z" />
    <glyph glyph-name="Ncommaaccent" unicode="&#x145;" horiz-adv-x="716" 
d="M88 0v700h130l268 -436v436h142v-700h-130l-268 436v-436h-142zM262 -261l36 194h128v-55l-72 -139h-92z" />
    <glyph glyph-name="ncommaaccent" unicode="&#x146;" horiz-adv-x="601" 
d="M78 0v524h75l38 -52q66 64 155 64q85 0 133.5 -54t48.5 -149v-333h-130v325q0 45 -23 69t-58 24q-25 0 -55 -14t-54 -41v-363h-130zM209 -261l33 194h118v-55l-66 -139h-85z" />
    <glyph glyph-name="Ncaron" unicode="&#x147;" horiz-adv-x="716" 
d="M88 0v700h130l268 -436v436h142v-700h-130l-268 436v-436h-142zM302 763l-101 106v44h106l52 -71l51 71h104v-44l-102 -106h-110z" />
    <glyph glyph-name="ncaron" unicode="&#x148;" horiz-adv-x="601" 
d="M78 0v524h75l38 -52q66 64 155 64q85 0 133.5 -54t48.5 -149v-333h-130v325q0 45 -23 69t-58 24q-25 0 -55 -14t-54 -41v-363h-130zM254 590l-94 99v41h99l48 -66l48 66h97v-41l-95 -99h-103z" />
    <glyph glyph-name="Omacron" unicode="&#x14c;" horiz-adv-x="694" 
d="M347 115q34 0 66 11.5t51.5 40.5t19.5 64v238q0 35 -19.5 64t-51.5 40.5t-66 11.5t-66 -11.5t-51.5 -40.5t-19.5 -64v-238q0 -35 19.5 -64t51.5 -40.5t66 -11.5zM347 -15q-128 0 -203.5 67.5t-75.5 185.5v224q0 118 75.5 185.5t203.5 67.5q63 0 115 -17t88.5 -50
t56 -80.5t19.5 -105.5v-224q0 -58 -19.5 -105.5t-56 -80.5t-88.5 -50t-115 -17zM175 778v103h345v-103h-345z" />
    <glyph glyph-name="omacron" unicode="&#x14d;" horiz-adv-x="565" 
d="M283 106q46 0 71.5 23.5t25.5 58.5v148q0 35 -25.5 58.5t-71.5 23.5q-23 0 -46.5 -8t-37.5 -28.5t-14 -45.5v-148q0 -25 14 -45.5t37.5 -28.5t46.5 -8zM283 -12q-69 0 -118.5 22.5t-79.5 66t-30 105.5v160q0 62 30 105.5t79.5 66t118.5 22.5q41 0 81.5 -10t76.5 -36.5
t52.5 -66.5t16.5 -81v-160q0 -41 -14.5 -76.5t-43 -62t-72 -41t-97.5 -14.5zM122 604v96h322v-96h-322z" />
    <glyph glyph-name="obreve" unicode="&#x14f;" horiz-adv-x="565" 
d="M283 106q46 0 71.5 23.5t25.5 58.5v148q0 35 -25.5 58.5t-71.5 23.5q-23 0 -46.5 -8t-37.5 -28.5t-14 -45.5v-148q0 -25 14 -45.5t37.5 -28.5t46.5 -8zM283 -12q-69 0 -118.5 22.5t-79.5 66t-30 105.5v160q0 62 30 105.5t79.5 66t118.5 22.5q41 0 81.5 -10t76.5 -36.5
t52.5 -66.5t16.5 -81v-160q0 -41 -14.5 -76.5t-43 -62t-72 -41t-97.5 -14.5zM284 585q-74 0 -119 36.5t-45 100.5v12h111v-11q0 -20 13 -32t40 -12q55 0 55 44v11h109v-12q0 -64 -45 -100.5t-119 -36.5z" />
    <glyph glyph-name="Ohungarumlaut" unicode="&#x150;" horiz-adv-x="694" 
d="M347 115q34 0 66 11.5t51.5 40.5t19.5 64v238q0 35 -19.5 64t-51.5 40.5t-66 11.5t-66 -11.5t-51.5 -40.5t-19.5 -64v-238q0 -35 19.5 -64t51.5 -40.5t66 -11.5zM347 -15q-128 0 -203.5 67.5t-75.5 185.5v224q0 118 75.5 185.5t203.5 67.5q63 0 115 -17t88.5 -50
t56 -80.5t19.5 -105.5v-224q0 -58 -19.5 -105.5t-56 -80.5t-88.5 -50t-115 -17zM180 763l76 150h126v-48l-90 -102h-112zM369 763l75 150h125v-48l-89 -102h-111z" />
    <glyph glyph-name="ohungarumlaut" unicode="&#x151;" horiz-adv-x="565" 
d="M283 106q46 0 71.5 23.5t25.5 58.5v148q0 35 -25.5 58.5t-71.5 23.5q-23 0 -46.5 -8t-37.5 -28.5t-14 -45.5v-148q0 -25 14 -45.5t37.5 -28.5t46.5 -8zM283 -12q-69 0 -118.5 22.5t-79.5 66t-30 105.5v160q0 62 30 105.5t79.5 66t118.5 22.5q41 0 81.5 -10t76.5 -36.5
t52.5 -66.5t16.5 -81v-160q0 -41 -14.5 -76.5t-43 -62t-72 -41t-97.5 -14.5zM130 590l71 140h117v-45l-84 -95h-104zM306 590l70 140h117v-45l-83 -95h-104z" />
    <glyph glyph-name="OE" unicode="&#x152;" horiz-adv-x="990" 
d="M347 -15q-128 0 -203.5 67.5t-75.5 185.5v224q0 118 75.5 185.5t203.5 67.5q62 0 137 -30v15h456v-124h-314v-166h268v-118h-268v-168h316v-124h-458v14q-77 -29 -137 -29zM347 115q67 0 102 33t35 77v243q0 36 -19 65t-51.5 40.5t-66.5 11.5t-66 -11.5t-51.5 -40.5
t-19.5 -64v-238q0 -35 19.5 -64t51.5 -40.5t66 -11.5z" />
    <glyph glyph-name="oe" unicode="&#x153;" horiz-adv-x="881" 
d="M608 -12q-102 0 -164 48q-59 -48 -161 -48q-69 0 -118.5 22.5t-79.5 66t-30 105.5v160q0 62 30 105.5t79.5 66t118.5 22.5q102 0 162 -50q63 50 163 50q98 0 158 -51t60 -141v-125h-316v-39q0 -33 26 -53.5t72 -20.5q36 0 58 14t29 39h130q-8 -80 -65 -125.5t-152 -45.5z
M510 318h186v26q0 34 -24.5 54t-68.5 20q-45 0 -69 -20.5t-24 -53.5v-26zM283 106q46 0 71.5 23.5t25.5 58.5v148q0 35 -25.5 58.5t-71.5 23.5q-23 0 -46.5 -8t-37.5 -28.5t-14 -45.5v-148q0 -25 14 -45.5t37.5 -28.5t46.5 -8z" />
    <glyph glyph-name="Racute" unicode="&#x154;" horiz-adv-x="676" 
d="M88 0v700h303q105 0 161 -57.5t56 -160.5q0 -34 -10.5 -74t-38 -74.5t-66.5 -53.5l129 -233v-47h-138l-146 263h-108v-263h-142zM230 383h135q98 0 98 97q0 96 -98 96h-135v-193zM250 762l76 151h126v-49l-90 -102h-112z" />
    <glyph glyph-name="racute" unicode="&#x155;" horiz-adv-x="382" 
d="M78 0v524h75l38 -52q55 64 136 64h27v-125h-27q-41 0 -69.5 -11t-49.5 -37v-363h-130zM144 590l71 140h117v-45l-84 -95h-104z" />
    <glyph glyph-name="Rcommaaccent" unicode="&#x156;" horiz-adv-x="666" 
d="M88 0v700h303q105 0 161 -57.5t56 -160.5q0 -34 -10.5 -74t-38 -74.5t-66.5 -53.5l129 -233v-47h-138l-146 263h-108v-263h-142zM230 383h135q98 0 98 97q0 96 -98 96h-135v-193zM250 -261l36 194h128v-55l-72 -139h-92z" />
    <glyph glyph-name="rcommaaccent" unicode="&#x157;" horiz-adv-x="382" 
d="M78 0v524h75l38 -52q55 64 136 64h27v-125h-27q-41 0 -69.5 -11t-49.5 -37v-363h-130zM51 -261l33 194h118v-55l-66 -139h-85z" />
    <glyph glyph-name="Rcaron" unicode="&#x158;" horiz-adv-x="676" 
d="M88 0v700h303q105 0 161 -57.5t56 -160.5q0 -34 -10.5 -74t-38 -74.5t-66.5 -53.5l129 -233v-47h-138l-146 263h-108v-263h-142zM230 383h135q98 0 98 97q0 96 -98 96h-135v-193zM264 763l-101 106v44h106l52 -71l51 71h104v-44l-102 -106h-110z" />
    <glyph glyph-name="rcaron" unicode="&#x159;" horiz-adv-x="382" 
d="M78 0v524h75l38 -52q55 64 136 64h27v-125h-27q-41 0 -69.5 -11t-49.5 -37v-363h-130zM155 590l-94 99v41h99l48 -66l48 66h97v-41l-95 -99h-103z" />
    <glyph glyph-name="Sacute" unicode="&#x15a;" horiz-adv-x="648" 
d="M317 -15q-71 0 -124.5 21.5t-87 56t-48 78t-14.5 86.5h142q0 -32 15.5 -58.5t51 -40t73.5 -13.5q54 0 84.5 21.5t30.5 54.5q0 18 -10.5 31t-28 22.5t-36 17t-47.5 18t-41 15.5l-29 11q-111 42 -149 89.5t-38 108.5q0 96 70 153.5t189 57.5q88 0 146 -28.5t88 -80
t30 -127.5h-142q0 42 -21 66.5t-50 32t-53 7.5q-52 0 -83 -20t-31 -53q0 -9 3.5 -21t15.5 -22.5t29 -18t41 -16t29 -10.5l28 -10q106 -38 142 -60.5t56 -44t31 -49.5t11 -62q0 -45 -17.5 -84.5t-52 -68t-86.5 -44.5t-117 -16zM244 762l76 151h126v-49l-90 -102h-112z" />
    <glyph glyph-name="sacute" unicode="&#x15b;" horiz-adv-x="559" 
d="M284 -12q-51 0 -94 13.5t-74 38.5t-48.5 61t-18.5 79h129q3 -25 22.5 -43t47 -24.5t52.5 -6.5q34 0 55.5 12.5t21.5 31.5q0 28 -35 36l-145 37q-69 18 -103 53.5t-34 91.5q0 77 57 122.5t156 45.5q101 0 159.5 -47.5t61.5 -132.5h-130q-2 30 -28.5 46t-72.5 16
q-39 0 -58 -12.5t-19 -29.5q0 -11 8.5 -20.5t36.5 -16.5l149 -37q123 -30 123 -142q0 -79 -60 -125.5t-159 -46.5zM201 590l71 140h117v-45l-84 -95h-104z" />
    <glyph glyph-name="scircumflex" unicode="&#x15d;" horiz-adv-x="559" 
d="M284 -12q-51 0 -94 13.5t-74 38.5t-48.5 61t-18.5 79h129q3 -25 22.5 -43t47 -24.5t52.5 -6.5q34 0 55.5 12.5t21.5 31.5q0 28 -35 36l-145 37q-69 18 -103 53.5t-34 91.5q0 77 57 122.5t156 45.5q101 0 159.5 -47.5t61.5 -132.5h-130q-2 30 -28.5 46t-72.5 16
q-39 0 -58 -12.5t-19 -29.5q0 -11 8.5 -20.5t36.5 -16.5l149 -37q123 -30 123 -142q0 -79 -60 -125.5t-159 -46.5zM128 590v41l94 99h103l95 -99v-41h-99l-48 54l-48 -54h-97z" />
    <glyph glyph-name="Scaron" unicode="&#x160;" horiz-adv-x="648" 
d="M317 -15q-71 0 -124.5 21.5t-87 56t-48 78t-14.5 86.5h142q0 -32 15.5 -58.5t51 -40t73.5 -13.5q54 0 84.5 21.5t30.5 54.5q0 18 -10.5 31t-28 22.5t-36 17t-47.5 18t-41 15.5l-29 11q-111 42 -149 89.5t-38 108.5q0 96 70 153.5t189 57.5q88 0 146 -28.5t88 -80
t30 -127.5h-142q0 42 -21 66.5t-50 32t-53 7.5q-52 0 -83 -20t-31 -53q0 -9 3.5 -21t15.5 -22.5t29 -18t41 -16t29 -10.5l28 -10q106 -38 142 -60.5t56 -44t31 -49.5t11 -62q0 -45 -17.5 -84.5t-52 -68t-86.5 -44.5t-117 -16zM266 763l-101 106v44h106l52 -71l51 71h104v-44
l-102 -106h-110z" />
    <glyph glyph-name="scaron" unicode="&#x161;" horiz-adv-x="559" 
d="M284 -12q-51 0 -94 13.5t-74 38.5t-48.5 61t-18.5 79h129q3 -25 22.5 -43t47 -24.5t52.5 -6.5q34 0 55.5 12.5t21.5 31.5q0 28 -35 36l-145 37q-69 18 -103 53.5t-34 91.5q0 77 57 122.5t156 45.5q101 0 159.5 -47.5t61.5 -132.5h-130q-2 30 -28.5 46t-72.5 16
q-39 0 -58 -12.5t-19 -29.5q0 -11 8.5 -20.5t36.5 -16.5l149 -37q123 -30 123 -142q0 -79 -60 -125.5t-159 -46.5zM224 590l-94 99v41h99l48 -66l48 66h97v-41l-95 -99h-103z" />
    <glyph glyph-name="Tcaron" unicode="&#x164;" horiz-adv-x="571" 
d="M215 0v576h-197v124h535v-124h-196v-576h-142zM231 763l-101 106v44h106l52 -71l51 71h104v-44l-102 -106h-110z" />
    <glyph glyph-name="tcaron" unicode="&#x165;" horiz-adv-x="553" 
d="M287 0q-94 0 -143 49.5t-49 149.5v212h-77v113h77v109h130v-109h119v-113h-119v-212q0 -48 19.5 -67t56.5 -19h43v-113h-57zM389 511l36 194h128v-55l-72 -139h-92z" />
    <glyph glyph-name="Umacron" unicode="&#x16a;" horiz-adv-x="696" 
d="M476 700h143v-470q0 -115 -73 -180t-197 -65q-61 0 -111.5 16.5t-86 48t-54.5 77.5t-19 103v470h142v-476q0 -32 18.5 -59.5t48.5 -38.5t62 -11t61.5 11t47.5 38.5t18 59.5v476zM175 778v103h345v-103h-345z" />
    <glyph glyph-name="umacron" unicode="&#x16b;" horiz-adv-x="597" 
d="M519 524v-524h-75l-38 51q-67 -63 -153 -63q-84 0 -132 53.5t-48 147.5v335h130v-327q0 -44 22.5 -67.5t56.5 -23.5q25 0 54.5 14t52.5 40v364h130zM136 604v96h322v-96h-322z" />
    <glyph glyph-name="Uring" unicode="&#x16e;" horiz-adv-x="696" 
d="M476 700h143v-470q0 -115 -73 -180t-197 -65q-61 0 -111.5 16.5t-86 48t-54.5 77.5t-19 103v470h142v-476q0 -32 18.5 -59.5t48.5 -38.5t62 -11t61.5 11t47.5 38.5t18 59.5v476zM349 811q13 0 25 10t12 26q0 15 -12 25t-25 10t-24.5 -10t-11.5 -25q0 -16 11.5 -26
t24.5 -10zM349 736q-48 0 -83 33t-35 78t35 77.5t83 32.5t83 -32.5t35 -77.5t-35 -78t-83 -33z" />
    <glyph glyph-name="uring" unicode="&#x16f;" horiz-adv-x="597" 
d="M519 524v-524h-75l-38 51q-67 -63 -153 -63q-84 0 -132 53.5t-48 147.5v335h130v-327q0 -44 22.5 -67.5t56.5 -23.5q25 0 54.5 14t52.5 40v364h130zM296 635q12 0 23 9.5t11 23.5t-11 23.5t-23 9.5t-23 -9.5t-11 -23.5t11 -23.5t23 -9.5zM296 565q-32 0 -60 17.5
t-39 41.5t-11 44t11 44t39 41.5t60 17.5t60 -17.5t39 -41.5t11 -44t-11 -44t-39 -41.5t-60 -17.5z" />
    <glyph glyph-name="Uhungarumlaut" unicode="&#x170;" horiz-adv-x="696" 
d="M476 700h143v-470q0 -115 -73 -180t-197 -65q-61 0 -111.5 16.5t-86 48t-54.5 77.5t-19 103v470h142v-476q0 -32 18.5 -59.5t48.5 -38.5t62 -11t61.5 11t47.5 38.5t18 59.5v476zM179 763l76 150h126v-48l-90 -102h-112zM368 763l75 150h125v-48l-89 -102h-111z" />
    <glyph glyph-name="uhungarumlaut" unicode="&#x171;" horiz-adv-x="597" 
d="M519 524v-524h-75l-38 51q-67 -63 -153 -63q-84 0 -132 53.5t-48 147.5v335h130v-327q0 -44 22.5 -67.5t56.5 -23.5q25 0 54.5 14t52.5 40v364h130zM142 590l71 140h117v-45l-84 -95h-104zM318 590l70 140h117v-45l-83 -95h-104z" />
    <glyph glyph-name="Uogonek" unicode="&#x172;" horiz-adv-x="696" 
d="M481 -160q-48 0 -76.5 20t-28.5 53q0 37 40 78q-31 -6 -67 -6q-61 0 -111.5 16.5t-86 48t-54.5 77.5t-19 103v470h142v-476q0 -32 18.5 -59.5t48.5 -38.5t62 -11t61.5 11t47.5 38.5t18 59.5v476h143v-470q0 -65 -26.5 -120t-93.5 -110q-16 -13 -26.5 -26.5t-10.5 -29.5
q0 -26 45 -26h31v-78h-57z" />
    <glyph glyph-name="uogonek" unicode="&#x173;" horiz-adv-x="597" 
d="M501 -160q-48 0 -76.5 20t-28.5 53q0 42 48 87l-38 51q-67 -63 -153 -63q-84 0 -132 53.5t-48 147.5v335h130v-327q0 -44 22.5 -67.5t56.5 -23.5q25 0 54.5 14t52.5 40v364h130v-524q-37 -30 -37 -56t45 -26h31v-78h-57z" />
    <glyph glyph-name="Ydieresis" unicode="&#x178;" horiz-adv-x="618" 
d="M238 0v277l-230 376v47h140l162 -290l169 290h131v-47l-230 -370v-283h-142zM133 771v118h139v-118h-139zM350 771v118h139v-118h-139z" />
    <glyph glyph-name="Zacute" unicode="&#x179;" horiz-adv-x="592" 
d="M38 0v123l342 453h-327v124h490v-122l-343 -454h354v-124h-516zM211 762l76 151h126v-49l-90 -102h-112z" />
    <glyph glyph-name="zacute" unicode="&#x17a;" horiz-adv-x="533" 
d="M48 0v113l256 298h-249v113h405v-113l-259 -298h273v-113h-426zM178 590l71 140h117v-45l-84 -95h-104z" />
    <glyph glyph-name="Zdotaccent" unicode="&#x17b;" horiz-adv-x="592" 
d="M38 0v123l342 453h-327v124h490v-122l-343 -454h354v-124h-516zM226 768v118h140v-118h-140z" />
    <glyph glyph-name="zdotaccent" unicode="&#x17c;" horiz-adv-x="533" 
d="M48 0v113l256 298h-249v113h405v-113l-259 -298h273v-113h-426zM195 595v110h130v-110h-130z" />
    <glyph glyph-name="Zcaron" unicode="&#x17d;" horiz-adv-x="592" 
d="M38 0v123l342 453h-327v124h490v-122l-343 -454h354v-124h-516zM246 763l-101 106v44h106l52 -71l51 71h104v-44l-102 -106h-110z" />
    <glyph glyph-name="zcaron" unicode="&#x17e;" horiz-adv-x="533" 
d="M48 0v113l256 298h-249v113h405v-113l-259 -298h273v-113h-426zM211 590l-94 99v41h99l48 -66l48 66h97v-41l-95 -99h-103z" />
    <glyph glyph-name="florin" unicode="&#x192;" horiz-adv-x="374" 
d="M71 11l32 400h-68v113h77q8 95 60.5 139t145.5 44l38 -2v-116h-21q-47 0 -68.5 -15t-24.5 -50h114v-113h-123l-32 -400q-8 -95 -60.5 -139t-145.5 -44l-38 2v116h21q47 0 68.5 15t24.5 50z" />
    <glyph glyph-name="scommaaccent" unicode="&#x219;" horiz-adv-x="559" 
d="M284 -12q-51 0 -94 13.5t-74 38.5t-48.5 61t-18.5 79h129q3 -25 22.5 -43t47 -24.5t52.5 -6.5q34 0 55.5 12.5t21.5 31.5q0 28 -35 36l-145 37q-69 18 -103 53.5t-34 91.5q0 77 57 122.5t156 45.5q101 0 159.5 -47.5t61.5 -132.5h-130q-2 30 -28.5 46t-72.5 16
q-39 0 -58 -12.5t-19 -29.5q0 -11 8.5 -20.5t36.5 -16.5l149 -37q123 -30 123 -142q0 -79 -60 -125.5t-159 -46.5zM187 -261l33 194h118v-55l-66 -139h-85z" />
    <glyph glyph-name="circumflex" unicode="&#x2c6;" horiz-adv-x="408" 
d="M58 590v41l94 99h103l95 -99v-41h-99l-48 54l-48 -54h-97z" />
    <glyph glyph-name="caron" unicode="&#x2c7;" horiz-adv-x="408" 
d="M152 590l-94 99v41h99l48 -66l48 66h97v-41l-95 -99h-103z" />
    <glyph glyph-name="breve" unicode="&#x2d8;" horiz-adv-x="408" 
d="M204 571q-74 0 -119 36.5t-45 100.5v12h111v-11q0 -20 13 -32t40 -12q55 0 55 44v11h109v-12q0 -64 -45 -100.5t-119 -36.5z" />
    <glyph glyph-name="dotaccent" unicode="&#x2d9;" horiz-adv-x="246" 
d="M58 595v110h130v-110h-130z" />
    <glyph glyph-name="ring" unicode="&#x2da;" horiz-adv-x="336" 
d="M168 635q12 0 23 9.5t11 23.5t-11 23.5t-23 9.5t-23 -9.5t-11 -23.5t11 -23.5t23 -9.5zM168 565q-32 0 -60 17.5t-39 41.5t-11 44t11 44t39 41.5t60 17.5t60 -17.5t39 -41.5t11 -44t-11 -44t-39 -41.5t-60 -17.5z" />
    <glyph glyph-name="ogonek" unicode="&#x2db;" horiz-adv-x="284" 
d="M153 -160q-48 0 -76.5 20t-28.5 53q0 40 50 87h73q-37 -30 -37 -56t45 -26h31v-78h-57z" />
    <glyph glyph-name="tilde" unicode="&#x2dc;" horiz-adv-x="483" 
d="M347 729l78 -46q-48 -103 -120 -103q-29 0 -63 21l-24 15q-13 8 -20 11t-16 3t-18.5 -6.5t-27.5 -37.5l-78 46q48 103 120 103q29 0 63 -21l24 -15q13 -8 20 -11t16 -3t18.5 6.5t27.5 37.5z" />
    <glyph glyph-name="hungarumlaut" unicode="&#x2dd;" horiz-adv-x="479" 
d="M58 590l71 140h117v-45l-84 -95h-104zM234 590l70 140h117v-45l-83 -95h-104z" />
    <glyph glyph-name="Omega" unicode="&#x3a9;" horiz-adv-x="725" 
d="M67 0v124h81q-31 24 -48 58t-17 103v177q0 118 75.5 185.5t203.5 67.5q63 0 115 -17t89 -50t56.5 -80.5t19.5 -105.5v-177q0 -69 -17.5 -103t-48.5 -58h82v-124h-242v124q39 11 61.5 52t22.5 100v193q0 34 -18 61t-48 41t-72 14q-34 0 -66 -11.5t-51.5 -40.5t-19.5 -64
v-193q0 -35 10.5 -69.5t28 -53t29 -23.5t16.5 -6v-124h-242z" />
    <glyph glyph-name="pi" unicode="&#x3c0;" horiz-adv-x="708" 
d="M127 0v411h-99v113h652v-113h-99v-411h-130v411h-194v-411h-130z" />
    <glyph glyph-name="afii10023" unicode="&#x401;" horiz-adv-x="594" 
d="M88 0v700h456v-124h-314v-166h268v-118h-268v-168h316v-124h-458zM138 768v118h139v-118h-139zM355 768v118h139v-118h-139z" />
    <glyph glyph-name="afii10051" unicode="&#x402;" horiz-adv-x="752" 
d="M190 0v576h-172v124h539v-124h-225v-152q57 9 120 9q122 0 189.5 -58t67.5 -159q0 -100 -54 -158t-153 -58h-73v124h54q37 0 59.5 23t22.5 63q0 33 -19.5 55.5t-49.5 30t-58 7.5q-56 0 -106 -7v-296h-142z" />
    <glyph glyph-name="afii10052" unicode="&#x403;" horiz-adv-x="566" 
d="M231 762l76 151h126v-49l-90 -102h-112zM88 0v700h440v-124h-298v-576h-142z" />
    <glyph glyph-name="afii10053" unicode="&#x404;" horiz-adv-x="661" 
d="M349 -15q-133 0 -207 66.5t-74 185.5v226q0 119 74 185.5t207 66.5q48 0 93.5 -14t82 -44t57.5 -77t21 -108h-130q-1 54 -39.5 83.5t-93.5 29.5q-66 0 -98 -32t-32 -85v-59h222v-118h-222v-59q0 -53 32 -85t98 -32q25 0 56 8.5t53.5 34.5t23.5 70h130q0 -46 -14.5 -90.5
t-47.5 -78.5t-82 -54t-110 -20z" />
    <glyph glyph-name="afii10054" unicode="&#x405;" horiz-adv-x="648" 
d="M317 -15q-71 0 -124.5 21.5t-87 56t-48 78t-14.5 86.5h142q0 -32 15.5 -58.5t51 -40t73.5 -13.5q54 0 84.5 21.5t30.5 54.5q0 18 -10.5 31t-28 22.5t-36 17t-47.5 18t-41 15.5l-29 11q-111 42 -149 89.5t-38 108.5q0 96 70 153.5t189 57.5q88 0 146 -28.5t88 -80
t30 -127.5h-142q0 42 -21 66.5t-50 32t-53 7.5q-52 0 -83 -20t-31 -53q0 -9 3.5 -21t15.5 -22.5t29 -18t41 -16t29 -10.5l28 -10q106 -38 142 -60.5t56 -44t31 -49.5t11 -62q0 -45 -17.5 -84.5t-52 -68t-86.5 -44.5t-117 -16z" />
    <glyph glyph-name="afii10055" unicode="&#x406;" horiz-adv-x="318" 
d="M88 0v700h142v-700h-142z" />
    <glyph glyph-name="afii10056" unicode="&#x407;" horiz-adv-x="318" 
d="M88 0v700h142v-700h-142zM-18 768v118h139v-118h-139zM199 768v118h140v-118h-140z" />
    <glyph glyph-name="afii10057" unicode="&#x408;" horiz-adv-x="584" 
d="M263 -15q-82 0 -135.5 25t-81.5 74t-28 125v31h142v-31q0 -48 27.5 -71t75.5 -23q43 0 72.5 24t29.5 75v486h142v-491q0 -73 -28.5 -122t-82.5 -75.5t-133 -26.5z" />
    <glyph glyph-name="afii10058" unicode="&#x409;" horiz-adv-x="1011" 
d="M601 124h142q24 0 44 13t28.5 36t8.5 45t-8.5 45t-28.5 36t-44 13h-142v-188zM146 366v334h455v-264h168q93 0 146 -59t53 -159t-53 -159t-146 -59h-310v576h-183v-234q0 -93 -15.5 -158.5t-47.5 -106t-80 -59t-113 -18.5v130q48 0 74 16.5t39 63t13 156.5z" />
    <glyph glyph-name="afii10059" unicode="&#x40a;" horiz-adv-x="1038" 
d="M486 0v312h-256v-312h-142v700h142v-264h256v264h142v-264h168q93 0 146 -59t53 -159t-53 -159t-146 -59h-310zM628 124h142q24 0 44 13t28.5 36t8.5 45t-8.5 45t-28.5 36t-44 13h-142v-188z" />
    <glyph glyph-name="afii10060" unicode="&#x40b;" horiz-adv-x="765" 
d="M190 0v576h-172v124h539v-124h-225v-152q56 9 115 9q130 0 195 -53.5t65 -157.5v-222h-142v206q0 97 -129 97q-54 0 -104 -9v-294h-142z" />
    <glyph glyph-name="afii10061" unicode="&#x40c;" horiz-adv-x="637" 
d="M88 0v700h142v-288h74l169 288h132v-47l-177 -295l192 -311v-47h-141l-175 288h-74v-288h-142zM267 762l76 151h126v-49l-90 -102h-112z" />
    <glyph glyph-name="afii10062" unicode="&#x40e;" horiz-adv-x="597" 
d="M162 47l79 159l-233 447v47h131l174 -342l152 342h124v-47l-291 -653h-136v47zM304 742q-74 0 -119.5 35t-45.5 98v13h111v-12q0 -20 13.5 -32t40.5 -12t40.5 12t13.5 32v12h110v-13q0 -64 -45 -98.5t-119 -34.5z" />
    <glyph glyph-name="afii10145" unicode="&#x40f;" horiz-adv-x="711" 
d="M290 -138v138h-202v700h142v-576h251v576h142v-700h-203v-138h-130z" />
    <glyph glyph-name="afii10017" unicode="&#x410;" horiz-adv-x="660" 
d="M18 0v47l242 653h139l243 -653v-47h-140l-56 164h-239l-58 -164h-131zM249 282h154l-76 228z" />
    <glyph glyph-name="afii10018" unicode="&#x411;" horiz-adv-x="668" 
d="M88 0v700h489v-124h-347v-140h190q93 0 146.5 -59t53.5 -159t-53.5 -159t-146.5 -59h-332zM230 124h165q23 0 43.5 13t29 36t8.5 45t-8.5 45t-29 36t-43.5 13h-165v-188z" />
    <glyph glyph-name="afii10019" unicode="&#x412;" horiz-adv-x="667" 
d="M88 0v700h296q97 0 152 -49.5t55 -143.5q0 -100 -78 -144q35 -15 58.5 -38t35.5 -54t12 -74q0 -97 -54.5 -147t-152.5 -50h-324zM230 409h146q21 0 39 11.5t25.5 32t7.5 40.5q0 40 -21 61.5t-51 21.5h-146v-167zM230 124h175q21 0 39 11.5t25.5 32t7.5 40.5
q0 40 -21 61.5t-51 21.5h-175v-167z" />
    <glyph glyph-name="afii10020" unicode="&#x413;" horiz-adv-x="566" 
d="M88 0v700h440v-124h-298v-576h-142z" />
    <glyph glyph-name="afii10021" unicode="&#x414;" horiz-adv-x="721" 
d="M23 -138v262h55q43 56 57.5 119t14.5 142v315h459v-576h79v-262h-130v138h-405v-138h-130zM230 124h237v452h-187v-191q0 -39 -3.5 -83t-13.5 -85.5t-33 -92.5z" />
    <glyph glyph-name="afii10022" unicode="&#x415;" horiz-adv-x="594" 
d="M88 0v700h456v-124h-314v-166h268v-118h-268v-168h316v-124h-458z" />
    <glyph glyph-name="afii10024" unicode="&#x416;" horiz-adv-x="947" 
d="M403 0v288h-85l-146 -288h-143v47l168 313l-154 293v47h130l148 -288h82v288h142v-288h82l148 288h130v-47l-154 -293l168 -313v-47h-143l-146 288h-85v-288h-142z" />
    <glyph glyph-name="afii10025" unicode="&#x417;" horiz-adv-x="630" 
d="M325 -15q-86 0 -148 30t-95.5 84t-33.5 131h142q0 -38 16 -62.5t46.5 -38.5t72.5 -14q53 0 83.5 22.5t30.5 65.5t-29.5 65t-81.5 22h-90v118h90q45 0 70.5 22t25.5 62t-27.5 66.5t-75.5 26.5q-21 0 -48 -8.5t-46 -35t-19 -71.5h-142q0 78 30.5 131.5t87.5 83.5t137 30
q116 0 181.5 -57.5t65.5 -150.5q0 -25 -8.5 -53.5t-29.5 -54.5t-49 -45q32 -15 56.5 -39t34.5 -54.5t10 -57.5q0 -99 -68 -158.5t-189 -59.5z" />
    <glyph glyph-name="afii10026" unicode="&#x418;" horiz-adv-x="721" 
d="M88 0v700h142v-446l273 446h130v-700h-142v446l-273 -446h-130z" />
    <glyph glyph-name="afii10027" unicode="&#x419;" horiz-adv-x="721" 
d="M88 0v700h142v-446l273 446h130v-700h-142v446l-273 -446h-130zM361 742q-74 0 -119.5 35t-45.5 98v13h111v-12q0 -20 13.5 -32t40.5 -12t40.5 12t13.5 32v12h110v-13q0 -64 -45 -98.5t-119 -34.5z" />
    <glyph glyph-name="afii10028" unicode="&#x41a;" horiz-adv-x="637" 
d="M88 0v700h142v-288h74l169 288h132v-47l-177 -295l192 -311v-47h-141l-175 288h-74v-288h-142z" />
    <glyph glyph-name="afii10029" unicode="&#x41b;" horiz-adv-x="689" 
d="M20 0v130q48 0 74 16.5t39 63t13 156.5v334h455v-700h-142v576h-183v-234q0 -93 -15.5 -158.5t-47.5 -106t-80 -59t-113 -18.5z" />
    <glyph glyph-name="afii10030" unicode="&#x41c;" horiz-adv-x="814" 
d="M451 218h-88l-138 230v-448h-137v700h137l184 -309l184 309h133v-700h-137v448z" />
    <glyph glyph-name="afii10031" unicode="&#x41d;" horiz-adv-x="716" 
d="M88 0v700h142v-288h256v288h142v-700h-142v288h-256v-288h-142z" />
    <glyph glyph-name="afii10032" unicode="&#x41e;" horiz-adv-x="694" 
d="M347 115q34 0 66 11.5t51.5 40.5t19.5 64v238q0 35 -19.5 64t-51.5 40.5t-66 11.5t-66 -11.5t-51.5 -40.5t-19.5 -64v-238q0 -35 19.5 -64t51.5 -40.5t66 -11.5zM347 -15q-128 0 -203.5 67.5t-75.5 185.5v224q0 118 75.5 185.5t203.5 67.5q63 0 115 -17t88.5 -50
t56 -80.5t19.5 -105.5v-224q0 -58 -19.5 -105.5t-56 -80.5t-88.5 -50t-115 -17z" />
    <glyph glyph-name="afii10033" unicode="&#x41f;" horiz-adv-x="710" 
d="M88 0v700h534v-700h-142v576h-250v-576h-142z" />
    <glyph glyph-name="afii10034" unicode="&#x420;" horiz-adv-x="645" 
d="M88 0v700h313q94 0 147.5 -60t53.5 -161t-54 -160.5t-147 -59.5h-171v-259h-142zM230 383h145q24 0 45 13.5t29.5 37t8.5 46.5t-8.5 46t-29.5 36.5t-45 13.5h-145v-193z" />
    <glyph glyph-name="afii10035" unicode="&#x421;" horiz-adv-x="661" 
d="M343 -15q-132 0 -203.5 66t-71.5 186v226q0 120 71.5 186t203.5 66q52 0 99.5 -14.5t83.5 -44.5t56.5 -77t20.5 -109v-10h-142v10q0 14 -4 34t-18 37.5t-40.5 30.5t-64.5 13q-61 0 -92.5 -30t-31.5 -82v-246q0 -52 31.5 -82t92.5 -30q24 0 54 8.5t51.5 35t21.5 71.5v10
h142v-10q0 -62 -20.5 -109t-56.5 -77t-83.5 -44.5t-99.5 -14.5z" />
    <glyph glyph-name="afii10036" unicode="&#x422;" horiz-adv-x="571" 
d="M215 0v576h-197v124h535v-124h-196v-576h-142z" />
    <glyph glyph-name="afii10037" unicode="&#x423;" horiz-adv-x="597" 
d="M162 47l79 159l-233 447v47h131l174 -342l152 342h124v-47l-291 -653h-136v47z" />
    <glyph glyph-name="afii10038" unicode="&#x424;" horiz-adv-x="885" 
d="M371 -12v89h-39q-55 0 -100 14t-77 35t-56 50.5t-37.5 68t-13.5 81.5v72q0 43 13.5 81.5t37.5 68t56 50.5t77 35t100 14h39v77h142v-77h40q55 0 106.5 -16.5t91.5 -48t63 -79t23 -105.5v-72q0 -58 -23 -105.5t-63 -79t-91.5 -48t-106.5 -16.5h-40v-89h-142zM326 201h45
v322h-45q-38 0 -67.5 -15.5t-49 -44.5t-19.5 -67v-67q0 -24 12 -53t44.5 -52t79.5 -23zM513 201h46q47 0 79.5 23t44.5 52t12 53v67q0 31 -16.5 62t-49 48t-70.5 17h-46v-322z" />
    <glyph glyph-name="afii10039" unicode="&#x425;" horiz-adv-x="660" 
d="M28 0v47l214 317l-194 289v47h145l137 -225l146 225h136v-47l-196 -288l216 -318v-47h-144l-161 250l-163 -250h-136z" />
    <glyph glyph-name="afii10040" unicode="&#x426;" horiz-adv-x="728" 
d="M565 -138v138h-477v700h142v-576h244v576h142v-576h79v-262h-130z" />
    <glyph glyph-name="afii10041" unicode="&#x427;" horiz-adv-x="663" 
d="M433 0v254q-68 -11 -115 -11q-130 0 -195 53.5t-65 157.5v246h142v-230q0 -97 129 -97q57 0 104 11v316h142v-700h-142z" />
    <glyph glyph-name="afii10042" unicode="&#x428;" horiz-adv-x="1005" 
d="M88 0v700h142v-576h202v576h142v-576h201v576h142v-700h-829z" />
    <glyph glyph-name="afii10043" unicode="&#x429;" horiz-adv-x="1029" 
d="M866 -138v138h-778v700h142v-576h202v576h142v-576h201v576h142v-576h79v-262h-130z" />
    <glyph glyph-name="afii10044" unicode="&#x42a;" horiz-adv-x="715" 
d="M163 0v576h-155v124h297v-264h168q93 0 146 -59t53 -159t-53 -159t-146 -59h-310zM305 124h142q24 0 44 13t28.5 36t8.5 45t-8.5 45t-28.5 36t-44 13h-142v-188z" />
    <glyph glyph-name="afii10045" unicode="&#x42b;" horiz-adv-x="900" 
d="M670 0v700h142v-700h-142zM88 0v700h142v-264h168q93 0 146 -59t53 -159t-53 -159t-146 -59h-310zM230 124h142q24 0 44 13t28.5 36t8.5 45t-8.5 45t-28.5 36t-44 13h-142v-188z" />
    <glyph glyph-name="afii10046" unicode="&#x42c;" horiz-adv-x="640" 
d="M88 0v700h142v-264h168q93 0 146 -59t53 -159t-53 -159t-146 -59h-310zM230 124h142q24 0 44 13t28.5 36t8.5 45t-8.5 45t-28.5 36t-44 13h-142v-188z" />
    <glyph glyph-name="afii10047" unicode="&#x42d;" horiz-adv-x="662" 
d="M313 -15q-48 0 -93 14t-81.5 44t-58 77t-21.5 108h130q1 -30 14.5 -56.5t46.5 -41.5t72 -15q66 0 98 32t32 85v59h-222v118h222v59q0 53 -32 85t-98 32q-55 0 -93.5 -29.5t-39.5 -83.5h-130q0 46 14.5 90.5t47 78.5t81.5 54t111 20q133 0 207 -66.5t74 -185.5v-226
q0 -119 -74 -185.5t-207 -66.5z" />
    <glyph glyph-name="afii10048" unicode="&#x42e;" horiz-adv-x="950" 
d="M88 0v700h142v-288h114v59q0 56 19 102t54 77.5t85.5 48t110.5 16.5q124 0 196.5 -65t72.5 -179v-242q0 -114 -72.5 -179t-196.5 -65q-60 0 -110.5 16.5t-85.5 48t-54 77.5t-19 102v59h-114v-288h-142zM613 115q61 0 94 31.5t33 76.5v254q0 45 -33 76.5t-94 31.5
t-94 -31.5t-33 -76.5v-254q0 -45 33 -76.5t94 -31.5z" />
    <glyph glyph-name="afii10049" unicode="&#x42f;" horiz-adv-x="652" 
d="M39 0v47l132 222q-55 27 -86 79t-31 123q0 107 56.5 168t161.5 61h292v-700h-142v250h-113l-138 -250h-132zM308 370h114v206h-119q-104 0 -104 -102q0 -104 109 -104z" />
    <glyph glyph-name="afii10065" unicode="&#x430;" horiz-adv-x="566" 
d="M219 -12q-54 0 -94 21t-61 55t-21 80q0 82 53.5 126t158.5 44h108v33q0 34 -21 52.5t-63 18.5t-63 -16.5t-21 -43.5h-127q0 59 27 98.5t73 59.5t111 20q104 0 159 -49.5t55 -130.5v-356h-75l-38 51q-32 -30 -70 -46.5t-91 -16.5zM246 106q71 0 117 51v58h-108
q-23 0 -43 -6t-29.5 -19.5t-9.5 -28.5q0 -26 19 -40.5t54 -14.5z" />
    <glyph glyph-name="afii10066" unicode="&#x431;" horiz-adv-x="573" 
d="M291 -12q-51 0 -93 13t-72.5 37.5t-46.5 60.5t-16 81v183q0 109 34.5 172.5t112.5 86.5l127 38q30 10 30 40v5h130v-5q0 -30 -7 -59.5t-31.5 -52.5t-99.5 -44l-93 -26q-43 -12 -63.5 -36.5t-20.5 -74.5v-15q14 21 39 40t55 27.5t55 8.5q59 0 101 -23.5t64 -65.5t22 -103
v-94q0 -32 -11 -66t-38 -62.5t-71.5 -47t-106.5 -18.5zM291 106q46 0 71.5 23.5t25.5 58.5v79q0 19 -9 38.5t-32 32t-51 12.5q-59 0 -103 -51v-111q0 -25 14 -45.5t37.5 -28.5t46.5 -8z" />
    <glyph glyph-name="afii10067" unicode="&#x432;" horiz-adv-x="576" 
d="M78 0v524h242q86 0 134 -34t48 -106q0 -73 -52 -114q76 -36 76 -116q0 -77 -44 -115.5t-154 -38.5h-250zM208 312h107q25 0 37.5 14t12.5 35q0 50 -50 50h-107v-99zM208 113h128q26 0 38.5 14t12.5 36q0 50 -51 50h-128v-100z" />
    <glyph glyph-name="afii10068" unicode="&#x433;" horiz-adv-x="474" 
d="M78 0v524h358v-113h-228v-411h-130z" />
    <glyph glyph-name="afii10069" unicode="&#x434;" horiz-adv-x="642" 
d="M26 -124v237h49q50 45 50 181v230h408v-411h76v-237h-127v124h-328v-124h-128zM216 113h187v298h-155v-138q0 -37 -8.5 -82.5t-23.5 -77.5z" />
    <glyph glyph-name="afii10070" unicode="&#x435;" horiz-adv-x="556" 
d="M283 -12q-51 0 -93 13t-72.5 37.5t-46.5 60.5t-16 81v162q0 89 62.5 141.5t165.5 52.5q98 0 158 -51t60 -141v-125h-316v-37q0 -34 25 -55t73 -21q36 0 58 14t29 39h130q-8 -80 -65 -125.5t-152 -45.5zM185 318h186v26q0 34 -24.5 54t-68.5 20q-45 0 -69 -20.5t-24 -53.5
v-26z" />
    <glyph glyph-name="afii10072" unicode="&#x436;" horiz-adv-x="795" 
d="M38 0v61l131 205l-123 197v61h107l128 -206h52v206h130v-206h53l127 206h107v-61l-123 -197l131 -205v-61h-115l-124 205h-56v-205h-130v205h-55l-124 -205h-116z" />
    <glyph glyph-name="afii10073" unicode="&#x437;" horiz-adv-x="551" 
d="M280 -12q-108 0 -169.5 55.5t-62.5 149.5h126q0 -87 102 -87q39 0 61 15.5t22 41.5q0 23 -15 36.5t-42 13.5h-79v104h78q23 0 36 13.5t13 34.5q0 25 -20.5 39t-54.5 14q-90 0 -90 -84h-127q1 96 57 149t164 53q46 0 80 -9.5t60.5 -25.5t47.5 -47t21 -76q0 -34 -15 -62
t-40 -45q64 -36 64 -112q0 -82 -56.5 -126.5t-160.5 -44.5z" />
    <glyph glyph-name="afii10074" unicode="&#x438;" horiz-adv-x="617" 
d="M78 0v524h130v-323l201 323h130v-524h-130v323l-201 -323h-130z" />
    <glyph glyph-name="afii10075" unicode="&#x439;" horiz-adv-x="617" 
d="M308 571q-74 0 -119 36.5t-45 100.5v12h111v-11q0 -20 13 -32t40 -12q55 0 55 44v11h109v-12q0 -64 -45 -100.5t-119 -36.5zM78 0v524h130v-323l201 323h130v-524h-130v323l-201 -323h-130z" />
    <glyph glyph-name="afii10076" unicode="&#x43a;" horiz-adv-x="560" 
d="M78 0v524h130v-206h55l142 206h111v-61l-136 -197l143 -205v-61h-119l-142 205h-54v-205h-130z" />
    <glyph glyph-name="afii10077" unicode="&#x43b;" horiz-adv-x="609" 
d="M32 0v118h13q82 0 82 98v308h404v-524h-130v411h-152v-194q0 -67 -22.5 -114.5t-64.5 -75t-98 -27.5h-32z" />
    <glyph glyph-name="afii10078" unicode="&#x43c;" horiz-adv-x="701" 
d="M623 524v-524h-130v323l-113 -186h-60l-112 186v-323h-130v524h130l145 -231l140 231h130z" />
    <glyph glyph-name="afii10079" unicode="&#x43d;" horiz-adv-x="606" 
d="M78 0v524h130v-205h190v205h130v-524h-130v206h-190v-206h-130z" />
    <glyph glyph-name="afii10080" unicode="&#x43e;" horiz-adv-x="565" 
d="M283 106q46 0 71.5 23.5t25.5 58.5v148q0 35 -25.5 58.5t-71.5 23.5q-23 0 -46.5 -8t-37.5 -28.5t-14 -45.5v-148q0 -25 14 -45.5t37.5 -28.5t46.5 -8zM283 -12q-69 0 -118.5 22.5t-79.5 66t-30 105.5v160q0 62 30 105.5t79.5 66t118.5 22.5q41 0 81.5 -10t76.5 -36.5
t52.5 -66.5t16.5 -81v-160q0 -41 -14.5 -76.5t-43 -62t-72 -41t-97.5 -14.5z" />
    <glyph glyph-name="afii10081" unicode="&#x43f;" horiz-adv-x="601" 
d="M78 0v524h445v-524h-130v411h-185v-411h-130z" />
    <glyph glyph-name="afii10082" unicode="&#x440;" horiz-adv-x="596" 
d="M78 -160v684h75l38 -52q31 30 68 47t88 17q59 0 100.5 -24.5t63.5 -66.5t22 -101v-164q0 -59 -22 -101t-63.5 -66.5t-100.5 -24.5q-82 0 -139 49v-197h-130zM208 363v-202q55 -55 112 -55q23 0 44 12.5t30 32.5t9 39v144q0 19 -9 39t-30 32.5t-44 12.5q-57 0 -112 -55z
" />
    <glyph glyph-name="afii10083" unicode="&#x441;" horiz-adv-x="543" 
d="M277 -12q-101 0 -161.5 52.5t-60.5 141.5v160q0 89 60.5 141.5t161.5 52.5q98 0 156.5 -52t58.5 -144v-6h-130v6q0 35 -22.5 56.5t-62.5 21.5q-46 0 -69 -20t-23 -54v-164q0 -34 23 -54t69 -20q40 0 62.5 21t22.5 56v10h130v-7q0 -33 -10.5 -67.5t-36 -63.5t-68 -48
t-100.5 -19z" />
    <glyph glyph-name="afii10084" unicode="&#x442;" horiz-adv-x="495" 
d="M183 0v411h-165v113h459v-113h-164v-411h-130z" />
    <glyph glyph-name="afii10085" unicode="&#x443;" horiz-adv-x="515" 
d="M149 -160v47l49 113l-180 463v61h120l124 -347l117 347h118v-61l-242 -623h-106z" />
    <glyph glyph-name="afii10086" unicode="&#x444;" horiz-adv-x="821" 
d="M345 -160v199q-18 -21 -49.5 -36t-72.5 -15q-32 0 -57.5 10t-46.5 27.5t-38.5 53t-17.5 88.5v190q0 32 8.5 64t28.5 57.5t51 41.5t72 16q31 0 64.5 -12t57.5 -39v220h130v-220q19 21 50.5 36t72.5 15q32 0 57.5 -10t46.5 -27.5t38.5 -53t17.5 -88.5v-190q0 -32 -8.5 -64
t-28.5 -57.5t-51 -41.5t-72 -16t-72.5 15t-50.5 36v-199h-130zM266 106q46 0 79 31v250q-33 31 -79 31q-30 0 -51.5 -22.5t-21.5 -56.5v-154q0 -34 21.5 -56.5t51.5 -22.5zM555 106q30 0 51.5 22.5t21.5 56.5v154q0 34 -21.5 56.5t-51.5 22.5q-45 0 -80 -31v-250
q35 -31 80 -31z" />
    <glyph glyph-name="afii10087" unicode="&#x445;" horiz-adv-x="529" 
d="M38 0v61l145 201l-143 201v61h117l107 -163l109 163h110v-61l-139 -196l148 -206v-61h-116l-114 174l-113 -174h-111z" />
    <glyph glyph-name="afii10088" unicode="&#x446;" horiz-adv-x="627" 
d="M466 -124v124h-388v524h130v-411h179v411h130v-411h77v-237h-128z" />
    <glyph glyph-name="afii10089" unicode="&#x447;" horiz-adv-x="573" 
d="M365 0v178q-60 -12 -105 -12q-100 0 -156 43t-56 132v183h130v-169q0 -71 104 -71q19 0 34.5 1.5t30 4t18.5 3.5v231h130v-524h-130z" />
    <glyph glyph-name="afii10090" unicode="&#x448;" horiz-adv-x="818" 
d="M78 0v524h130v-411h136v411h130v-411h136v411h130v-524h-662z" />
    <glyph glyph-name="afii10091" unicode="&#x449;" horiz-adv-x="850" 
d="M689 -124v124h-611v524h130v-411h136v411h130v-411h136v411h130v-411h77v-237h-128z" />
    <glyph glyph-name="afii10092" unicode="&#x44a;" horiz-adv-x="591" 
d="M264 362h133q77 0 121.5 -49t44.5 -132t-44.5 -132t-121.5 -49h-263v411h-136v113h266v-162zM264 113h100q26 0 42.5 11.5t21.5 27.5t5 29q0 68 -69 68h-100v-136z" />
    <glyph glyph-name="afii10093" unicode="&#x44b;" horiz-adv-x="771" 
d="M563 0v524h130v-524h-130zM208 362h123q77 0 121.5 -49t44.5 -132t-44.5 -132t-121.5 -49h-253v524h130v-162zM208 113h90q26 0 42.5 11.5t21.5 27.5t5 29q0 68 -69 68h-90v-136z" />
    <glyph glyph-name="afii10094" unicode="&#x44c;" horiz-adv-x="535" 
d="M208 362h133q77 0 121.5 -49t44.5 -132t-44.5 -132t-121.5 -49h-263v524h130v-162zM208 113h100q26 0 42.5 11.5t21.5 27.5t5 29q0 68 -69 68h-100v-136z" />
    <glyph glyph-name="afii10095" unicode="&#x44d;" horiz-adv-x="550" 
d="M181 193v-6q0 -36 25 -58.5t67 -22.5q47 0 69.5 21.5t22.5 57.5v24h-140v104h140v26q0 36 -22.5 57.5t-69.5 21.5q-42 0 -67 -22.5t-25 -58.5v-3h-130v3q0 34 10.5 69.5t36.5 64t69 47t104 18.5q103 0 163.5 -53t60.5 -144v-154q0 -91 -60.5 -144t-163.5 -53
q-98 0 -159 54.5t-61 146.5v4h130z" />
    <glyph glyph-name="afii10096" unicode="&#x44e;" horiz-adv-x="791" 
d="M291 319v27q0 40 14 75t42 60.5t70.5 40t96.5 14.5q67 0 115.5 -22t77.5 -64.5t29 -103.5v-168q0 -61 -29 -103.5t-77.5 -64.5t-115.5 -22q-54 0 -96.5 14.5t-70.5 40t-42 60.5t-14 75v27h-83v-205h-130v524h130v-205h83zM514 106q44 0 68 22.5t24 55.5v156
q0 33 -24 55.5t-68 22.5q-45 0 -69 -22.5t-24 -55.5v-156q0 -33 24 -55.5t69 -22.5z" />
    <glyph glyph-name="afii10097" unicode="&#x44f;" horiz-adv-x="559" 
d="M48 0v61l95 132q-98 37 -98 161q0 50 20 91t57 60t77 19h282v-524h-130v186h-62l-120 -186h-121zM236 290h115v121h-115q-61 0 -61 -61q0 -26 15 -43t46 -17z" />
    <glyph glyph-name="afii10071" unicode="&#x451;" horiz-adv-x="556" 
d="M283 -12q-51 0 -93 13t-72.5 37.5t-46.5 60.5t-16 81v162q0 89 62.5 141.5t165.5 52.5q98 0 158 -51t60 -141v-125h-316v-37q0 -34 25 -55t73 -21q36 0 58 14t29 39h130q-8 -80 -65 -125.5t-152 -45.5zM185 318h186v26q0 34 -24.5 54t-68.5 20q-45 0 -69 -20.5t-24 -53.5
v-26zM117 595v110h130v-110h-130zM320 595v110h130v-110h-130z" />
    <glyph glyph-name="afii10099" unicode="&#x452;" horiz-adv-x="599" 
d="M410 22v209q0 45 -23 69t-58 24q-25 0 -55 -14t-54 -41v-269h-130v531h-78v92h78v82h130v-82h189v-92h-189v-138q60 49 138 49q85 0 133.5 -54t48.5 -149v-219q0 -35 -9.5 -68.5t-31 -61.5t-56.5 -45t-82 -17q-23 0 -37 2v116h22q64 0 64 76z" />
    <glyph glyph-name="afii10100" unicode="&#x453;" horiz-adv-x="474" 
d="M183 590l71 140h117v-45l-84 -95h-104zM78 0v524h358v-113h-228v-411h-130z" />
    <glyph glyph-name="afii10101" unicode="&#x454;" horiz-adv-x="550" 
d="M369 187v6h130v-4q0 -92 -61 -146.5t-159 -54.5q-103 0 -163.5 53t-60.5 144v154q0 91 60.5 144t163.5 53q49 0 89.5 -13.5t70 -39t45 -63t15.5 -83.5v-3h-130v3q0 36 -25 58.5t-67 22.5q-47 0 -69.5 -21.5t-22.5 -57.5v-26h140v-104h-140v-24q0 -36 22.5 -57.5
t69.5 -21.5q42 0 67 22.5t25 58.5z" />
    <glyph glyph-name="afii10102" unicode="&#x455;" horiz-adv-x="559" 
d="M284 -12q-51 0 -94 13.5t-74 38.5t-48.5 61t-18.5 79h129q3 -25 22.5 -43t47 -24.5t52.5 -6.5q34 0 55.5 12.5t21.5 31.5q0 28 -35 36l-145 37q-69 18 -103 53.5t-34 91.5q0 77 57 122.5t156 45.5q101 0 159.5 -47.5t61.5 -132.5h-130q-2 30 -28.5 46t-72.5 16
q-39 0 -58 -12.5t-19 -29.5q0 -11 8.5 -20.5t36.5 -16.5l149 -37q123 -30 123 -142q0 -79 -60 -125.5t-159 -46.5z" />
    <glyph glyph-name="afii10103" unicode="&#x456;" horiz-adv-x="286" 
d="M78 0v524h130v-524h-130zM78 595v110h130v-110h-130z" />
    <glyph glyph-name="afii10104" unicode="&#x457;" horiz-adv-x="286" 
d="M-23 595v110h130v-110h-130zM180 595v110h130v-110h-130zM78 0v524h130v-524h-130z" />
    <glyph glyph-name="afii10105" unicode="&#x458;" horiz-adv-x="287" 
d="M79 524h130v-504q0 -35 -9.5 -68.5t-31 -61.5t-56.5 -45t-82 -17q-23 0 -37 2v116h22q64 0 64 76v502zM79 595v110h130v-110h-130z" />
    <glyph glyph-name="afii10106" unicode="&#x459;" horiz-adv-x="858" 
d="M32 0v118h13q82 0 82 98v308h404v-162h133q77 0 121.5 -49t44.5 -132t-44.5 -132t-121.5 -49h-263v411h-152v-194q0 -67 -22.5 -114.5t-64.5 -75t-98 -27.5h-32zM531 113h100q26 0 42.5 11.5t21.5 27.5t5 29q0 68 -69 68h-100v-136z" />
    <glyph glyph-name="afii10107" unicode="&#x45a;" horiz-adv-x="855" 
d="M528 362h133q77 0 121.5 -49t44.5 -132t-44.5 -132t-121.5 -49h-263v206h-190v-206h-130v524h130v-205h190v205h130v-162zM528 113h100q26 0 42.5 11.5t21.5 27.5t5 29q0 68 -69 68h-100v-136z" />
    <glyph glyph-name="afii10108" unicode="&#x45b;" horiz-adv-x="602" 
d="M220 269v-269h-130v531h-78v92h78v82h130v-82h189v-92h-189v-138q60 49 138 49q85 0 133.5 -54t48.5 -149v-239h-130v231q0 45 -23 69t-58 24q-25 0 -55 -14t-54 -41z" />
    <glyph glyph-name="afii10109" unicode="&#x45c;" horiz-adv-x="560" 
d="M218 590l71 140h117v-45l-84 -95h-104zM78 0v524h130v-206h55l142 206h111v-61l-136 -197l143 -205v-61h-119l-142 205h-54v-205h-130z" />
    <glyph glyph-name="afii10110" unicode="&#x45e;" horiz-adv-x="515" 
d="M149 -160v47l49 113l-180 463v61h120l124 -347l117 347h118v-61l-242 -623h-106zM260 571q-74 0 -119 36.5t-45 100.5v12h111v-11q0 -20 13 -32t40 -12q55 0 55 44v11h109v-12q0 -64 -45 -100.5t-119 -36.5z" />
    <glyph glyph-name="afii10193" unicode="&#x45f;" horiz-adv-x="601" 
d="M237 -124v124h-159v524h130v-411h185v411h130v-524h-159v-124h-127z" />
    <glyph glyph-name="afii10050" unicode="&#x490;" horiz-adv-x="556" 
d="M88 0v700h300v130h130v-254h-288v-576h-142z" />
    <glyph glyph-name="afii10098" unicode="&#x491;" horiz-adv-x="469" 
d="M78 0v524h225v127h128v-240h-223v-411h-130z" />
    <glyph glyph-name="uni1E61" unicode="&#x1e61;" horiz-adv-x="559" 
d="M284 -12q-51 0 -94 13.5t-74 38.5t-48.5 61t-18.5 79h129q3 -25 22.5 -43t47 -24.5t52.5 -6.5q34 0 55.5 12.5t21.5 31.5q0 28 -35 36l-145 37q-69 18 -103 53.5t-34 91.5q0 77 57 122.5t156 45.5q101 0 159.5 -47.5t61.5 -132.5h-130q-2 30 -28.5 46t-72.5 16
q-39 0 -58 -12.5t-19 -29.5q0 -11 8.5 -20.5t36.5 -16.5l149 -37q123 -30 123 -142q0 -79 -60 -125.5t-159 -46.5zM214 595v110h130v-110h-130z" />
    <glyph glyph-name="uni1E63" unicode="&#x1e63;" horiz-adv-x="559" 
d="M284 -12q-51 0 -94 13.5t-74 38.5t-48.5 61t-18.5 79h129q3 -25 22.5 -43t47 -24.5t52.5 -6.5q34 0 55.5 12.5t21.5 31.5q0 28 -35 36l-145 37q-69 18 -103 53.5t-34 91.5q0 77 57 122.5t156 45.5q101 0 159.5 -47.5t61.5 -132.5h-130q-2 30 -28.5 46t-72.5 16
q-39 0 -58 -12.5t-19 -29.5q0 -11 8.5 -20.5t36.5 -16.5l149 -37q123 -30 123 -142q0 -79 -60 -125.5t-159 -46.5zM206 -182v110h130v-110h-130z" />
    <glyph glyph-name="endash" unicode="&#x2013;" horiz-adv-x="605" 
d="M58 259v108h489v-108h-489z" />
    <glyph glyph-name="emdash" unicode="&#x2014;" horiz-adv-x="856" 
d="M58 259v108h740v-108h-740z" />
    <glyph glyph-name="quoteleft" unicode="&#x2018;" horiz-adv-x="260" 
d="M228 705l-50 -262h-128v55l86 207h92z" />
    <glyph glyph-name="quoteright" unicode="&#x2019;" horiz-adv-x="260" 
d="M32 443l50 262h128v-55l-86 -207h-92z" />
    <glyph glyph-name="quotesinglbase" unicode="&#x201a;" horiz-adv-x="260" 
d="M32 -119l50 262h128v-55l-86 -207h-92z" />
    <glyph glyph-name="quotedblleft" unicode="&#x201c;" horiz-adv-x="464" 
d="M228 705l-50 -262h-128v55l86 207h92zM432 705l-50 -262h-128v55l86 207h92z" />
    <glyph glyph-name="quotedblright" unicode="&#x201d;" horiz-adv-x="464" 
d="M32 443l50 262h128v-55l-86 -207h-92zM236 443l50 262h128v-55l-86 -207h-92z" />
    <glyph glyph-name="quotedblbase" unicode="&#x201e;" horiz-adv-x="464" 
d="M236 -119l50 262h128v-55l-86 -207h-92zM32 -119l50 262h128v-55l-86 -207h-92z" />
    <glyph glyph-name="dagger" unicode="&#x2020;" horiz-adv-x="547" 
d="M209 -160v571h-181v113h181v181h130v-181h180v-113h-180v-571h-130z" />
    <glyph glyph-name="daggerdbl" unicode="&#x2021;" horiz-adv-x="547" 
d="M209 -160v284h-181v113h181v174h-181v113h181v181h130v-181h180v-113h-180v-174h180v-113h-180v-284h-130z" />
    <glyph glyph-name="bullet" unicode="&#x2022;" horiz-adv-x="454" 
d="M227 150q-79 0 -124 43t-45 123v8q0 80 45 123t124 43t124 -43t45 -123v-8q0 -79 -45 -122.5t-124 -43.5z" />
    <glyph glyph-name="ellipsis" unicode="&#x2026;" horiz-adv-x="765" 
d="M68 0v143h143v-143h-143zM311 0v143h143v-143h-143zM554 0v143h143v-143h-143z" />
    <glyph glyph-name="perthousand" unicode="&#x2030;" horiz-adv-x="1152" 
d="M196 449q20 0 32 13t12 32v83q0 19 -12 32t-32 13t-32 -13t-12 -32v-83q0 -19 12 -32t32 -13zM196 356q-74 0 -116 40t-42 116v47q0 76 42 116t116 40t116 -40t42 -116v-47q0 -76 -42 -116t-116 -40zM596 78q20 0 32 13t12 32v83q0 19 -12 32t-32 13t-32 -13t-12 -32v-83
q0 -19 12 -32t32 -13zM596 -15q-74 0 -116 40t-42 116v47q0 76 42 116t116 40t116 -40t42 -116v-47q0 -76 -42 -116t-116 -40zM956 78q20 0 32 13t12 32v83q0 19 -12 32t-32 13t-31.5 -13t-11.5 -32v-83q0 -19 11.5 -32t31.5 -13zM956 -15q-73 0 -115.5 40t-42.5 116v47
q0 76 42.5 116t115.5 40q74 0 116 -40t42 -116v-47q0 -76 -42 -116t-116 -40zM146 0v47l409 653h92v-47l-409 -653h-92z" />
    <glyph glyph-name="guilsinglleft" unicode="&#x2039;" horiz-adv-x="336" 
d="M164 103l-128 211l128 210h112v-37l-104 -173l104 -174v-37h-112z" />
    <glyph glyph-name="guilsinglright" unicode="&#x203a;" horiz-adv-x="336" 
d="M300 314l-128 -211h-112v37l104 174l-104 173v37h112z" />
    <glyph glyph-name="fraction" unicode="&#x2044;" horiz-adv-x="397" 
d="M-52 0v47l409 653h92v-47l-409 -653h-92z" />
    <glyph glyph-name="uni2084" unicode="&#x2084;" horiz-adv-x="362" 
d="M151 700h71v-53l-97 -151h69v61h97v-61h41v-83h-41v-55h-97v55h-174v81z" />
    <glyph glyph-name="Euro" unicode="&#x20ac;" horiz-adv-x="676" 
d="M371 -15q-111 0 -179.5 56.5t-78.5 164.5h-83v103h84v81h-84v103h85v5q8 101 74.5 159t181.5 58q50 0 94.5 -14.5t79 -44.5t54 -77t19.5 -109v-10h-122v10q0 33 -12.5 63t-44 47t-69.5 17t-67 -14t-42 -37.5t-16 -47.5v-5h156v-103h-157v-81h157v-103h-157
q6 -48 37 -75.5t89 -27.5q59 0 92.5 30.5t33.5 96.5v10h122v-10q0 -62 -18 -109.5t-51 -77t-78.5 -44t-99.5 -14.5z" />
    <glyph glyph-name="uni20B4" unicode="&#x20b4;" horiz-adv-x="695" 
d="M351 -15q-111 0 -176.5 54t-65.5 143q0 24 4 48h-73v93h615v-93h-413q-3 -21 -3 -37q0 -42 30 -66t82 -24q53 0 85 25t32 64h130q0 -47 -18 -86t-51.5 -66t-79 -41t-98.5 -14zM40 470h414q3 21 3 37q0 42 -29 66t-81 24q-53 0 -84 -24.5t-31 -64.5h-130q0 35 12 71.5
t45 70t84 49.5t104 16q111 0 175.5 -54t64.5 -143q0 -24 -4 -48h72v-93h-615v93z" />
    <glyph glyph-name="uni20BD" unicode="&#x20bd;" horiz-adv-x="640" 
d="M111 0v103h-83v103h83v75h-83v113h83v306h286q93 0 146.5 -57t53.5 -153t-53 -152.5t-147 -56.5h-156v-75h170v-103h-170v-103h-130zM241 394h140q25 0 46.5 13t30.5 36.5t9 46.5t-9 46.5t-30.5 37t-46.5 13.5h-140v-193z" />
    <glyph glyph-name="afii61352" unicode="&#x2116;" horiz-adv-x="1024" 
d="M88 0v700h119l245 -435v435h130v-700h-120l-244 435v-435h-130zM826 449q20 0 32 13t12 32v83q0 19 -12 32t-32 13t-32 -13t-12 -32v-83q0 -19 12 -32t32 -13zM826 356q-74 0 -116 40t-42 116v47q0 76 42 116t116 40t116 -40t42 -116v-47q0 -76 -42 -116t-116 -40z
M668 196v99h316v-99h-316z" />
    <glyph glyph-name="trademark" unicode="&#x2122;" horiz-adv-x="684" 
d="M317 377v323h73l85 -138l88 138h71v-323h-74v201l-62 -102h-47l-59 100v-199h-75zM99 377v257h-91v66h257v-66h-91v-257h-75z" />
    <glyph glyph-name="uni2126" unicode="&#x2126;" horiz-adv-x="725" 
d="M67 0v124h81q-31 24 -48 58t-17 103v177q0 118 75.5 185.5t203.5 67.5q63 0 115 -17t89 -50t56.5 -80.5t19.5 -105.5v-177q0 -69 -17.5 -103t-48.5 -58h82v-124h-242v124q39 11 61.5 52t22.5 100v193q0 34 -18 61t-48 41t-72 14q-34 0 -66 -11.5t-51.5 -40.5t-19.5 -64
v-193q0 -35 10.5 -69.5t28 -53t29 -23.5t16.5 -6v-124h-242z" />
    <glyph glyph-name="partialdiff" unicode="&#x2202;" horiz-adv-x="571" 
d="M255 -12q-58 0 -108.5 19.5t-76.5 59.5t-26 87q0 30 9 124q6 60 32.5 102t71 66t104.5 24q38 0 68 -14t46.5 -31.5t24.5 -30.5l1 42q-2 74 -39.5 113.5t-119.5 39.5q-49 0 -109 -12l8 116q53 14 134 14q57 0 103 -18.5t77 -52t47.5 -80.5t16.5 -102q0 -62 -19 -274
q-8 -90 -75 -141t-170 -51zM265 106q23 0 47 8t40 28.5t18 45.5l9 113q-38 51 -95 51q-29 0 -53 -12.5t-35.5 -32t-13.5 -38.5q-7 -61 -7 -90q0 -32 23.5 -52.5t66.5 -20.5z" />
    <glyph glyph-name="uni2206" unicode="&#x2206;" horiz-adv-x="660" 
d="M18 0v48l242 652h139l243 -652v-48h-624zM195 124h262l-130 386z" />
    <glyph glyph-name="product" unicode="&#x220f;" horiz-adv-x="680" 
d="M88 -75v775h504v-775h-130v657h-244v-657h-130z" />
    <glyph glyph-name="summation" unicode="&#x2211;" horiz-adv-x="571" 
d="M48 -75v118l151 271l-151 268v118h462v-118h-317l151 -268l-151 -271h330v-118h-475z" />
    <glyph glyph-name="minus" unicode="&#x2212;" horiz-adv-x="572" 
d="M62 259v108h448v-108h-448z" />
    <glyph glyph-name="radical" unicode="&#x221a;" horiz-adv-x="550" 
d="M242 -75l-153 409h-90v98h169l117 -347l162 712h98v-46l-192 -826h-111z" />
    <glyph glyph-name="infinity" unicode="&#x221e;" horiz-adv-x="906" 
d="M260 126q-57 0 -105.5 26t-72.5 73.5t-24 97.5q0 40 14 75.5t40 62.5t64 42.5t84 15.5q94 0 188 -94l6 -6l6 6q46 46 90.5 70t96.5 24q45 0 83 -15.5t64 -42.5t40 -62.5t14 -75.5t-14 -75.5t-40 -62.5t-64 -42.5t-83 -15.5q-51 0 -97 25t-92 71l-4 4l-4 -4
q-47 -47 -93.5 -72t-96.5 -25zM263 249q16 0 38.5 9.5t71.5 64.5q-28 31 -43.5 44.5t-32.5 21t-34 7.5q-31 0 -53 -20.5t-22 -52.5t22 -53t53 -21zM644 249q31 0 53.5 21t22.5 53t-22.5 52.5t-53.5 20.5q-15 0 -32 -7t-33.5 -22t-43.5 -44q44 -48 65.5 -61t43.5 -13z" />
    <glyph glyph-name="integral" unicode="&#x222b;" horiz-adv-x="314" 
d="M2 -160v113h33q58 0 58 58v527q0 75 45.5 118.5t122.5 43.5h51v-113h-33q-59 0 -59 -58v-527q0 -75 -45 -118.5t-122 -43.5h-51z" />
    <glyph glyph-name="approxequal" unicode="&#x2248;" horiz-adv-x="536" 
d="M386 275l88 -51q-54 -116 -135 -116q-33 0 -70 24l-27 17q-23 15 -39 15q-10 0 -21.5 -7.5t-31.5 -41.5l-88 51q54 116 135 116q33 0 70 -24l27 -17q23 -15 39 -15q10 0 21.5 7.5t31.5 41.5zM386 529l88 -51q-54 -116 -135 -116q-33 0 -70 24l-27 17q-23 15 -39 15
q-10 0 -21.5 -7.5t-31.5 -41.5l-88 51q54 116 135 116q33 0 70 -24l27 -17q23 -15 39 -15q10 0 21.5 7.5t31.5 41.5z" />
    <glyph glyph-name="notequal" unicode="&#x2260;" horiz-adv-x="573" 
d="M62 259h136l68 108h-204v108h273l90 141h86v-47l-60 -94h60v-108h-129l-68 -108h197v-108h-267l-96 -151h-86v47l66 104h-66v108z" />
    <glyph glyph-name="lessequal" unicode="&#x2264;" horiz-adv-x="532" 
d="M408 190l-346 155v106l346 156h62v-90l-266 -119l266 -118v-90h-62zM62 0v109h408v-109h-408z" />
    <glyph glyph-name="greaterequal" unicode="&#x2265;" horiz-adv-x="532" 
d="M62 190v90l266 118l-266 119v90h62l346 -156v-106l-346 -155h-62zM62 0v109h408v-109h-408z" />
    <glyph glyph-name="lozenge" unicode="&#x25ca;" horiz-adv-x="560" 
d="M231 0l-183 350l183 350h99l182 -350l-183 -350h-98zM280 153l95 197l-95 197l-94 -196z" />
    <glyph glyph-name="uniF64E" unicode="&#xf64e;" horiz-adv-x="586" 
d="M320 -12q-94 0 -152.5 46.5t-67.5 124.5h-69v82h67v42h-67v82h68q10 81 68 126t153 45t150 -46t64 -132h-119q-2 15 -12.5 30.5t-33 26t-50.5 10.5q-39 0 -65.5 -17t-32.5 -43h140v-82h-143v-42h143v-82h-137q7 -26 32 -43t63 -17q18 0 39 6t37.5 23t19.5 41h120
q-9 -85 -66 -133t-149 -48z" />
    <glyph glyph-name="uniF653" unicode="&#xf653;" horiz-adv-x="559" 
d="M344 616v-87q49 -11 82.5 -36t50 -59.5t17.5 -77.5h-130q-2 30 -28.5 46t-72.5 16q-39 0 -58 -12t-19 -29q0 -11 8.5 -21t36.5 -17l149 -37q123 -30 123 -142q0 -66 -42.5 -110t-116.5 -57v-82h-113v81q-82 13 -131 63t-51 126h129q2 -16 14 -34t41 -29.5t67 -11.5
q34 0 55.5 11.5t21.5 31.5q0 29 -35 37l-145 37q-69 18 -103 53.5t-34 91.5q0 68 45 112t126 53v83h113z" />
    <glyph glyph-name="uniF6C3" unicode="&#xf6c3;" horiz-adv-x="827" 
d="M308 -261l36 194h128v-55l-72 -139h-92z" />
    <glyph glyph-name="uniF721" unicode="&#xf721;" horiz-adv-x="582" 
d="M294 -12q-93 0 -145 37t-52 102q0 28 4 44h-63v72h506v-72h-322l-2 -26q0 -49 77 -49q38 0 60 15t20 33h126q1 -68 -58.5 -112t-150.5 -44zM38 282v72h332l2 25q0 18 -18.5 33.5t-56.5 15.5q-40 0 -60.5 -15t-18.5 -33h-127q-1 69 57.5 112.5t148.5 43.5
q93 0 145.5 -38.5t52.5 -103.5q0 -27 -5 -40h54v-72h-506z" />
    <glyph glyph-name="uniF722" unicode="&#xf722;" horiz-adv-x="576" 
d="M118 0v64h-87v87h87v42h-87v98h87v233h278q66 0 108.5 -43t42.5 -123q0 -50 -17.5 -86t-51.5 -57.5t-82 -21.5h-148v-42h115v-87h-115v-64h-130zM356 411h-108v-120h108q61 0 61 60q0 26 -15 43t-46 17z" />
    <glyph glyph-name="uniF725" unicode="&#xf725;" horiz-adv-x="584" 
d="M43 0v113h69v89h-69v101h69v39q0 89 58 141.5t153 52.5t151 -52t56 -144v-6h-130v6q0 36 -20 57t-57 21q-41 0 -61 -20t-20 -54v-41h122v-101h-122v-89h288v-113h-487z" />
    <glyph glyph-name="uniF727" unicode="&#xf727;" horiz-adv-x="542" 
d="M209 0v64h-129v87h129v42h-129v87h79l-120 183v61h117l117 -194h4l116 194h110v-61l-119 -183h80v-87h-125v-42h125v-87h-125v-64h-130z" />
    <glyph glyph-name="glyph277" horiz-adv-x="769" 
d="M385 742q-74 0 -119.5 35t-45.5 98v13h111v-12q0 -20 13.5 -32t40.5 -12t40.5 12t13.5 32v12h110v-13q0 -64 -45 -98.5t-119 -34.5z" />
    <glyph glyph-name="zero.oldstyle" horiz-adv-x="615" 
d="M307 106q53 0 81.5 32t28.5 82v84q0 50 -28.5 82t-81.5 32q-52 0 -80.5 -32t-28.5 -82v-84q0 -50 28.5 -82t80.5 -32zM307 -12q-111 0 -175 62t-64 177v70q0 115 64 177t175 62q112 0 176 -62t64 -177v-70q0 -115 -64 -177t-176 -62z" />
    <glyph glyph-name="one.oldstyle" horiz-adv-x="330" 
d="M112 0v348h-69v69l166 107h33v-524h-130z" />
    <glyph glyph-name="two.oldstyle" horiz-adv-x="561" 
d="M49 0v104l265 179q35 23 43.5 38t8.5 33q0 17 -11.5 33t-32 23.5t-41.5 7.5q-48 0 -73.5 -24t-25.5 -65h-130v6q0 43 14 80t42.5 64t71.5 42t98 15q40 0 79.5 -10.5t70 -34t49.5 -59.5t19 -82q0 -47 -28.5 -89.5t-97.5 -81.5l-108 -61h240v-118h-453z" />
    <glyph glyph-name="three.oldstyle" horiz-adv-x="591" 
d="M294 -172q-111 0 -177 59.5t-69 171.5h125q2 -39 19.5 -66t46 -37t55.5 -10q54 0 81.5 26.5t27.5 69.5q0 42 -30.5 65t-83.5 23h-44v118h44q30 0 52.5 11.5t31.5 32t9 41.5q0 40 -24.5 62.5t-68.5 22.5q-23 0 -47 -9.5t-40 -33.5t-20 -55h-124q9 103 69.5 159.5
t160.5 56.5q52 0 94 -15t70 -41.5t42.5 -62t14.5 -75.5q0 -51 -20 -85.5t-60 -61.5q45 -18 74.5 -59.5t29.5 -97.5q0 -98 -62 -154t-177 -56z" />
    <glyph glyph-name="four.oldstyle" horiz-adv-x="555" 
d="M328 -160v160h-302v104l233 420h115v-47l-199 -359h153v143h130v-143h79v-118h-79v-160h-130z" />
    <glyph glyph-name="five.oldstyle" horiz-adv-x="591" 
d="M291 -172q-62 0 -117 23t-86.5 70.5t-37.5 105.5h127q6 -35 38 -58t79 -23q56 0 82.5 35.5t26.5 94.5q0 55 -29 89t-77 34q-62 0 -100 -50h-125l37 375h385v-118h-284l-14 -133q30 17 57 24.5t68 7.5t79 -12.5t68 -40t47.5 -72t17.5 -104.5q0 -59 -17.5 -106t-49.5 -78.5
t-77 -47.5t-98 -16z" />
    <glyph glyph-name="six.oldstyle" horiz-adv-x="588" 
d="M295 -12q-111 0 -178 63t-67 170q0 35 12.5 83t55.5 117l179 279h119v-47l-136 -206q30 5 59 5q41 0 78 -14t64.5 -41.5t43 -68.5t15.5 -93q0 -116 -66.5 -181.5t-178.5 -65.5zM295 106q55 0 85 33t30 88q0 56 -29.5 88t-86.5 32q-30 0 -57 -11t-42 -40.5t-15 -68.5
q0 -55 30 -88t85 -33z" />
    <glyph glyph-name="seven.oldstyle" horiz-adv-x="544" 
d="M152 -160v47l211 519h-207v-85h-120v203h458v-109l-228 -575h-114z" />
    <glyph glyph-name="eight.oldstyle" horiz-adv-x="618" 
d="M309 -12q-117 0 -184 56.5t-67 155.5q0 27 10.5 61t37 64t57.5 43q-53 37 -70 74.5t-17 77.5q0 39 15.5 74.5t45.5 62.5t74 42.5t98 15.5t98 -15.5t74 -42.5t45.5 -62.5t15.5 -74.5q0 -40 -16.5 -77.5t-69.5 -74.5q31 -13 57 -43t36.5 -64t10.5 -61q0 -99 -67 -155.5
t-184 -56.5zM309 104q58 0 89 31t31 77q0 23 -11 47.5t-40.5 40.5t-68.5 16q-25 0 -53.5 -9t-47.5 -34.5t-19 -60.5q0 -46 31 -77t89 -31zM309 415q46 0 75 24t29 71q0 40 -26.5 66t-77.5 26q-25 0 -50 -9t-39.5 -31.5t-14.5 -51.5q0 -35 17 -57.5t41.5 -30t45.5 -7.5z" />
    <glyph glyph-name="nine.oldstyle" horiz-adv-x="597" 
d="M293 536q111 0 178 -63t67 -170q0 -101 -68 -200l-179 -263h-119v47l136 190q-30 -5 -59 -5q-41 0 -78 14t-64.5 41.5t-43 68.5t-15.5 93q0 116 66.5 181.5t178.5 65.5zM293 418q-55 0 -85 -33t-30 -88q0 -56 29.5 -88t86.5 -32q30 0 57 11t42 40.5t15 68.5q0 55 -30 88
t-85 33z" />
    <glyph glyph-name="zero.oldstyle.tnum" 
d="M306 -12q-111 0 -175 62t-64 177v70q0 115 64 177t175 62q112 0 176 -62t64 -177v-70q0 -115 -64 -177t-176 -62zM197 220l1 -22l164 207q-24 13 -56 13q-52 0 -80.5 -32t-28.5 -82v-84zM306 106q53 0 81.5 32t28.5 82v84l-1 20l-164 -207q24 -11 55 -11z" />
    <glyph glyph-name="one.oldstyle.tnum" 
d="M101 0v118h148v230h-99v69l196 107h33v-406h148v-118h-426z" />
    <glyph glyph-name="two.oldstyle.tnum" 
d="M75 0v104l265 179q35 23 43.5 38t8.5 33q0 17 -11.5 33t-32 23.5t-41.5 7.5q-48 0 -73.5 -24t-25.5 -65h-130v6q0 43 14 80t42.5 64t71.5 42t98 15q40 0 79.5 -10.5t70 -34t49.5 -59.5t19 -82q0 -47 -28.5 -89.5t-97.5 -81.5l-108 -61h240v-118h-453z" />
    <glyph glyph-name="three.oldstyle.tnum" 
d="M314 -172q-111 0 -177 59.5t-69 171.5h125q2 -39 19.5 -66t46 -37t55.5 -10q54 0 81.5 26.5t27.5 69.5q0 42 -30.5 65t-83.5 23h-44v118h44q30 0 52.5 11.5t31.5 32t9 41.5q0 40 -24.5 62.5t-68.5 22.5q-23 0 -47 -9.5t-40 -33.5t-20 -55h-124q9 103 69.5 159.5
t160.5 56.5q52 0 94 -15t70 -41.5t42.5 -62t14.5 -75.5q0 -51 -20 -85.5t-60 -61.5q45 -18 74.5 -59.5t29.5 -97.5q0 -98 -62 -154t-177 -56z" />
    <glyph glyph-name="four.oldstyle.tnum" 
d="M355 -160v160h-302v104l233 420h115v-47l-199 -359h153v143h130v-143h79v-118h-79v-160h-130z" />
    <glyph glyph-name="five.oldstyle.tnum" 
d="M309 -172q-62 0 -117 23t-86.5 70.5t-37.5 105.5h127q6 -35 38 -58t79 -23q56 0 82.5 35.5t26.5 94.5q0 55 -29 89t-77 34q-62 0 -100 -50h-125l37 375h385v-118h-284l-14 -133q30 17 57 24.5t68 7.5t79 -12.5t68 -40t47.5 -72t17.5 -104.5q0 -59 -17.5 -106t-49.5 -78.5
t-77 -47.5t-98 -16z" />
    <glyph glyph-name="six.oldstyle.tnum" 
d="M315 -12q-111 0 -178 63t-67 170q0 35 12.5 83t55.5 117l179 279h119v-47l-136 -206q30 5 59 5q41 0 78 -14t64.5 -41.5t43 -68.5t15.5 -93q0 -116 -66.5 -181.5t-178.5 -65.5zM315 106q55 0 85 33t30 88q0 56 -29.5 88t-86.5 32q-30 0 -57 -11t-42 -40.5t-15 -68.5
q0 -55 30 -88t85 -33z" />
    <glyph glyph-name="seven.oldstyle.tnum" 
d="M200 -160v47l211 519h-207v-85h-120v203h458v-109l-228 -575h-114z" />
    <glyph glyph-name="eight.oldstyle.tnum" 
d="M310 -12q-117 0 -184 56.5t-67 155.5q0 27 10.5 61t37 64t57.5 43q-53 37 -70 74.5t-17 77.5q0 39 15.5 74.5t45.5 62.5t74 42.5t98 15.5t98 -15.5t74 -42.5t45.5 -62.5t15.5 -74.5q0 -40 -16.5 -77.5t-69.5 -74.5q31 -13 57 -43t36.5 -64t10.5 -61q0 -99 -67 -155.5
t-184 -56.5zM310 104q58 0 89 31t31 77q0 23 -11 47.5t-40.5 40.5t-68.5 16q-25 0 -53.5 -9t-47.5 -34.5t-19 -60.5q0 -46 31 -77t89 -31zM310 415q46 0 75 24t29 71q0 40 -26.5 66t-77.5 26q-25 0 -50 -9t-39.5 -31.5t-14.5 -51.5q0 -35 17 -57.5t41.5 -30t45.5 -7.5z" />
    <glyph glyph-name="nine.oldstyle.tnum" 
d="M304 536q111 0 178 -63t67 -170q0 -101 -68 -200l-179 -263h-119v47l136 190q-30 -5 -59 -5q-41 0 -78 14t-64.5 41.5t-43 68.5t-15.5 93q0 116 66.5 181.5t178.5 65.5zM304 418q-55 0 -85 -33t-30 -88q0 -56 29.5 -88t86.5 -32q30 0 57 11t42 40.5t15 68.5q0 55 -30 88
t-85 33z" />
    <glyph glyph-name="uniF653.tnum" 
d="M378 616v-87q49 -11 82.5 -36t50 -59.5t17.5 -77.5h-130q-2 30 -28.5 46t-72.5 16q-39 0 -58 -12t-19 -29q0 -11 8.5 -21t36.5 -17l149 -37q123 -30 123 -142q0 -66 -42.5 -110t-116.5 -57v-82h-113v81q-82 13 -131 63t-51 126h129q2 -16 14 -34t41 -29.5t67 -11.5
q34 0 55.5 11.5t21.5 31.5q0 29 -35 37l-145 37q-69 18 -103 53.5t-34 91.5q0 68 45 112t126 53v83h113z" />
    <glyph glyph-name="uniF64E.tnum" 
d="M339 -12q-94 0 -152.5 46.5t-67.5 124.5h-69v82h67v42h-67v82h68q10 81 68 126t153 45t150 -46t64 -132h-119q-2 15 -12.5 30.5t-33 26t-50.5 10.5q-39 0 -65.5 -17t-32.5 -43h140v-82h-143v-42h143v-82h-137q7 -26 32 -43t63 -17q18 0 39 6t37.5 23t19.5 41h120
q-9 -85 -66 -133t-149 -48z" />
    <glyph glyph-name="uniF725.tnum" 
d="M64 0v113h69v89h-69v101h69v39q0 89 58 141.5t153 52.5t151 -52t56 -144v-6h-130v6q0 36 -20 57t-57 21q-41 0 -61 -20t-20 -54v-41h122v-101h-122v-89h288v-113h-487z" />
    <glyph glyph-name="uniF727.tnum" 
d="M247 0v64h-129v87h129v42h-129v87h79l-120 183v61h117l117 -194h4l116 194h110v-61l-119 -183h80v-87h-125v-42h125v-87h-125v-64h-130z" />
    <glyph glyph-name="uniF722.tnum" 
d="M124 0v64h-87v87h87v42h-87v98h87v233h278q66 0 108.5 -43t42.5 -123q0 -50 -17.5 -86t-51.5 -57.5t-82 -21.5h-148v-42h115v-87h-115v-64h-130zM362 411h-108v-120h108q61 0 61 60q0 26 -15 43t-46 17z" />
    <glyph glyph-name="uniF721.tnum" 
d="M314 -12q-93 0 -145 37t-52 102q0 28 4 44h-63v72h506v-72h-322l-2 -26q0 -49 77 -49q38 0 60 15t20 33h126q1 -68 -58.5 -112t-150.5 -44zM58 282v72h332l2 25q0 18 -18.5 33.5t-56.5 15.5q-40 0 -60.5 -15t-18.5 -33h-127q-1 69 57.5 112.5t148.5 43.5
q93 0 145.5 -38.5t52.5 -103.5q0 -27 -5 -40h54v-72h-506z" />
    <glyph glyph-name="zero.tnum" 
d="M309 -15q-111 0 -175 62t-64 177v252q0 115 64 177t175 62q112 0 176 -62t64 -177v-252q0 -115 -64 -177t-176 -62zM200 483v-234l182 325q-30 23 -73 23q-52 0 -80.5 -32t-28.5 -82zM309 103q53 0 81.5 32t28.5 82v231l-182 -322q26 -23 72 -23z" />
    <glyph glyph-name="one.tnum" 
d="M101 0v118h148v406h-99v69l196 107h33v-582h148v-118h-426z" />
    <glyph glyph-name="two.tnum" 
d="M73 0v106l211 213q58 59 80.5 86.5t29 49t6.5 41.5q0 30 -12.5 54.5t-35 35.5t-49.5 11q-28 0 -52.5 -11.5t-37.5 -42t-14 -70.5h-124q0 69 28.5 127t83 86.5t116.5 28.5q41 0 82 -12t73 -39t52 -68.5t20 -94.5q0 -54 -20.5 -98t-54.5 -81.5t-73 -75.5l-133 -128h280
v-118h-456z" />
    <glyph glyph-name="three.tnum" 
d="M309 -15q-54 0 -99 16.5t-76.5 48t-48.5 77.5t-18 103h125q2 -56 33.5 -91.5t87.5 -35.5q57 0 84 30.5t27 78.5q0 44 -30 67.5t-84 23.5h-44v118h35q35 0 60 12t34.5 33t9.5 43q0 24 -10 44t-30.5 32t-52.5 12q-34 0 -56.5 -13.5t-36 -40t-14.5 -65.5h-124
q0 112 61.5 174.5t168.5 62.5q52 0 94 -15t70 -41.5t42.5 -62t14.5 -75.5q0 -96 -82 -153q31 -13 57 -42t36.5 -63t10.5 -62q0 -100 -64.5 -158t-180.5 -58z" />
    <glyph glyph-name="four.tnum" 
d="M351 0v129h-302v100l232 471h114v-47l-199 -406h155v164h130v-164h79v-118h-79v-129h-130z" />
    <glyph glyph-name="five.tnum" 
d="M304 -15q-37 0 -76 9.5t-77.5 36.5t-60.5 71.5t-27 93.5h127q6 -40 38 -66.5t79 -26.5q56 0 82.5 37.5t26.5 99.5q0 42 -16.5 74t-42 44t-47.5 12q-67 0 -100 -53h-125l37 383h385v-118h-284l-14 -138q30 17 57 24.5t68 7.5t79 -13t68 -41t47.5 -74t17.5 -108
q0 -61 -17.5 -109.5t-49.5 -80.5t-77 -48.5t-98 -16.5z" />
    <glyph glyph-name="six.tnum" 
d="M315 -15q-111 0 -178 63t-67 170q0 35 12.5 83t55.5 117l179 282h119v-47l-136 -209q30 5 59 5q41 0 78 -14t64.5 -41.5t43 -68.5t15.5 -93q0 -116 -66.5 -181.5t-178.5 -65.5zM315 103q55 0 85 33t30 88q0 56 -29.5 88t-86.5 32q-30 0 -57 -11t-42 -40.5t-15 -68.5
q0 -55 30 -88t85 -33z" />
    <glyph glyph-name="seven.tnum" 
d="M199 0v47l207 535h-204v-85h-120v203h458v-110l-224 -590h-117z" />
    <glyph glyph-name="eight.tnum" 
d="M310 -15q-117 0 -184 57t-67 156q0 42 18 80t42.5 59.5t44.5 29.5q-53 37 -70 75t-17 78q0 39 15.5 74.5t45.5 62.5t74 42.5t98 15.5t98 -15.5t74 -42.5t45.5 -62.5t15.5 -74.5q0 -40 -17 -78t-69 -75q31 -13 57 -43t36.5 -64.5t10.5 -61.5q0 -99 -67 -156t-184 -57z
M310 101q58 0 89 31.5t31 77.5q0 49 -33 77t-87 28t-87 -28t-33 -77q0 -46 31 -77.5t89 -31.5zM310 414q33 0 58.5 13.5t35.5 36.5t10 46q0 40 -26.5 66t-77.5 26q-25 0 -50 -9t-39.5 -31.5t-14.5 -51.5q0 -23 10 -46t35.5 -36.5t58.5 -13.5z" />
    <glyph glyph-name="nine.tnum" 
d="M304 715q111 0 178 -63t67 -170q0 -35 -12.5 -83t-55.5 -117l-179 -282h-119v47l136 209q-30 -5 -59 -5q-41 0 -78 14t-64.5 41.5t-43 68.5t-15.5 93q0 116 66.5 181.5t178.5 65.5zM304 597q-55 0 -85 -33t-30 -88q0 -56 29.5 -88t86.5 -32q30 0 57 11t42 40.5t15 68.5
q0 55 -30 88t-85 33z" />
    <glyph glyph-name="dollar.tnum" 
d="M57 227h130q0 -42 16 -70t45 -41t67 -13q49 0 76.5 24t27.5 61q0 17 -8.5 33t-26 26.5t-53.5 26.5l-81 36q-70 31 -105 56.5t-52.5 60.5t-17.5 85q0 78 49 132t127 67v92h130v-95q50 -11 88 -43.5t59.5 -79t21.5 -106.5h-130q0 32 -10.5 60t-38.5 43t-65 15
q-43 0 -70.5 -22t-27.5 -57q0 -27 14.5 -44.5t37 -28.5t53.5 -25l66 -29q113 -51 145 -94t32 -99q0 -48 -16.5 -89t-54.5 -73.5t-104 -46.5v-107h-130v106q-62 9 -105.5 42t-66 82.5t-22.5 114.5z" />
    <glyph glyph-name="Euro.tnum" 
d="M356 -15q-111 0 -179.5 56.5t-78.5 164.5h-83v103h84v81h-84v103h85v5q8 101 74.5 159t181.5 58q50 0 94.5 -14.5t79 -44.5t54 -77t19.5 -109v-10h-122v10q0 33 -12.5 63t-44 47t-69.5 17t-67 -14t-42 -37.5t-16 -47.5v-5h156v-103h-157v-81h157v-103h-157
q6 -48 37 -75.5t89 -27.5q59 0 92.5 30.5t33.5 96.5v10h122v-10q0 -62 -18 -109.5t-51 -77t-78.5 -44t-99.5 -14.5z" />
    <glyph glyph-name="sterling.tnum" 
d="M50 0v118h67v176h-67v118h67v109q0 89 60 141.5t161 52.5q48 0 88.5 -13.5t69 -39.5t44 -65.5t15.5 -89.5v-34h-130v34q0 43 -23 66.5t-66 23.5q-45 0 -67 -23t-22 -59v-103h129v-118h-129v-176h308v-118h-505z" />
    <glyph glyph-name="yen.tnum" 
d="M244 0v96h-162v103h162v81h-162v103h114l-167 270v47h119l162 -276l163 276h117v-47l-168 -270h115v-103h-163v-81h163v-103h-163v-96h-130z" />
    <glyph glyph-name="uni20BD.tnum" 
d="M111 0v103h-83v103h83v75h-83v113h83v306h286q93 0 146.5 -57t53.5 -153t-53 -152.5t-147 -56.5h-156v-75h170v-103h-170v-103h-130zM241 394h140q25 0 46.5 13t30.5 36.5t9 46.5t-9 46.5t-30.5 37t-46.5 13.5h-140v-193z" />
    <glyph glyph-name="uni20B4.tnum" 
d="M313 -15q-111 0 -176.5 54t-65.5 143q0 24 4 48h-73v93h615v-93h-413q-3 -21 -3 -37q0 -42 30 -66t82 -24q53 0 85 25t32 64h130q0 -47 -18 -86t-51.5 -66t-79 -41t-98.5 -14zM2 470h414q3 21 3 37q0 42 -29 66t-81 24q-53 0 -84 -24.5t-31 -64.5h-130q0 35 12 71.5
t45 70t84 49.5t104 16q111 0 175.5 -54t64.5 -143q0 -24 -4 -48h72v-93h-615v93z" />
    <glyph glyph-name="a.salt" horiz-adv-x="596" 
d="M518 0h-75l-38 52q-31 -30 -68 -47t-88 -17q-59 0 -100.5 24.5t-63.5 66.5t-22 101v164q0 59 22 101t63.5 66.5t100.5 24.5q39 0 77.5 -13t78.5 -51l38 52h75v-524zM388 161v202q-55 55 -112 55q-23 0 -44 -12.5t-30 -32.5t-9 -39v-144q0 -19 9 -39t30 -32.5t44 -12.5
q57 0 112 55z" />
    <glyph glyph-name="agrave.salt" horiz-adv-x="596" 
d="M518 0h-75l-38 52q-31 -30 -68 -47t-88 -17q-59 0 -100.5 24.5t-63.5 66.5t-22 101v164q0 59 22 101t63.5 66.5t100.5 24.5q39 0 77.5 -13t78.5 -51l38 52h75v-524zM388 161v202q-55 55 -112 55q-23 0 -44 -12.5t-30 -32.5t-9 -39v-144q0 -19 9 -39t30 -32.5t44 -12.5
q57 0 112 55zM269 590l-83 95v45h117l71 -140h-105z" />
    <glyph glyph-name="aacute.salt" horiz-adv-x="596" 
d="M518 0h-75l-38 52q-31 -30 -68 -47t-88 -17q-59 0 -100.5 24.5t-63.5 66.5t-22 101v164q0 59 22 101t63.5 66.5t100.5 24.5q39 0 77.5 -13t78.5 -51l38 52h75v-524zM388 161v202q-55 55 -112 55q-23 0 -44 -12.5t-30 -32.5t-9 -39v-144q0 -19 9 -39t30 -32.5t44 -12.5
q57 0 112 55zM233 590l71 140h117v-45l-84 -95h-104z" />
    <glyph glyph-name="acircumflex.salt" horiz-adv-x="596" 
d="M518 0h-75l-38 52q-31 -30 -68 -47t-88 -17q-59 0 -100.5 24.5t-63.5 66.5t-22 101v164q0 59 22 101t63.5 66.5t100.5 24.5q39 0 77.5 -13t78.5 -51l38 52h75v-524zM388 161v202q-55 55 -112 55q-23 0 -44 -12.5t-30 -32.5t-9 -39v-144q0 -19 9 -39t30 -32.5t44 -12.5
q57 0 112 55zM162 590v41l94 99h103l95 -99v-41h-99l-48 54l-48 -54h-97z" />
    <glyph glyph-name="atilde.salt" horiz-adv-x="596" 
d="M518 0h-75l-38 52q-31 -30 -68 -47t-88 -17q-59 0 -100.5 24.5t-63.5 66.5t-22 101v164q0 59 22 101t63.5 66.5t100.5 24.5q39 0 77.5 -13t78.5 -51l38 52h75v-524zM388 161v202q-55 55 -112 55q-23 0 -44 -12.5t-30 -32.5t-9 -39v-144q0 -19 9 -39t30 -32.5t44 -12.5
q57 0 112 55zM411 729l78 -46q-48 -103 -120 -103q-29 0 -63 21l-24 15q-13 8 -20 11t-16 3t-18.5 -6.5t-27.5 -37.5l-78 46q48 103 120 103q29 0 63 -21l24 -15q13 -8 20 -11t16 -3t18.5 6.5t27.5 37.5z" />
    <glyph glyph-name="adieresis.salt" horiz-adv-x="596" 
d="M518 0h-75l-38 52q-31 -30 -68 -47t-88 -17q-59 0 -100.5 24.5t-63.5 66.5t-22 101v164q0 59 22 101t63.5 66.5t100.5 24.5q39 0 77.5 -13t78.5 -51l38 52h75v-524zM388 161v202q-55 55 -112 55q-23 0 -44 -12.5t-30 -32.5t-9 -39v-144q0 -19 9 -39t30 -32.5t44 -12.5
q57 0 112 55zM136 595v110h130v-110h-130zM339 595v110h130v-110h-130z" />
    <glyph glyph-name="aring.salt" horiz-adv-x="596" 
d="M518 0h-75l-38 52q-31 -30 -68 -47t-88 -17q-59 0 -100.5 24.5t-63.5 66.5t-22 101v164q0 59 22 101t63.5 66.5t100.5 24.5q39 0 77.5 -13t78.5 -51l38 52h75v-524zM388 161v202q-55 55 -112 55q-23 0 -44 -12.5t-30 -32.5t-9 -39v-144q0 -19 9 -39t30 -32.5t44 -12.5
q57 0 112 55zM299 635q12 0 23 9.5t11 23.5t-11 23.5t-23 9.5t-23 -9.5t-11 -23.5t11 -23.5t23 -9.5zM299 565q-32 0 -60 17.5t-39 41.5t-11 44t11 44t39 41.5t60 17.5t60 -17.5t39 -41.5t11 -44t-11 -44t-39 -41.5t-60 -17.5z" />
    <glyph glyph-name="amacron.salt" horiz-adv-x="596" 
d="M518 0h-75l-38 52q-31 -30 -68 -47t-88 -17q-59 0 -100.5 24.5t-63.5 66.5t-22 101v164q0 59 22 101t63.5 66.5t100.5 24.5q39 0 77.5 -13t78.5 -51l38 52h75v-524zM388 161v202q-55 55 -112 55q-23 0 -44 -12.5t-30 -32.5t-9 -39v-144q0 -19 9 -39t30 -32.5t44 -12.5
q57 0 112 55zM147 604v96h322v-96h-322z" />
    <glyph glyph-name="aogonek.salt" horiz-adv-x="596" 
d="M500 -160q-48 0 -76.5 20t-28.5 53q0 40 48 87l-38 52q-31 -30 -68 -47t-88 -17q-59 0 -100.5 24.5t-63.5 66.5t-22 101v164q0 59 22 101t63.5 66.5t100.5 24.5q39 0 77.5 -13t78.5 -51l38 52h75v-524q-37 -30 -37 -56t45 -26h31v-78h-57zM388 161v202q-55 55 -112 55
q-23 0 -44 -12.5t-30 -32.5t-9 -39v-144q0 -19 9 -39t30 -32.5t44 -12.5q57 0 112 55z" />
    <glyph glyph-name="t.salt" horiz-adv-x="370" 
d="M120 0v411h-90v113h90v181h130v-181h90v-113h-90v-411h-130z" />
    <glyph glyph-name="tcaron.salt" horiz-adv-x="535" 
d="M120 0v411h-90v113h90v181h130v-181h90v-113h-90v-411h-130zM399 511l36 194h128v-55l-72 -139h-92z" />
    <glyph glyph-name="J.salt" horiz-adv-x="573" 
d="M263 -15q-82 0 -135.5 25t-81.5 74t-28 125v31h142v-31q0 -94 103 -94q30 0 53.5 12t36 33t12.5 54v362h-206v124h348v-491q0 -73 -28.5 -122t-82.5 -75.5t-133 -26.5z" />
    <glyph glyph-name="ampersand.salt" horiz-adv-x="645" 
d="M368 215v113h265v-113h-68q0 -51 -19.5 -94t-54.5 -72.5t-83 -45t-103 -15.5q-56 0 -103.5 15t-82 43.5t-53 70.5t-18.5 92q0 61 28.5 108t73.5 68q-34 23 -50 55.5t-16 81.5q0 83 61 134t158 51q101 0 157.5 -55t56.5 -151h-130q0 28 -10 49t-30.5 30t-42.5 9
q-41 0 -62.5 -21.5t-21.5 -55.5t22 -54t64 -20h8v-113h-25q-52 0 -81.5 -28.5t-29.5 -80.5q0 -21 10 -47t40 -44.5t78 -18.5q63 0 96 29.5t33 71.5v8h-67z" />
    <glyph glyph-name="ampersand.ss05" horiz-adv-x="620" 
d="M275 116h118v201h-118q-27 0 -49 -14t-31 -38.5t-9 -48.5t9 -48t31 -38t49 -14zM283 430h110l55 90h75v-90h69v-113h-69v-317h-236q-121 0 -180 49.5t-59 159.5q0 28 10.5 62t37 62t58.5 40q-38 21 -58.5 58.5t-20.5 87.5q0 89 55.5 135t152.5 46h99v-113h-99
q-21 0 -38.5 -11t-24.5 -30t-7 -38q0 -38 20 -58t50 -20z" />
    <glyph glyph-name="at.salt" horiz-adv-x="750" 
d="M448 216q66 0 111 51v63h-102q-40 0 -59 -15.5t-19 -41.5q0 -27 18.5 -42t50.5 -15zM186 439v-333q0 -69 42 -111t111 -42h102v-113h-102q-46 0 -87.5 11.5t-73.5 32.5t-55 50.5t-39 72.5t-16 99v333q0 27 6 61t22.5 68t47.5 65.5t82 51.5t113 20h72q46 0 87.5 -11.5
t73.5 -32.5t55 -50.5t39 -72.5t16 -99v-329h-71l-36 51q-30 -30 -66.5 -46.5t-86.5 -16.5q-51 0 -88.5 22t-57.5 58.5t-20 84.5q0 81 50.5 123.5t149.5 42.5h103v15q0 68 -39.5 108t-108.5 40h-72q-69 0 -111 -42t-42 -111z" />
    <glyph glyph-name="afii10065.salt" horiz-adv-x="596" 
d="M518 0h-75l-38 52q-31 -30 -68 -47t-88 -17q-59 0 -100.5 24.5t-63.5 66.5t-22 101v164q0 59 22 101t63.5 66.5t100.5 24.5q39 0 77.5 -13t78.5 -51l38 52h75v-524zM388 161v202q-55 55 -112 55q-23 0 -44 -12.5t-30 -32.5t-9 -39v-144q0 -19 9 -39t30 -32.5t44 -12.5
q57 0 112 55z" />
    <glyph glyph-name="afii10037.salt" horiz-adv-x="597" 
d="M133 0v130h30q19 0 38 12t44 59l-237 452v47h131l173 -346l153 346h124v-47l-200 -448q-37 -83 -63.5 -123.5t-64.5 -61t-115 -20.5h-13z" />
    <glyph glyph-name="afii10062.salt" horiz-adv-x="597" 
d="M133 0v130h30q19 0 38 12t44 59l-237 452v47h131l173 -346l153 346h124v-47l-200 -448q-37 -83 -63.5 -123.5t-64.5 -61t-115 -20.5h-13zM304 742q-74 0 -119.5 35t-45.5 98v13h111v-12q0 -20 13.5 -32t40.5 -12t40.5 12t13.5 32v12h110v-13q0 -64 -45 -98.5t-119 -34.5z
" />
    </font>
</defs>
</svg>
