<svg width="40" height="40" viewBox="0 0 40 40" fill="none" xmlns="http://www.w3.org/2000/svg">
<path d="M38.5731 23.5352H35.453L29.7673 33.4438H36.2037L36.1952 36.7483L38.539 36.7543L38.5475 33.4437H40V31.1H38.5537L38.5731 23.5352ZM36.2099 31.1001H33.8144L36.2207 26.9066L36.2099 31.1001Z" fill="#F9FFFF"/>
<path d="M28.7454 30.8471C29.5316 29.6841 30.0688 28.6581 30.1407 27.4546C30.1407 25.3078 28.394 23.561 26.2471 23.561C24.3907 23.561 22.7839 24.8817 22.4265 26.7012L22.2007 27.8511L24.5005 28.3028L24.7264 27.1529C24.8684 26.4297 25.508 25.9047 26.2471 25.9047C27.0801 25.9047 27.7617 26.5653 27.7956 27.3903C27.7335 28.0401 27.3677 28.6931 26.8253 29.5031C23.8471 33.6979 23.4721 33.9881 22.8097 34.7131L22.8024 36.7046L30.5878 36.7285L30.595 34.3847L26.1666 34.3712C26.7876 33.5713 27.638 32.4295 28.7454 30.8471Z" fill="#F9FFFF"/>
<path d="M18.8281 32.8966C12.6209 32.3374 7.66344 27.3791 7.10406 21.1719H9.49219V18.8281H7.10437C7.66383 12.6212 12.6212 7.66383 18.8281 7.10437V9.49219H21.1719V7.10406C27.3791 7.66344 32.3374 12.6209 32.8966 18.8281H30.5078V21.1719H35.293V20C35.293 11.5674 28.4326 4.70703 20 4.70703C11.5674 4.70703 4.70703 11.5674 4.70703 20C4.70703 28.4326 11.5674 35.293 20 35.293H21.1719V30.5078H18.8281V32.8966Z" fill="#F9FFFF"/>
<path d="M16.1086 25.5485L18.4778 23.1793C18.9388 23.401 19.4552 23.5253 20 23.5253C21.9439 23.5253 23.5254 21.9438 23.5254 19.9999C23.5254 18.4668 22.5413 17.1597 21.1719 16.6755V12.9393H18.8281V16.6755C17.4587 17.1597 16.4746 18.4668 16.4746 19.9999C16.4746 20.5447 16.599 21.061 16.8206 21.5221L14.4514 23.8913L16.1086 25.5485ZM20 18.8183C20.6516 18.8183 21.1817 19.3484 21.1817 20C21.1817 20.6515 20.6516 21.1816 20 21.1816C19.3485 21.1816 18.8184 20.6515 18.8184 20C18.8184 19.3484 19.3485 18.8183 20 18.8183Z" fill="#F9FFFF"/>
<path d="M21.1719 40H20C14.6578 40 9.63531 37.9197 5.85781 34.1422C2.08031 30.3647 0 25.3422 0 20C0 14.6578 2.08031 9.63531 5.85781 5.85781C9.63531 2.08031 14.6578 0 20 0C25.3422 0 30.3647 2.08031 34.1422 5.85781C37.9197 9.63531 40 14.6578 40 20V21.1719H37.6562V20C37.6562 15.2838 35.8197 10.85 32.4848 7.51516C29.15 4.18031 24.7162 2.34375 20 2.34375C15.2838 2.34375 10.85 4.18031 7.51516 7.51516C4.18031 10.85 2.34375 15.2838 2.34375 20C2.34375 24.7162 4.18031 29.15 7.51516 32.4848C10.85 35.8197 15.2838 37.6562 20 37.6562H21.1719V40Z" fill="#F9FFFF"/>
</svg>
