<svg width="10" height="10" viewBox="0 0 10 10" fill="none" xmlns="http://www.w3.org/2000/svg">
<path d="M9.76244 2.56751L9.28115 2.08606C9.11436 1.92779 8.91956 1.84863 8.6972 1.84863C8.47026 1.84863 8.27777 1.92779 8.11944 2.08606L5.00001 5.20557L1.88061 2.08615C1.7223 1.92788 1.52977 1.84872 1.30291 1.84872C1.08044 1.84872 0.885686 1.92788 0.718877 2.08615L0.243897 2.5676C0.081269 2.73012 0 2.92487 0 3.15168C0 3.38272 0.0813589 3.57527 0.243875 3.72929L4.42229 7.90773C4.5764 8.07027 4.76886 8.1516 4.99999 8.1516C5.22678 8.1516 5.42151 8.07029 5.58398 7.90773L9.76242 3.72929C9.92076 3.57093 9.99998 3.3784 9.99998 3.15168C10 2.92909 9.92078 2.73445 9.76244 2.56751Z" fill="#F9FFFF"/>
</svg>
