<svg width="20" height="20" viewBox="0 0 20 20" fill="none" xmlns="http://www.w3.org/2000/svg">
<path d="M10 0C4.48591 0 0 4.48591 0 10C0 15.5141 4.48591 20 10 20C15.5141 20 20 15.5141 20 10C20 4.48591 15.5141 0 10 0ZM10 17.8142C5.69113 17.8142 2.18579 14.3089 2.18579 10C2.18579 5.69135 5.69113 2.18579 10 2.18579C14.3089 2.18579 17.8142 5.69135 17.8142 10C17.8142 14.3089 14.3089 17.8142 10 17.8142Z" fill="#4BB59B"/>
<path d="M10.8656 10.0121V5.82084C10.8656 5.35286 10.4864 4.97363 10.0186 4.97363C9.55062 4.97363 9.17136 5.35286 9.17136 5.82084V10.2827C9.17136 10.296 9.17464 10.3085 9.17528 10.3219C9.16414 10.5522 9.2435 10.7861 9.41944 10.9621L12.5747 14.1171C12.9056 14.448 13.442 14.448 13.7727 14.1171C14.1034 13.7861 14.1036 13.2497 13.7727 12.919L10.8656 10.0121Z" fill="#4BB59B"/>
</svg>
