<svg width="79" height="60" viewBox="0 0 79 60" fill="none" xmlns="http://www.w3.org/2000/svg">
<g clip-path="url(#clip0_293_271)">
<path fill-rule="evenodd" clip-rule="evenodd" d="M22.1568 49.3512C17.7478 47.4678 13.5083 42.4246 12.9283 37.4487C11.5584 25.7018 14.8533 22.2667 21.6951 10.5234C15.8542 18.7073 8.44254 27.1951 9.97236 38.4919C11.6943 46.6064 17.9064 51.3347 22.1568 49.3512Z" fill="#4BB59B"/>
<path fill-rule="evenodd" clip-rule="evenodd" d="M0.0609686 39.7422C2.15625 60.1515 24.4095 65.9822 34.8947 53.3601C33.6074 54.2441 32.0469 54.762 30.3651 54.762C27.4406 54.762 24.8829 53.1964 23.4919 50.8608C18.0002 53.2541 9.64827 48.7626 7.75609 39.1979C5.88071 25.3068 15.8457 15.5084 24.2604 5.29714C22.8066 3.45975 21.7144 2.04975 20.0801 0.162675V0.000488281L20.01 0.0815819L19.9398 0.000488281V0.162675C6.72087 15.4265 -0.760195 29.1628 0.0616991 39.7429L0.0609686 39.7422Z" fill="url(#paint0_linear_293_271)"/>
<path fill-rule="evenodd" clip-rule="evenodd" d="M30.7937 22.5481C30.367 22.5481 29.9542 22.486 29.5546 22.3618C29.155 22.2376 28.7926 22.0418 28.4683 21.7752C28.1439 21.5085 27.8867 21.1666 27.6953 20.7495C27.5046 20.3316 27.4089 19.8523 27.4089 19.3102H29.1411C29.1499 19.5769 29.2142 19.8275 29.3347 20.0627C29.4545 20.298 29.6613 20.4821 29.9542 20.6158C30.2472 20.7495 30.5672 20.8159 30.9135 20.8159C31.4994 20.8159 31.9348 20.6735 32.219 20.3893C32.5032 20.1051 32.6449 19.7274 32.6449 19.2569V18.4708H29.6869V16.8986H32.6449V16.1125C32.6449 15.642 32.5032 15.2643 32.219 14.9801C31.9348 14.6959 31.4994 14.5542 30.9135 14.5542C30.4247 14.5542 30.0098 14.685 29.6679 14.9473C29.326 15.2095 29.1506 15.5807 29.1419 16.0599H27.4097C27.4097 15.6508 27.474 15.249 27.6033 14.8537C27.7318 14.4585 27.9408 14.11 28.2294 13.8076C28.5179 13.5058 28.8796 13.2655 29.315 13.0879C29.7504 12.9104 30.2436 12.8213 30.7944 12.8213C31.9757 12.8213 32.8948 13.1164 33.5523 13.7075C34.2098 14.2985 34.5386 15.1219 34.5386 16.179V19.1904C34.5386 20.2476 34.2098 21.0716 33.5523 21.6619C32.8948 22.253 31.9757 22.5481 30.7944 22.5481H30.7937ZM36.6163 22.348V13.0207H38.5085V16.8584H39.4941L41.7457 13.0207H43.5042V13.6468L41.1459 17.5773L43.7044 21.7211V22.3472H41.8261L39.4941 18.5095H38.5085V22.3472H36.6163V22.348ZM48.4217 20.8159C48.7234 20.8159 49.0171 20.7648 49.3013 20.6625C49.5855 20.5602 49.8141 20.3805 49.9873 20.1234C50.1604 19.8655 50.2474 19.5813 50.2474 19.2708V16.0994C50.2474 15.7881 50.1612 15.504 49.9873 15.2468C49.8141 14.9896 49.5855 14.8092 49.3013 14.7076C49.0171 14.6053 48.7241 14.5542 48.4217 14.5542C48.1199 14.5542 47.8262 14.6053 47.5421 14.7076C47.2579 14.8099 47.0292 14.9896 46.856 15.2468C46.6829 15.5047 46.596 15.7889 46.596 16.0994V19.2708C46.596 19.582 46.6822 19.8662 46.856 20.1234C47.0292 20.3813 47.2579 20.561 47.5421 20.6625C47.8262 20.7648 48.1192 20.8159 48.4217 20.8159ZM48.4217 22.5481C47.2849 22.5481 46.3804 22.2486 45.7098 21.6488C45.0391 21.049 44.7038 20.2256 44.7038 19.1773V16.1929C44.7038 15.1445 45.0391 14.3212 45.7098 13.7214C46.3804 13.1216 47.2842 12.822 48.4217 12.822C48.9813 12.822 49.4919 12.8973 49.9537 13.0485C50.4154 13.1997 50.8092 13.4218 51.1328 13.7148C51.4572 14.0077 51.7056 14.3657 51.8787 14.7873C52.0519 15.2095 52.1381 15.6778 52.1381 16.1929V19.1773C52.1381 19.6923 52.0519 20.1606 51.8787 20.5829C51.7056 21.0052 51.4565 21.3624 51.1328 21.6554C50.8084 21.9483 50.4154 22.1704 49.9537 22.3217C49.4919 22.4729 48.9813 22.5481 48.4217 22.5481Z" fill="#F9FFFF"/>
<path fill-rule="evenodd" clip-rule="evenodd" d="M27.7961 35.605V26.2778H33.659V27.9304H29.6883V35.605H27.7961ZM35.3378 35.605V26.2778H37.23V32.2203L40.8675 26.2778H42.5997V35.605H40.7076V29.6626L37.07 35.605H35.3378ZM44.0784 37.4439V33.9525H44.8112C45.1933 33.455 45.4482 32.9268 45.5775 32.3671C45.7061 31.8075 45.7712 31.1763 45.7712 30.475V26.2778H51.8868V33.9525H52.9395V37.4439H51.2073V35.605H45.8106V37.4439H44.0784ZM46.8363 33.9525H49.9939V27.9296H47.5026V30.4742C47.5026 30.8205 47.4873 31.1895 47.4559 31.5803C47.4252 31.9712 47.3645 32.3511 47.2761 32.7193C47.187 33.0882 47.0409 33.4988 46.8363 33.9518V33.9525ZM54.5512 35.605V26.2778H58.7213C59.5563 26.2778 60.2116 26.5445 60.6865 27.0771C61.1614 27.6104 61.3996 28.3249 61.3996 29.2228C61.3996 30.1199 61.1599 30.8329 60.6799 31.3611C60.2 31.8894 59.5476 32.1538 58.7213 32.1538H56.4426V35.605H54.5504H54.5512ZM56.4434 30.502H58.375C58.5883 30.502 58.7878 30.4421 58.9748 30.3223C59.1611 30.2025 59.2926 30.0381 59.3678 29.8291C59.4438 29.6202 59.4811 29.4142 59.4811 29.2096C59.4811 29.005 59.4438 28.8012 59.3678 28.5967C59.2926 28.3921 59.1611 28.2299 58.9748 28.1101C58.7878 27.9903 58.5883 27.9304 58.375 27.9304H56.4434V30.502ZM66.5969 34.073C66.8986 34.073 67.1923 34.0219 67.4765 33.9196C67.7607 33.8173 67.9893 33.6376 68.1625 33.3805C68.3356 33.1226 68.4226 32.8384 68.4226 32.5279V29.3565C68.4226 29.0452 68.3363 28.761 68.1625 28.5039C67.9893 28.2467 67.7607 28.0663 67.4765 27.9647C67.1923 27.8624 66.8993 27.8113 66.5969 27.8113C66.2951 27.8113 66.0014 27.8624 65.7172 27.9647C65.4331 28.067 65.2044 28.2467 65.0312 28.5039C64.8581 28.7618 64.7712 29.046 64.7712 29.3565V32.5279C64.7712 32.8391 64.8574 33.1233 65.0312 33.3805C65.2044 33.6383 65.4331 33.8181 65.7172 33.9196C66.0014 34.0219 66.2944 34.073 66.5969 34.073ZM66.5969 35.8052C65.4601 35.8052 64.5556 35.5057 63.885 34.9059C63.2143 34.3061 62.879 33.4827 62.879 32.4344V29.45C62.879 28.4016 63.2143 27.5782 63.885 26.9784C64.5556 26.3786 65.4593 26.0791 66.5969 26.0791C67.1565 26.0791 67.6671 26.1544 68.1289 26.3056C68.5906 26.4568 68.9844 26.6789 69.308 26.9719C69.6324 27.2648 69.8808 27.6228 70.0539 28.0443C70.2271 28.4666 70.3133 28.9349 70.3133 29.45V32.4344C70.3133 32.9494 70.2271 33.4177 70.0539 33.84C69.8808 34.2623 69.6316 34.6195 69.308 34.9125C68.9836 35.2054 68.5906 35.4275 68.1289 35.5787C67.6671 35.73 67.1565 35.8052 66.5969 35.8052Z" fill="#F9FFFF"/>
<path fill-rule="evenodd" clip-rule="evenodd" d="M31.1933 48.471C30.0207 48.471 29.117 48.178 28.4814 47.5914C27.8465 47.0055 27.5287 46.1792 27.5287 45.1133V42.1019C27.5287 41.0359 27.8465 40.2097 28.4814 39.6237C29.1163 39.0378 30.0207 38.7441 31.1933 38.7441C31.655 38.7441 32.097 38.8084 32.5193 38.9377C32.9416 39.0663 33.312 39.2643 33.632 39.531C33.9519 39.7976 34.2025 40.1395 34.3844 40.5567C34.5664 40.9746 34.6577 41.4582 34.6577 42.0091V42.142H32.7655V42.0091C32.7655 41.8849 32.7472 41.7336 32.7122 41.5561C32.6771 41.3786 32.5967 41.212 32.4725 41.0564C32.3483 40.9008 32.1679 40.7656 31.9326 40.6502C31.6974 40.5348 31.411 40.4771 31.0735 40.4771C30.5314 40.4771 30.1208 40.61 29.841 40.8767C29.5612 41.1433 29.4217 41.5072 29.4217 41.9696V45.247C29.4217 45.7087 29.5612 46.0732 29.841 46.3399C30.1208 46.6066 30.5314 46.7395 31.0735 46.7395C31.2868 46.7395 31.5264 46.7015 31.7931 46.6263C32.0598 46.5503 32.2884 46.3954 32.4791 46.1602C32.6698 45.9249 32.7655 45.6071 32.7655 45.2075V45.0745H34.6577V45.2075C34.6577 45.7584 34.5664 46.242 34.3844 46.6599C34.2025 47.077 33.9512 47.4197 33.632 47.6856C33.312 47.9523 32.9416 48.1495 32.5193 48.2781C32.097 48.4067 31.655 48.4717 31.1933 48.4717V48.471ZM36.6032 48.2708V38.9436H42.6786V40.5961H38.4946V42.8076H42.0657V44.3798H38.4946V46.6182H42.7049V48.2708H36.6025H36.6032ZM44.5182 48.2708V38.9436H48.6883C49.5234 38.9436 50.1787 39.2102 50.6536 39.7428C51.1284 40.2762 51.3666 40.9906 51.3666 41.8885C51.3666 42.7857 51.127 43.4987 50.647 44.0269C50.167 44.5551 49.5146 44.8196 48.6883 44.8196H46.4097V48.2708H44.5175H44.5182ZM46.4104 43.1678H48.342C48.5554 43.1678 48.7548 43.1078 48.9418 42.988C49.1281 42.8682 49.2596 42.7038 49.3349 42.4949C49.4109 42.286 49.4481 42.0799 49.4481 41.8754C49.4481 41.6708 49.4109 41.467 49.3349 41.2624C49.2596 41.0579 49.1281 40.8957 48.9418 40.7759C48.7548 40.656 48.5554 40.5961 48.342 40.5961H46.4104V43.1678ZM53.1127 48.2708V38.9436H57.057C57.9184 38.9436 58.5934 39.1635 59.0822 39.6033C59.5709 40.0431 59.8149 40.6802 59.8149 41.5152C59.8149 42.4036 59.4687 43.0428 58.7753 43.4337C59.0866 43.5667 59.3459 43.7354 59.5549 43.94C59.7638 44.1438 59.9216 44.3842 60.0283 44.6596C60.1349 44.935 60.1883 45.2638 60.1883 45.6459C60.1883 46.5072 59.9457 47.1603 59.4621 47.6045C58.9777 48.0487 58.3005 48.2708 57.4304 48.2708H53.1134H53.1127ZM55.0049 42.8215H56.9504C57.1374 42.8215 57.3105 42.7703 57.4698 42.668C57.6298 42.5658 57.743 42.424 57.8095 42.2414C57.876 42.0595 57.9096 41.8798 57.9096 41.7022C57.9096 41.3472 57.8168 41.0739 57.6298 40.8825C57.4435 40.6918 57.217 40.5961 56.9504 40.5961H55.0049V42.8215ZM55.0049 46.619H57.3368C57.5231 46.619 57.6963 46.5678 57.8563 46.4656C58.0163 46.3633 58.1295 46.2215 58.196 46.0389C58.2625 45.857 58.2961 45.6773 58.2961 45.4997C58.2961 45.1447 58.2026 44.8715 58.0163 44.68C57.8292 44.4894 57.6035 44.3937 57.3368 44.3937H55.0049V46.619ZM62.0001 48.2715V38.9443H63.8923V44.8868L67.5298 38.9443H69.262V48.2715H67.3698V42.3291L63.7323 48.2715H62.0001ZM75.005 48.4717C73.8324 48.4717 72.9287 48.1788 72.2931 47.5921C71.6583 47.0062 71.3405 46.1799 71.3405 45.114V42.1026C71.3405 41.0367 71.6583 40.2104 72.2931 39.6245C72.928 39.0386 73.8324 38.7449 75.005 38.7449C75.4667 38.7449 75.9087 38.8092 76.331 38.9385C76.7533 39.0671 77.1237 39.265 77.4437 39.5317C77.7637 39.7984 78.0142 40.1403 78.1961 40.5574C78.3781 40.9753 78.4694 41.4589 78.4694 42.0098V42.1428H76.5772V42.0098C76.5772 41.8856 76.5589 41.7344 76.5239 41.5568C76.4888 41.3793 76.4084 41.2127 76.2842 41.0571C76.16 40.9015 75.9796 40.7664 75.7444 40.6509C75.5091 40.5355 75.2227 40.4778 74.8852 40.4778C74.3431 40.4778 73.9325 40.6108 73.6527 40.8774C73.3729 41.1441 73.2334 41.5079 73.2334 41.9703V45.2477C73.2334 45.7094 73.3729 46.074 73.6527 46.3406C73.9325 46.6073 74.3431 46.7403 74.8852 46.7403C75.0985 46.7403 75.3382 46.7023 75.6048 46.627C75.8715 46.551 76.1001 46.3962 76.2908 46.1609C76.4815 45.9257 76.5772 45.6079 76.5772 45.2082V45.0753H78.4694V45.2082C78.4694 45.7591 78.3781 46.2427 78.1961 46.6606C78.0142 47.0778 77.7629 47.4204 77.4437 47.6863C77.1237 47.953 76.7533 48.1503 76.331 48.2788C75.9087 48.4074 75.4667 48.4724 75.005 48.4724V48.4717Z" fill="#F9FFFF"/>
</g>
<defs>
<linearGradient id="paint0_linear_293_271" x1="17.4475" y1="0.000488281" x2="17.4475" y2="59.9994" gradientUnits="userSpaceOnUse">
<stop stop-color="#4BB59B"/>
<stop offset="1" stop-color="#23527C"/>
</linearGradient>
<clipPath id="clip0_293_271">
<rect width="78.4686" height="60" fill="white"/>
</clipPath>
</defs>
</svg>
