<svg width="18" height="18" viewBox="0 0 18 18" fill="none" xmlns="http://www.w3.org/2000/svg">
<path d="M3.46154 0C1.55771 0 0 1.55771 0 3.46154V14.5385C0 16.4423 1.55771 18 3.46154 18H14.5385C16.4423 18 18 16.4423 18 14.5385V3.46154C18 1.55771 16.4423 0 14.5385 0H3.46154ZM3.46154 1.38462H14.5385C15.6946 1.38462 16.6154 2.30536 16.6154 3.46154V14.5385C16.6154 15.6946 15.6946 16.6154 14.5385 16.6154H12.329V11.0309H14.2626L14.552 8.80258H12.329V7.38281C12.329 6.73758 12.5087 6.29838 13.4405 6.29838H14.6304V4.30529C14.4241 4.2776 13.718 4.21875 12.8969 4.21875C11.1828 4.21875 10.0114 5.25583 10.0114 7.16106V8.80258L8.30769 8.79718V11.0255L10.0114 11.0309V16.6154H3.46154C2.30536 16.6154 1.38462 15.6946 1.38462 14.5385V3.46154C1.38462 2.30536 2.30536 1.38462 3.46154 1.38462Z" fill="#F9FFFF"/>
</svg>
