<svg width="40" height="40" viewBox="0 0 40 40" fill="none" xmlns="http://www.w3.org/2000/svg">
<g clip-path="url(#clip0_3_78)">
<path d="M26.2837 14.4217L22.9121 13.4818L20.9763 10.5659C20.529 9.87229 19.471 9.87253 19.0237 10.5659L17.088 13.4818L13.7163 14.4217C13.3381 14.5272 13.0378 14.815 12.9165 15.1884C12.7952 15.5619 12.8689 15.9712 13.113 16.2789L15.2882 19.021L15.1403 22.5178C15.1237 22.91 15.3047 23.2846 15.6223 23.5153C15.9399 23.746 16.3519 23.8025 16.72 23.6655L20.0001 22.4443L23.2802 23.6655C23.6482 23.8025 24.0603 23.746 24.3779 23.5153C24.6956 23.2846 24.8765 22.91 24.8599 22.5178L24.7121 19.021L26.8872 16.2789C27.1313 15.9712 27.205 15.5619 27.0837 15.1884C26.9622 14.815 26.6619 14.5272 26.2837 14.4217ZM22.6047 17.9062C22.4298 18.1268 22.3401 18.4028 22.3519 18.684L22.4437 20.8531L20.4089 20.0956C20.1452 19.9973 19.8549 19.9973 19.5911 20.0956L17.5564 20.8531L17.6481 18.684C17.66 18.4028 17.5703 18.1268 17.3954 17.9062L16.0461 16.2053L18.1376 15.6223C18.4087 15.5466 18.6436 15.3761 18.7992 15.1416L20 13.3328L21.2009 15.1416C21.3566 15.376 21.5914 15.5466 21.8625 15.6223L23.9539 16.2053L22.6047 17.9062Z" fill="#F9FFFF"/>
<path d="M39.6564 30.8995L35.086 26.3286C41.9499 14.9419 33.3746 -0.130312 19.9998 0.00085719C6.62693 -0.130859 -1.95144 14.9445 4.91406 26.3286L0.343597 30.8995C0.0564144 31.1867 -0.0616304 31.6021 0.0317273 31.9974C0.125007 32.3927 0.416408 32.7115 0.801636 32.8399L5.57093 34.4295L7.16051 39.1988C7.28894 39.5841 7.60769 39.8754 8.00299 39.9687C8.3983 40.062 8.81368 39.944 9.10087 39.6568L14.625 34.1331C17.9816 35.2542 22.0182 35.2542 25.375 34.1331L30.8992 39.6568C31.1863 39.944 31.6017 40.062 31.997 39.9687C32.3923 39.8754 32.7111 39.584 32.8395 39.1988L34.4291 34.4295L39.1984 32.8399C39.5837 32.7115 39.875 32.3927 39.9683 31.9974C40.0617 31.6021 39.9436 31.1867 39.6564 30.8995ZM8.78486 36.6589L7.60902 33.1322C7.49238 32.7823 7.21777 32.5078 6.86794 32.3911L3.34159 31.2156L6.25662 28.3007C7.87112 30.3446 9.94069 32.0224 12.2671 33.1766L8.78486 36.6589ZM20.0001 32.6356C11.6488 32.6356 4.85446 25.8413 4.85446 17.49C5.68639 -2.60269 34.3167 -2.59683 35.1456 17.4902C35.1456 25.8413 28.3513 32.6356 20.0001 32.6356ZM33.1321 32.3911C32.7822 32.5078 32.5076 32.7823 32.391 33.1322L31.2152 36.6589L27.733 33.1766C30.0595 32.0225 32.1291 30.3446 33.7436 28.3007L36.6585 31.2156L33.1321 32.3911Z" fill="#F9FFFF"/>
<path d="M20 5.02136C13.1248 5.02136 7.53149 10.6147 7.53149 17.4899C8.2164 34.0311 31.7862 34.0263 32.4686 17.4898C32.4686 10.6147 26.8752 5.02136 20 5.02136ZM20 27.6147C14.4172 27.6147 9.8752 23.0728 9.8752 17.4899C10.4314 4.05794 29.5708 4.06185 30.1248 17.49C30.1248 23.0728 25.5829 27.6147 20 27.6147Z" fill="#F9FFFF"/>
</g>
<defs>
<clipPath id="clip0_3_78">
<rect width="40" height="40" fill="white"/>
</clipPath>
</defs>
</svg>
