<svg width="18" height="18" viewBox="0 0 18 18" fill="none" xmlns="http://www.w3.org/2000/svg">
<path d="M5.22476 0C2.34736 0 0 2.34736 0 5.22476V12.7806C0 15.6526 2.34736 18 5.22476 18H12.7806C15.6526 18 18 15.6526 18 12.7752V5.22476C18 2.34736 15.6526 0 12.7752 0H5.22476ZM5.22476 1.38462H12.7752C14.9063 1.38462 16.6154 3.09375 16.6154 5.22476V12.7752C16.6154 14.9063 14.9062 16.6154 12.7806 16.6154H5.22476C3.09375 16.6154 1.38462 14.9062 1.38462 12.7806V5.22476C1.38462 3.09375 3.09375 1.38462 5.22476 1.38462ZM14.5385 2.76923C14.1544 2.76923 13.8462 3.07752 13.8462 3.46154C13.8462 3.84555 14.1544 4.15385 14.5385 4.15385C14.9225 4.15385 15.2308 3.84555 15.2308 3.46154C15.2308 3.07752 14.9225 2.76923 14.5385 2.76923ZM9 4.15385C6.33353 4.15385 4.15385 6.33353 4.15385 9C4.15385 11.6665 6.33353 13.8462 9 13.8462C11.6665 13.8462 13.8462 11.6665 13.8462 9C13.8462 6.33353 11.6665 4.15385 9 4.15385ZM9 5.53846C10.9201 5.53846 12.4615 7.07993 12.4615 9C12.4615 10.9201 10.9201 12.4615 9 12.4615C7.07993 12.4615 5.53846 10.9201 5.53846 9C5.53846 7.07993 7.07993 5.53846 9 5.53846Z" fill="#F9FFFF"/>
</svg>
