<svg width="40" height="40" viewBox="0 0 40 40" fill="none" xmlns="http://www.w3.org/2000/svg">
<path d="M15.3 30.9683C14.6539 30.9683 14.1281 30.4425 14.1281 29.7964C14.1281 29.1492 13.6035 28.6246 12.9562 28.6246C12.309 28.6246 11.7844 29.1492 11.7844 29.7964C11.7844 31.3287 12.7701 32.6343 14.1406 33.1146V34.1406C14.1406 34.7879 14.6652 35.3125 15.3125 35.3125C15.9598 35.3125 16.4844 34.7879 16.4844 34.1406V33.1061C17.8418 32.619 18.8156 31.3196 18.8156 29.7964C18.8156 27.858 17.2385 26.2808 15.3 26.2808C14.6539 26.2808 14.1281 25.755 14.1281 25.1089C14.1281 24.4626 14.6539 23.9371 15.3 23.9371C15.946 23.9371 16.4719 24.4626 16.4719 25.1089C16.4719 25.7562 16.9965 26.2808 17.6437 26.2808C18.291 26.2808 18.8156 25.7562 18.8156 25.1089C18.8156 23.5858 17.8418 22.2864 16.4844 21.799V20.0781C16.4844 19.4308 15.9598 18.9062 15.3125 18.9062C14.6652 18.9062 14.1406 19.4308 14.1406 20.0781V21.7905C12.7701 22.2708 11.7844 23.5764 11.7844 25.1089C11.7844 27.0474 13.3615 28.6246 15.3 28.6246C15.946 28.6246 16.4719 29.1501 16.4719 29.7964C16.4719 30.4425 15.946 30.9683 15.3 30.9683Z" fill="#F9FFFF"/>
<path d="M4.77661 38.0862C7.21527 39.3918 10.5634 40 15.3125 40C19.1766 40 22.085 39.5996 24.3445 38.7482C24.9899 39.5129 25.9546 40 27.0312 40H36.4844C38.4229 40 40 38.4229 40 36.4844C40 35.5847 39.6597 34.7632 39.1019 34.1406C39.66 33.5181 40 32.6965 40 31.7969C40 30.8972 39.6597 30.0757 39.1019 29.4531C39.66 28.8306 40 28.009 40 27.1094C40 26.2097 39.6597 25.3882 39.1019 24.7656C39.66 24.1431 40 23.3215 40 22.4219C40 20.4834 38.4229 18.9062 36.4844 18.9062H27.0312C26.9171 18.9062 26.8042 18.912 26.6928 18.923C25.5167 17.4985 24.1385 16.304 22.6199 15.3879C23.1763 14.7659 23.5156 13.9453 23.5156 13.0469C23.5156 11.6464 22.6923 10.4349 21.5042 9.87L23.4579 3.87909C23.5742 3.52203 23.5126 3.1311 23.2922 2.82745C23.0716 2.5235 22.7191 2.34375 22.3438 2.34375H18.6267C18.1427 0.979614 16.8402 0 15.3125 0C13.7845 0 12.4814 0.979614 11.9977 2.34375H8.28125C7.90588 2.34375 7.55341 2.5235 7.33276 2.82745C7.11243 3.1311 7.05078 3.52203 7.16705 3.87909L9.12079 9.87C7.93274 10.4349 7.10938 11.6464 7.10938 13.0469C7.10938 13.9459 7.44904 14.7672 8.00629 15.3894C3.30444 18.2272 0 23.6169 0 29.4531C0 33.4848 1.60706 36.3892 4.77661 38.0862ZM37.6562 27.1094C37.6562 27.7554 37.1304 28.2812 36.4844 28.2812H27.0312C26.3852 28.2812 25.8594 27.7554 25.8594 27.1094C25.8594 26.4633 26.3852 25.9375 27.0312 25.9375H36.4844C37.1304 25.9375 37.6562 26.4633 37.6562 27.1094ZM37.6562 31.7969C37.6562 32.4429 37.1304 32.9688 36.4844 32.9688H27.0312C26.3852 32.9688 25.8594 32.4429 25.8594 31.7969C25.8594 31.1508 26.3852 30.625 27.0312 30.625H36.4844C37.1304 30.625 37.6562 31.1508 37.6562 31.7969ZM36.4844 37.6562H27.0312C26.3852 37.6562 25.8594 37.1304 25.8594 36.4844C25.8594 35.8383 26.3852 35.3125 27.0312 35.3125H36.4844C37.1304 35.3125 37.6562 35.8383 37.6562 36.4844C37.6562 37.1304 37.1304 37.6562 36.4844 37.6562ZM37.6562 22.4219C37.6562 23.0679 37.1304 23.5938 36.4844 23.5938H27.0312C26.3852 23.5938 25.8594 23.0679 25.8594 22.4219C25.8594 21.7758 26.3852 21.25 27.0312 21.25H36.4844C37.1304 21.25 37.6562 21.7758 37.6562 22.4219ZM19.9664 14.2188H10.6589C10.6485 14.2184 10.6381 14.2188 10.6277 14.2188H10.625C9.97894 14.2188 9.45312 13.6929 9.45312 13.0469C9.45312 12.402 9.97681 11.8771 10.6213 11.8753H10.6247C10.6274 11.8753 10.6302 11.875 10.6329 11.875H19.9918C19.9945 11.875 19.9976 11.8753 20.0003 11.8753H20.0037C20.6482 11.8771 21.1719 12.402 21.1719 13.0469C21.1719 13.6929 20.6461 14.2188 20 14.2188H19.9963C19.9866 14.2188 19.9765 14.2184 19.9664 14.2188ZM12.9688 4.6875C13.616 4.6875 14.1406 4.1629 14.1406 3.51562C14.1406 2.86957 14.6664 2.34375 15.3125 2.34375C15.9586 2.34375 16.4844 2.86957 16.4844 3.51562V5.85938C16.4844 6.50665 17.009 7.03125 17.6562 7.03125C18.3035 7.03125 18.8281 6.50665 18.8281 5.85938V4.6875H20.7291L19.1495 9.53125H11.4755L9.89594 4.6875H12.9688ZM10.8536 16.5625H19.7668C21.5414 17.3038 23.1589 18.4711 24.5078 19.9777C23.8943 20.611 23.5156 21.4728 23.5156 22.4219C23.5156 23.3215 23.8559 24.1431 24.4138 24.7656C23.8559 25.3882 23.5156 26.2097 23.5156 27.1094C23.5156 28.009 23.8559 28.8306 24.4138 29.4531C23.8559 30.0757 23.5156 30.8972 23.5156 31.7969C23.5156 32.6965 23.8559 33.5181 24.4138 34.1406C23.8559 34.7632 23.5156 35.5847 23.5156 36.4844C23.5156 36.5085 23.5168 36.5323 23.5175 36.5561C21.535 37.3047 18.8947 37.6562 15.3125 37.6562C10.9644 37.6562 7.96783 37.1362 5.88287 36.0199C3.46832 34.7272 2.34375 32.6407 2.34375 29.4531C2.34375 23.9258 5.83252 18.6584 10.8536 16.5625Z" fill="#F9FFFF"/>
</svg>
