<svg width="18" height="13" viewBox="0 0 18 13" fill="none" xmlns="http://www.w3.org/2000/svg">
<path d="M1.92857 0C0.868863 0 0 0.868862 0 1.92857V10.9286C0 11.9883 0.868863 12.8571 1.92857 12.8571H16.0714C17.1261 12.8571 18 11.9883 18 10.9286V1.92857C18 0.868862 17.1311 0 16.0714 0H1.92857ZM1.92857 1.28571H16.0714C16.433 1.28571 16.7143 1.56696 16.7143 1.92857V10.9286C16.7143 11.2902 16.433 11.5714 16.0714 11.5714H1.92857C1.56696 11.5714 1.28571 11.2902 1.28571 10.9286V1.92857C1.28571 1.56696 1.56696 1.28571 1.92857 1.28571ZM6.44364 2.54632V10.2857L12.8722 6.4135L6.44364 2.54632ZM7.72935 4.81641L10.3811 6.4135L7.72935 8.0106V4.81641Z" fill="#F9FFFF"/>
</svg>
